<?xml version="1.0" encoding="utf-8"?>
<!-- Generator: Adobe Illustrator 15.1.0, SVG Export Plug-In . SVG Version: 6.00 Build 0)  -->
<!DOCTYPE svg PUBLIC "-//W3C//DTD SVG 1.1//EN" "http://www.w3.org/Graphics/SVG/1.1/DTD/svg11.dtd">
<svg version="1.1" id="Layer_1" xmlns="http://www.w3.org/2000/svg" xmlns:xlink="http://www.w3.org/1999/xlink" x="0px" y="0px"
	 width="20px" height="20px" viewBox="0 0 20 20" enable-background="new 0 0 20 20" xml:space="preserve">
<path fill="#FFFFFF" d="M0,0v20h20V0H0z M15.58,7.628c0.172,3.838-2.689,8.116-7.756,8.101c-1.541,0-2.977-0.453-4.184-1.228
	c1.447,0.2,2.894-0.229,4.039-1.131c-1.193-0.021-2.201-0.812-2.549-1.896c0.428,0.101,0.8,0.101,1.232-0.047
	C5.05,11.2,4.1,10,4.2,8.734C4.543,8.9,5,9.1,5.4,9.1C4.195,8.3,3.9,6.7,4.6,5.434c1.346,1.6,3.4,2.7,5.6,2.851
	c-0.396-1.707,0.896-3.351,2.657-3.351c0.785,0,1.5,0.3,2,0.861c0.621-0.122,1.205-0.35,1.73-0.663
	c-0.201,0.638-0.635,1.173-1.199,1.5c0.553-0.065,1.078-0.213,1.566-0.431C16.575,6.8,16.1,7.2,15.6,7.628H15.58z"/>
</svg>
