<?xml version="1.0" encoding="utf-8"?>
<!-- Generator: Adobe Illustrator 15.1.0, SVG Export Plug-In . SVG Version: 6.00 Build 0)  -->
<!DOCTYPE svg PUBLIC "-//W3C//DTD SVG 1.1//EN" "http://www.w3.org/Graphics/SVG/1.1/DTD/svg11.dtd">
<svg version="1.1" id="Layer_1" xmlns="http://www.w3.org/2000/svg" xmlns:xlink="http://www.w3.org/1999/xlink" x="0px" y="0px"
	 width="20px" height="20px" viewBox="0 0 20 20" enable-background="new 0 0 20 20" xml:space="preserve">
<path fill="#FFFFFF" d="M0,0v20h20V0H0z M6.361,16.648H3.617V7.782h2.744V16.648z M4.975,6.6c-0.896,0-1.621-0.732-1.621-1.636
	c0-0.904,0.726-1.636,1.621-1.636c0.896,0,1.6,0.7,1.6,1.6C6.6,5.9,5.9,6.6,5,6.621L4.975,6.6z M16.646,16.648h-2.73
	c0,0,0-3.377,0-4.654c0-1.275-0.484-1.988-1.494-1.988c-1.1,0-1.672,0.742-1.672,1.988c0,1.4,0,4.699,0,4.654H8.116V7.782h2.634
	v1.194c0,0,0.791-1.465,2.672-1.465s3.227,1.1,3.2,3.523C16.646,13.4,16.6,16.6,16.6,16.648H16.646z"/>
</svg>
