<?xml version="1.0" encoding="utf-8"?>
<!-- Generator: Adobe Illustrator 15.1.0, SVG Export Plug-In . SVG Version: 6.00 Build 0)  -->
<!DOCTYPE svg PUBLIC "-//W3C//DTD SVG 1.1//EN" "http://www.w3.org/Graphics/SVG/1.1/DTD/svg11.dtd">
<svg version="1.1" id="Layer_1" xmlns="http://www.w3.org/2000/svg" xmlns:xlink="http://www.w3.org/1999/xlink" x="0px" y="0px"
	 width="20px" height="20px" viewBox="0 0 20 20" enable-background="new 0 0 20 20" xml:space="preserve">
<path fill="#FFFFFF" d="M10.409,14.167c0,1.229-0.998,2.188-3.063,2.2c-1.615,0-2.783-1.022-2.783-2.252
	c0-1.203,1.369-2.242,2.985-2.225C9.341,11.9,10.4,13,10.4,14.167H10.409z M20,0v20H0V0H20z M11.802,14.023
	c0-1.135-0.424-1.875-1.704-2.836C8.797,10.2,8.5,9.7,9.7,8.746c0.698-0.54,1.188-1.262,1.188-2.15c0-0.969-0.396-1.848-1.142-2.273
	h1.056L11.7,3.38c0,0-3.389,0-4.021,0c-2.512,0-3.743,1.505-3.743,3.2c0,1.7,1.2,3,3.4,3.024c-0.352,0.709-0.21,1.4,0.4,1.833
	c-3.872,0-4.701,1.699-4.701,3c0,1.701,1.9,2.701,4.3,2.703C10.531,17.1,11.8,15.4,11.8,14.023H11.802z M17.049,5.418h-1.855V3.563
	h-0.93v1.856H12.41v0.929h1.854v1.855h0.93V6.348h1.854L17.049,5.418L17.049,5.418z M9.292,6.656C9.105,5.2,8.2,4.1,7.1,4
	C6.016,3.968,5.289,5.058,5.476,6.48c0.188,1.4,1.2,2.4,2.3,2.452C8.855,9,9.5,8.1,9.3,6.656H9.292z"/>
</svg>
