<?xml version="1.0" encoding="utf-8"?>
<!-- Generator: Adobe Illustrator 15.1.0, SVG Export Plug-In . SVG Version: 6.00 Build 0)  -->
<!DOCTYPE svg PUBLIC "-//W3C//DTD SVG 1.1//EN" "http://www.w3.org/Graphics/SVG/1.1/DTD/svg11.dtd">
<svg version="1.1" id="Layer_1" xmlns="http://www.w3.org/2000/svg" xmlns:xlink="http://www.w3.org/1999/xlink" x="0px" y="0px"
	 width="768px" height="128px" viewBox="0 0 768 128" enable-background="new 0 0 768 128" xml:space="preserve">
<g id="Layer_2">
</g>
<path fill="#2A2A2A" d="M368.391,40.402c-4.298-0.011-8.587,0-12.869-0.011c3.074-9.892,5.719-20.336,12.038-28.829
	c1.673-1.319,3.381-4.844,5.988-2.949c1.046,4.316-2.681,8.556-1.056,13.085c3.955,0.521,9.102,2.342,12.216-1.19
	c3.129-4.917,0.619-12.371-5.283-13.869c-6.664-1.536-14.313-1.292-19.938,2.932c-10.441,7.157-15.663,19.179-18.77,30.946
	c-4.166,0.502-9.377-1.542-12.739,1.596c4.068,0.26,8.063,0.26,12.224,0.249c-6.379,22.677-10.926,45.867-19.208,67.875
	c-1.336,4.102-3.554,7.945-7.136,10.593c-3.044-4.479,2.213-9.179-0.05-13.836c-3.065-2.054-7.336-1.983-10.593-0.496
	c-4.844,4.147-2.629,13.002,3.643,14.792c6.416,1.561,14.303,1.561,19.41-3.023c7.618-6.375,11.199-15.882,14.369-24.865
	c5.43-16.899,9.536-34.145,14.437-51.2c4.45,0,8.843,0,13.521,0.007c-0.055-0.396-0.021-1.332-0.021-1.789L368.391,40.402z"/>
<path fill="#2A2A2A" d="M523.371,85.441c7.627-26.396,16.709-52.44,25.027-78.661c-7.308-0.076-14.595-0.213-21.867,0.288v1.927
	c1.573,0,4.68,0,6.239,0c-7.09,22.386-14.467,44.711-21.493,67.123c-1.545,4.632-1.291,11.702,4.682,13.002
	c9.711,2.603,18.371-4.581,22.07-12.724c-1.052,0.014-3.172,0.043-4.228,0.073c-2.936,3.575-5.656,7.729-10.514,8.906h0.016v0.063
	L523.371,85.441L523.371,85.441z"/>
<path fill="#2A2A2A" d="M83.455,52.458C79.968,37.15,57.07,36.267,47.837,46.927c-6.956-9-21.171-8.693-29.935-2.421
	c0-0.742,0.034-2.221,0.034-2.962c-3.186,0-6.374,0-9.56,0c0,15.343,0,30.688,0,46.067c3.188,0,6.241,0,9.622,0
	c0.156-9.233-0.323-18.489,0.206-27.7c0.406-7.245,7.947-13.6,15.366-12.102c5.607,1.302,7.802,7.282,7.802,12.483
	c0.099,9.146-0.011,18.204,0,27.452c3.188,0,6.241,0,9.622,0c0.13-9.156-0.24-18.337,0.141-27.493
	c0.397-7.529,8.306-13.957,15.97-12.256c5.502,1.3,7.801,7.281,7.801,12.318c0.078,9.15-0.018,18.205,0,27.307
	c3.186,0,6.242,0,9.623,0.024c-0.562-11.666,1.019-23.571-1.056-35.153h0.052v-0.034L83.455,52.458L83.455,52.458z"/>
<path fill="#2A2A2A" d="M197.473,58.582c-0.135-6.551-2.928-13.775-9.333-16.799c-7.617-3.173-16.898-2.283-23.634,2.34
	c-0.013-0.678-0.031-2.039-0.047-2.735c-3.183,0-6.358,0-9.526,0c0,15.345,0,30.688,0,46.079c3.186,0,6.241,0,9.623,0
	c0.127-9.209-0.239-18.402,0.132-27.599c0.302-7.303,7.945-13.603,15.353-12.22c5.654,1.3,8.062,7.281,8.062,12.481
	c0.099,9.139-0.01,18.204,0,27.432c3.188,0,6.241,0,9.622,0c-0.135-9.646,0.058-19.244-0.062-28.974L197.473,58.582L197.473,58.582z
	"/>
<path fill="#2A2A2A" d="M403.51,39.185c-6.006-1.142-10.51,3.346-13.338,7.854c-0.377-3.926-2.885-8.062-7.474-7.791
	c-7.968-1.506-15.131,4.616-16.816,11.918c5.793,0.52,6.292-6.597,11.156-8.231c0.083,2.648-0.32,5.207-1.219,7.803
	c-4.112,12.434-8.231,24.829-12.098,37.335c4.913,0,9.885,0,14.563,0.063c5.388-14.69,7.412-31.703,19.33-43.125
	c3.537,1.147-0.353,6.241,0,9.19c3.963,2.601,11.703,4.161,13.897-1.342c2.986-5.871-0.901-14.428-8.293-13.611h0.287v-0.062
	L403.51,39.185L403.51,39.185z"/>
<path fill="#2A2A2A" d="M647.859,85.609c-0.854-2.164-1.793-4.459-0.705-6.737c2.998-10.399,10.481-19.866,9.559-31.089
	c-0.084-4.435-3.887-8.818-8.672-8.556c-8.184-1.198-14.768,4.659-19.744,10.168c-0.424-2.723-0.137-5.872-2.188-8.067
	c-7.634-6.161-21.886,0.713-21.431,9.997c5.285,0.52,5.681-6.644,10.134-8.455c0.52,2.081,0.26,4.429-0.429,6.501
	c-4.254,12.943-8.455,25.906-12.481,38.923c4.895,0,9.883,0,14.563,0.039c3.074-9.017,5.537-18.229,8.808-27.178
	c3.356-6.557,7.711-13.309,14.854-16.412c1.324,1.819,3.902,3.64,2.861,6.166c-1.656,10.205-8.656,18.854-9.791,29.126
	c-0.888,5.46,4.422,9.882,9.883,9.427c8.795,1.04,15.467-6.11,18.815-13.167c-1.03,0.071-3.131,0.17-4.166,0.26
	c-2.793,3.365-5.532,7.078-9.799,8.873h-0.053v0.184L647.859,85.609L647.859,85.609z"/>
<path fill="#2A2A2A" d="M129.08,70.607c-0.815,6.576-6.988,10.578-13.336,11.425c-5.016-1.521-8.681-5.896-8.894-11.068
	c-0.348-9.799-0.026-19.627-0.13-29.43c-3.204,0-6.393,0-9.578,0c0.033,9.301-0.045,18.724,0,28.085
	c0.033,6.501,2.08,13.783,8.322,17.258c7.489,4.16,17.163,3.121,24.112-1.745c0,0.779,0,2.08,0,2.66
	c3.175-0.026,6.319-0.052,9.5-0.052c0-15.367,0-30.712,0-46.082c-3.188,0-6.371,0-9.557,0c-0.317,9.6,0.518,19.223-0.523,28.949
	H129.08L129.08,70.607z"/>
<path fill="#2A2A2A" d="M449.602,39.599c-6.614-0.853-13.797-0.741-19.743,2.604c-12.734,6.579-19.83,22.213-15.755,35.627
	c4.937,16.123,31.984,15.344,38.228,0.5c-5.791-0.713-7.881,5.674-12.754,7.292c-3.896,1.569-9.48,3.198-12.525-0.674
	c-3.674-6.843,0.4-14.521,1.771-21.445c8.016,0.261,16.643,0,23.688-3.938c3.855-2.07,7.031-5.979,6.793-10.445
	c0.332-5.081-4.903-8.894-9.647-9.635h0.024v0.114H449.602L449.602,39.599z M446.34,49.179c-1.041,8.022-9.215,12.714-17,12.744
	c2.422-7.298,3.996-17.032,12.205-20.293c4.58-1.731,5.723,4.422,4.682,7.459h0.113V49.179z"/>
<path fill="#2A2A2A" d="M496.672,39.612c-6.662-0.866-13.877-0.766-19.813,2.621c-13.002,6.763-20.14,22.982-15.357,36.667
	c5.738,15.344,31.727,14.043,37.855-0.42c-5.813-0.715-7.898,5.728-12.81,7.309c-4.063,1.745-10.541,3.257-13-1.566
	c-2.701-6.781,0.896-13.883,2.285-20.563c8.021,0.26,16.646,0,23.654-3.919c3.871-2.069,7.055-5.991,6.832-10.451
	c0.315-5.113-4.818-8.933-9.675-9.635h0.039v-0.027h-0.016v-0.015H496.672z M493.365,49.361
	c-1.135,7.966-9.252,12.495-16.965,12.482c2.42-7.282,4.002-17.045,12.188-20.305c4.685-1.667,5.724,4.681,4.685,7.703h0.092V49.361
	z"/>
<path fill="#2A2A2A" d="M584.178,85.402c4.107-15.168,9.808-29.863,14.09-45c-6.771-0.369-13.6,1.3-20.301-0.264
	c-21.69-2.771-41.35,21.385-33.264,41.237c3.961,10.923,21.063,10.923,27.045,1.473c1.246,2.86,2.604,6.241,6.242,6.502
	c9.145,1.819,17.631-4.916,20.479-13c-0.965,0.053-2.916,0.142-3.881,0.164c-2.785,3.61-5.557,7.771-10.498,8.813L584.178,85.402z
	 M579.02,54.555c-4.016,10.826-5.905,23.912-16.125,31.175c-2.563,2.283-6.1,0.597-6.61-2.496
	c-1.125-8.381,1.797-16.623,4.684-24.399c2.64-6.448,6.033-13.657,13.027-16.512c1.867-1.018,3.897,0.26,5.461,1.041
	c3.4,3.12,0.521,7.49-0.465,11.083h0.051v0.109L579.02,54.555L579.02,54.555z"/>
<path fill="#2A2A2A" d="M757.527,43.663c-4.566-5.18-12.336-4.665-18.662-4.255c-18.351,2.586-30.525,23.938-23.611,40.568
	c6.586,14.304,31.467,12.481,37.371-1.465c-5.805-0.718-7.889,5.698-12.781,7.295c-4.084,1.736-10.574,3.27-13.01-1.582
	c-2.725-6.757,0.896-13.865,2.289-20.547c8.715,0.261,18.205,0,25.586-5.194c4.701-3.137,6.82-10.418,2.773-14.811L757.527,43.663z
	 M746.654,49.221c-1.054,8.021-9.229,12.658-16.986,12.74c2.424-7.282,3.99-17.018,12.188-20.285
	c4.603-1.688,5.72,4.421,4.681,7.544L746.654,49.221L746.654,49.221z"/>
<path fill="#2A2A2A" d="M250.147,44.868c-8.363-6.246-20.625-6.549-29.719-1.694c-12.186,6.89-14.353,23.921-7.729,35.107
	c7.297,12.48,26.526,14.304,37.448,5.73c-0.055,0.865-0.135,2.637-0.19,3.516c3.207,0,6.241,0,9.623,0
	c0.018-23.616,0-47.234,0.018-70.871c-3.204,0-6.393,0-9.576,0c0.094,9.377-0.102,18.74,0.158,28.211L250.147,44.868L250.147,44.868
	z M239.549,80.461c-7.641,3.257-16.768-1.771-19.514-9.07c-3.713-8.24-0.099-19.47,8.967-22.668
	c7.167-2.834,15.603,1.301,19.244,7.542c4.584,8.322,0.779,20.632-8.699,24.058L239.549,80.461z"/>
<path fill="#2A2A2A" d="M312.682,44.68c-6.997-4.993-16.441-5.713-24.646-3.65c-18.966,4.554-22.519,31.96-8.01,43.169
	c10.04,7.281,25.747,6.761,34.917-1.657c9.827-10.217,9.354-28.94-2.351-37.861L312.682,44.68L312.682,44.68z M312.211,67.902
	c-1.297,9.813-13.691,17.347-22.798,11.688c-12.489-5.964-11.722-26.224,1.487-30.931c11.786-5.27,24.706,7.802,21.324,19.25
	l-0.014,0.054L312.211,67.902L312.211,67.902z"/>
<g>
	<g>
		<path fill="#2A2A2A" d="M703.309,55.941c-3.446,0-4.998-2.497-4.998-4.888c0-3.694,1.892-4.012,1.892-6.632
			c0-2.616-1.443-3.586-4.441-3.586c-5.008,0-8.344,2.396-11.112,7.069c-2.461,4.349-8.445,25.538-8.445,31.303
			c0,5.201,1.561,9.102,7.543,9.102c8.686,0,14.129-4.453,18.682-10.211l0.439,0.227c-5.105,6.617-11.111,10.427-18.682,10.427
			c-10.011,0-17.464-7.504-17.464-18.259c0-15.543,13.462-29.998,28.363-29.998c6.896,0,13.783,4.681,13.783,10.104
			c0.121,3.521-2.549,5.343-5.67,5.285L703.309,55.941z"/>
		<path fill="#2A2A2A" d="M703.309,55.941c-1.073,0.046-2.199-0.165-3.138-0.779c-0.941-0.605-1.628-1.59-1.952-2.677
			c-0.328-1.103-0.292-2.246-0.096-3.367c0.189-1.141,0.854-2.171,1.229-3.064c0.185-0.456,0.275-0.91,0.279-1.39l-0.001-0.18
			l-0.003-0.072l-0.007-0.101c-0.012-0.129-0.015-0.28-0.034-0.393c-0.03-0.22-0.078-0.444-0.145-0.663
			c-0.267-0.862-0.92-1.337-1.854-1.523c-0.905-0.181-1.997-0.15-2.982-0.04c-1.009,0.116-1.987,0.355-2.897,0.736
			c-1.828,0.757-3.343,2.098-4.563,3.711c-0.599,0.798-1.183,1.706-1.628,2.563c-0.41,0.853-0.789,1.878-1.136,2.864
			c-1.371,4.016-2.511,8.171-3.587,12.314c-1.042,4.147-2.027,8.353-2.625,12.494c-0.14,1.021-0.267,2.063-0.248,2.947
			c0.014,1.022,0.097,1.99,0.283,2.902c0.186,0.905,0.487,1.728,0.919,2.359c0.432,0.635,0.979,1.087,1.688,1.391
			c0.704,0.31,1.571,0.447,2.483,0.48l0.348,0.003l0.357-0.006c0.268-0.008,0.551-0.012,0.775-0.03
			c0.467-0.025,0.976-0.067,1.461-0.133c1.96-0.246,3.849-0.785,5.612-1.614c3.545-1.652,6.482-4.529,9.038-7.796l0.993-1.27
			l1.449,0.741l0.44,0.226l2.099,1.073l-1.443,1.876c-1.639,2.131-3.483,4.157-5.632,5.906c-2.136,1.757-4.611,3.194-7.295,4.105
			c-2.688,0.918-5.527,1.274-8.335,1.146c-2.826-0.141-5.666-0.859-8.207-2.211c-2.542-1.339-4.769-3.297-6.396-5.652
			c-1.639-2.35-2.707-5.048-3.218-7.802c-0.521-2.768-0.481-5.561-0.114-8.256c0.378-2.705,1.112-5.351,2.189-7.837
			c2.134-4.981,5.47-9.387,9.615-12.803c4.153-3.393,9.21-5.766,14.557-6.418c1.335-0.164,2.673-0.218,4.022-0.144
			c1.372,0.082,2.707,0.331,4,0.723c2.572,0.792,4.997,2.123,6.889,4.06c0.937,0.971,1.731,2.103,2.228,3.377
			c0.51,1.279,0.625,2.67,0.41,4.008c-0.221,1.35-1.039,2.595-2.18,3.291c-1.135,0.711-2.479,0.946-3.759,0.87l0.003-0.01
			L703.309,55.941z M703.309,55.941l-0.112-0.053l-0.021-0.01l0.022,0c1.281-0.031,2.569-0.384,3.567-1.138
			c1.007-0.744,1.61-1.903,1.719-3.107c0.105-1.211-0.084-2.465-0.614-3.548c-0.519-1.096-1.3-2.061-2.208-2.878
			c-1.824-1.637-4.115-2.744-6.491-3.319c-1.188-0.287-2.412-0.439-3.612-0.44c-1.223,0.009-2.461,0.124-3.673,0.324
			c-4.869,0.815-9.381,3.216-13.059,6.47c-3.692,3.25-6.604,7.387-8.373,11.931c-0.882,2.272-1.497,4.637-1.782,7.036
			c-0.278,2.403-0.254,4.823,0.228,7.111c0.909,4.6,3.792,8.651,7.853,10.734c4.016,2.117,9.096,2.229,13.457,0.734
			c4.391-1.524,8.105-4.79,11.101-8.664l0.656,2.949l-0.438-0.228l2.441-0.528c-2.762,3.48-6.154,6.849-10.496,8.845
			c-2.147,1.006-4.478,1.615-6.806,1.856c-0.586,0.064-1.154,0.103-1.766,0.123c-0.314,0.016-0.571,0.014-0.843,0.016l-0.452-0.002
			l-0.462-0.014c-1.236-0.07-2.541-0.275-3.813-0.856c-1.271-0.561-2.437-1.563-3.181-2.74c-0.759-1.176-1.152-2.442-1.379-3.649
			c-0.223-1.209-0.289-2.404-0.283-3.539c0.008-1.276,0.177-2.383,0.354-3.493c0.782-4.386,1.916-8.565,3.112-12.754
			c1.214-4.179,2.524-8.313,4.146-12.398c0.42-1.031,0.825-2.022,1.4-3.091c0.6-1.031,1.233-1.915,1.969-2.813
			c1.445-1.764,3.359-3.301,5.595-4.064c1.106-0.389,2.262-0.597,3.403-0.662c1.16-0.053,2.257-0.038,3.46,0.263
			c0.587,0.158,1.202,0.424,1.71,0.882c0.511,0.454,0.854,1.084,0.998,1.697c0.07,0.304,0.114,0.612,0.132,0.93
			c0.011,0.156,0.003,0.276,0.006,0.416v0.101l-0.004,0.13l-0.014,0.225c-0.045,0.599-0.217,1.211-0.478,1.739
			c-0.542,1.052-1.149,1.832-1.391,2.833c-0.248,0.98-0.346,2.056-0.141,3.051c0.209,1,0.749,1.949,1.581,2.591
			C701.157,55.588,702.233,55.897,703.309,55.941z"/>
	</g>
</g>
</svg>
