<?xml version="1.0" encoding="utf-8"?>
<!-- Generator: Adobe Illustrator 15.1.0, SVG Export Plug-In . SVG Version: 6.00 Build 0)  -->
<!DOCTYPE svg PUBLIC "-//W3C//DTD SVG 1.1//EN" "http://www.w3.org/Graphics/SVG/1.1/DTD/svg11.dtd">
<svg version="1.1" id="Layer_1" xmlns="http://www.w3.org/2000/svg" xmlns:xlink="http://www.w3.org/1999/xlink" x="0px" y="0px"
	 width="141.333px" height="25px" viewBox="314.5 51.5 141.333 25" enable-background="new 314.5 51.5 141.333 25"
	 xml:space="preserve">
<g id="Layer_2">
</g>
<path fill="#FFFFFF" d="M382.19,60.771c-0.773-0.002-1.545,0-2.316-0.002c0.553-1.78,1.029-3.66,2.167-5.189
	c0.301-0.237,0.609-0.872,1.078-0.531c0.188,0.777-0.483,1.54-0.19,2.355c0.712,0.093,1.638,0.421,2.199-0.214
	c0.563-0.885,0.111-2.227-0.951-2.497c-1.2-0.276-2.576-0.232-3.589,0.528c-1.879,1.288-2.819,3.452-3.379,5.57
	c-0.75,0.09-1.688-0.278-2.292,0.287c0.732,0.047,1.451,0.047,2.2,0.045c-1.148,4.082-1.967,8.256-3.458,12.217
	c-0.24,0.738-0.64,1.431-1.284,1.907c-0.548-0.807,0.398-1.652-0.009-2.49c-0.552-0.37-1.321-0.357-1.907-0.09
	c-0.872,0.746-0.473,2.341,0.656,2.663c1.155,0.281,2.575,0.281,3.494-0.544c1.371-1.147,2.016-2.859,2.586-4.476
	c0.978-3.042,1.716-6.146,2.599-9.216c0.801,0,1.592,0,2.434,0.001c-0.01-0.071-0.004-0.24-0.004-0.322L382.19,60.771z"/>
<path fill="#FFFFFF" d="M410.087,68.878c1.373-4.751,3.008-9.439,4.505-14.159c-1.316-0.014-2.628-0.038-3.937,0.052v0.347
	c0.283,0,0.843,0,1.123,0c-1.276,4.029-2.604,8.048-3.868,12.082c-0.278,0.834-0.232,2.106,0.843,2.341
	c1.747,0.469,3.307-0.824,3.973-2.29c-0.19,0.002-0.571,0.008-0.762,0.013c-0.528,0.644-1.019,1.392-1.893,1.604h0.003v0.011
	L410.087,68.878L410.087,68.878z"/>
<path fill="#FFFFFF" d="M330.902,62.941c-0.628-2.755-4.75-2.915-6.411-0.996c-1.252-1.62-3.811-1.565-5.389-0.436
	c0-0.133,0.006-0.399,0.006-0.533c-0.574,0-1.147,0-1.721,0c0,2.762,0,5.524,0,8.292c0.574,0,1.123,0,1.732,0
	c0.028-1.662-0.058-3.328,0.037-4.986c0.073-1.304,1.43-2.448,2.766-2.178c1.009,0.234,1.404,1.311,1.404,2.248
	c0.018,1.646-0.002,3.276,0,4.94c0.574,0,1.124,0,1.732,0c0.023-1.647-0.043-3.3,0.025-4.948c0.072-1.355,1.495-2.512,2.875-2.206
	c0.991,0.234,1.404,1.311,1.404,2.217c0.014,1.647-0.003,3.277,0,4.916c0.574,0,1.124,0,1.732,0.004
	c-0.102-2.1,0.183-4.243-0.19-6.328h0.01V62.94L330.902,62.941L330.902,62.941z"/>
<path fill="#FFFFFF" d="M351.425,64.043c-0.024-1.179-0.527-2.479-1.68-3.023c-1.371-0.571-3.042-0.411-4.254,0.421
	c-0.002-0.122-0.005-0.367-0.008-0.492c-0.573,0-1.145,0-1.715,0c0,2.763,0,5.523,0,8.294c0.574,0,1.124,0,1.732,0
	c0.023-1.657-0.043-3.313,0.023-4.967c0.055-1.315,1.43-2.449,2.764-2.2c1.018,0.234,1.451,1.311,1.451,2.247
	c0.018,1.645-0.002,3.276,0,4.938c0.574,0,1.124,0,1.732,0c-0.024-1.736,0.011-3.465-0.011-5.216L351.425,64.043L351.425,64.043z"/>
<path fill="#FFFFFF" d="M388.512,60.552c-1.081-0.206-1.892,0.602-2.401,1.414c-0.067-0.707-0.519-1.451-1.345-1.402
	c-1.434-0.271-2.724,0.831-3.027,2.146c1.042,0.093,1.132-1.188,2.008-1.482c0.015,0.477-0.058,0.938-0.219,1.405
	c-0.74,2.238-1.481,4.469-2.178,6.72c0.884,0,1.779,0,2.621,0.012c0.97-2.645,1.334-5.707,3.479-7.763
	c0.637,0.207-0.063,1.124,0,1.654c0.713,0.468,2.106,0.75,2.501-0.241c0.538-1.057-0.162-2.597-1.492-2.45h0.052L388.512,60.552
	L388.512,60.552L388.512,60.552z"/>
<path fill="#FFFFFF" d="M432.494,68.908c-0.153-0.39-0.322-0.803-0.127-1.213c0.54-1.872,1.887-3.576,1.721-5.596
	c-0.015-0.798-0.699-1.587-1.561-1.541c-1.474-0.215-2.658,0.839-3.554,1.831c-0.076-0.49-0.025-1.057-0.395-1.452
	c-1.374-1.109-3.939,0.128-3.857,1.799c0.951,0.094,1.022-1.196,1.824-1.522c0.094,0.375,0.047,0.797-0.077,1.17
	c-0.766,2.33-1.522,4.663-2.246,7.006c0.881,0,1.778,0,2.621,0.007c0.553-1.623,0.996-3.281,1.585-4.893
	c0.604-1.18,1.389-2.395,2.674-2.954c0.238,0.327,0.702,0.655,0.516,1.11c-0.299,1.837-1.559,3.394-1.763,5.242
	c-0.16,0.983,0.796,1.779,1.778,1.697c1.584,0.188,2.784-1.1,3.387-2.37c-0.185,0.013-0.563,0.03-0.75,0.047
	c-0.502,0.605-0.995,1.274-1.764,1.597h-0.01v0.033H432.494L432.494,68.908z"/>
<path fill="#FFFFFF" d="M339.114,66.208c-0.146,1.184-1.258,1.903-2.4,2.057c-0.903-0.274-1.563-1.062-1.601-1.993
	c-0.063-1.764-0.004-3.532-0.023-5.297c-0.577,0-1.15,0-1.724,0c0.006,1.674-0.008,3.37,0,5.056c0.006,1.17,0.375,2.48,1.498,3.106
	c1.348,0.748,3.089,0.562,4.34-0.314c0,0.141,0,0.374,0,0.479c0.571-0.005,1.137-0.009,1.71-0.009c0-2.767,0-5.528,0-8.295
	c-0.574,0-1.147,0-1.72,0c-0.057,1.728,0.093,3.46-0.094,5.211H339.114L339.114,66.208z"/>
<path fill="#FFFFFF" d="M396.809,60.626c-1.19-0.154-2.484-0.134-3.554,0.468c-2.292,1.185-3.569,3.999-2.836,6.413
	c0.889,2.902,5.757,2.762,6.881,0.09c-1.042-0.128-1.419,1.021-2.296,1.313c-0.701,0.282-1.706,0.576-2.254-0.121
	c-0.662-1.231,0.071-2.614,0.318-3.86c1.442,0.048,2.996,0,4.264-0.708c0.694-0.373,1.266-1.077,1.223-1.881
	c0.06-0.915-0.882-1.601-1.736-1.734h0.004v0.021H396.809L396.809,60.626z M396.221,62.351c-0.188,1.444-1.658,2.288-3.06,2.294
	c0.436-1.313,0.719-3.066,2.197-3.653c0.824-0.312,1.029,0.796,0.842,1.343h0.021V62.351z"/>
<path fill="#FFFFFF" d="M405.281,60.628c-1.199-0.156-2.498-0.138-3.566,0.472c-2.341,1.218-3.626,4.137-2.765,6.6
	c1.033,2.762,5.711,2.528,6.814-0.075c-1.047-0.129-1.422,1.031-2.307,1.315c-0.731,0.314-1.897,0.586-2.34-0.282
	c-0.486-1.221,0.161-2.499,0.411-3.701c1.443,0.047,2.996,0,4.258-0.705c0.697-0.373,1.27-1.079,1.229-1.881
	c0.057-0.92-0.867-1.608-1.741-1.734h0.007v-0.005h-0.003v-0.002L405.281,60.628L405.281,60.628z M404.686,62.383
	c-0.204,1.434-1.665,2.25-3.054,2.247c0.436-1.311,0.721-3.068,2.193-3.655c0.844-0.3,1.031,0.843,0.844,1.387h0.017V62.383
	L404.686,62.383z"/>
<path fill="#FFFFFF" d="M421.032,68.871c0.739-2.73,1.766-5.375,2.536-8.101c-1.219-0.066-2.448,0.234-3.654-0.047
	c-3.904-0.499-7.443,3.849-5.987,7.422c0.713,1.967,3.791,1.967,4.868,0.266c0.224,0.515,0.468,1.123,1.123,1.17
	c1.646,0.328,3.174-0.885,3.687-2.34c-0.174,0.01-0.525,0.026-0.699,0.029c-0.501,0.65-1,1.399-1.89,1.587L421.032,68.871z
	 M420.104,63.318c-0.723,1.949-1.063,4.304-2.902,5.611c-0.462,0.411-1.099,0.107-1.189-0.449c-0.203-1.509,0.323-2.992,0.843-4.392
	c0.476-1.161,1.086-2.458,2.345-2.972c0.336-0.184,0.701,0.047,0.983,0.187c0.611,0.562,0.094,1.349-0.084,1.995h0.009v0.02H420.104
	L420.104,63.318z"/>
<path fill="#FFFFFF" d="M452.234,61.358c-0.821-0.933-2.22-0.84-3.358-0.766c-3.304,0.465-5.495,4.309-4.25,7.303
	c1.185,2.574,5.664,2.246,6.727-0.265c-1.045-0.129-1.42,1.026-2.301,1.313c-0.735,0.313-1.903,0.589-2.342-0.284
	c-0.49-1.217,0.161-2.496,0.412-3.699c1.568,0.047,3.276,0,4.605-0.935c0.846-0.565,1.228-1.875,0.499-2.666L452.234,61.358z
	 M450.277,62.358c-0.189,1.443-1.661,2.278-3.058,2.293c0.437-1.311,0.719-3.063,2.194-3.651c0.828-0.304,1.029,0.796,0.843,1.358
	L450.277,62.358L450.277,62.358z"/>
<path fill="#FFFFFF" d="M360.906,61.575c-1.505-1.125-3.712-1.179-5.349-0.305c-2.194,1.24-2.584,4.306-1.392,6.319
	c1.313,2.246,4.775,2.575,6.741,1.031c-0.01,0.156-0.024,0.475-0.034,0.633c0.577,0,1.124,0,1.732,0
	c0.003-4.251,0-8.502,0.003-12.756c-0.577,0-1.151,0-1.724,0c0.017,1.688-0.019,3.373,0.028,5.078H360.906L360.906,61.575z
	 M358.999,67.981c-1.375,0.586-3.018-0.319-3.512-1.633c-0.668-1.483-0.018-3.504,1.614-4.08c1.29-0.51,2.809,0.234,3.464,1.358
	c0.825,1.497,0.14,3.713-1.566,4.33L358.999,67.981z"/>
<path fill="#FFFFFF" d="M372.163,61.541c-1.26-0.899-2.959-1.029-4.436-0.657c-3.414,0.82-4.054,5.753-1.442,7.771
	c1.807,1.311,4.635,1.217,6.285-0.298c1.769-1.84,1.684-5.209-0.424-6.815H372.163L372.163,61.541z M372.078,65.721
	c-0.233,1.767-2.464,3.122-4.104,2.104c-2.248-1.073-2.11-4.72,0.268-5.567c2.122-0.948,4.447,1.404,3.838,3.465l-0.002,0.01V65.721
	L372.078,65.721z"/>
<g>
	<g>
		<path fill="#FFFFFF" d="M442.476,63.568c-0.62,0-0.899-0.45-0.899-0.88c0-0.665,0.341-0.722,0.341-1.194
			c0-0.471-0.26-0.646-0.8-0.646c-0.901,0-1.502,0.431-2,1.272c-0.443,0.783-1.521,4.597-1.521,5.635
			c0,0.936,0.281,1.638,1.358,1.638c1.563,0,2.543-0.801,3.362-1.838l0.079,0.041c-0.919,1.191-2,1.877-3.362,1.877
			c-1.803,0-3.145-1.351-3.145-3.286c0-2.798,2.424-5.4,5.105-5.4c1.242,0,2.481,0.843,2.481,1.819
			c0.021,0.634-0.459,0.962-1.021,0.951L442.476,63.568z"/>
		<path fill="#FFFFFF" d="M442.476,63.568c-0.193,0.008-0.396-0.03-0.565-0.141c-0.169-0.109-0.293-0.286-0.351-0.481
			c-0.06-0.199-0.053-0.404-0.018-0.606c0.034-0.206,0.154-0.391,0.222-0.552c0.033-0.082,0.049-0.164,0.05-0.25v-0.033
			l-0.001-0.013l-0.001-0.018c-0.002-0.023-0.003-0.051-0.006-0.071c-0.006-0.04-0.015-0.08-0.026-0.119
			c-0.048-0.156-0.166-0.241-0.334-0.274c-0.162-0.033-0.359-0.027-0.536-0.007c-0.182,0.021-0.357,0.064-0.521,0.133
			c-0.329,0.136-0.602,0.377-0.821,0.668c-0.108,0.144-0.213,0.307-0.293,0.461c-0.074,0.153-0.143,0.338-0.205,0.515
			c-0.246,0.723-0.452,1.471-0.646,2.217c-0.188,0.746-0.365,1.504-0.473,2.249c-0.024,0.184-0.048,0.371-0.044,0.53
			c0.002,0.184,0.018,0.358,0.051,0.522c0.033,0.163,0.088,0.311,0.165,0.425c0.078,0.114,0.177,0.195,0.304,0.25
			c0.127,0.056,0.283,0.08,0.447,0.086l0.063,0.001L439,69.06c0.048-0.002,0.099-0.002,0.14-0.006
			c0.084-0.004,0.176-0.012,0.263-0.023c0.353-0.045,0.692-0.142,1.01-0.291c0.639-0.297,1.167-0.814,1.627-1.403l0.18-0.229
			l0.261,0.134l0.079,0.041l0.377,0.193l-0.26,0.337c-0.295,0.384-0.627,0.749-1.014,1.063c-0.384,0.316-0.83,0.575-1.313,0.739
			c-0.484,0.165-0.995,0.229-1.501,0.206c-0.509-0.025-1.02-0.154-1.477-0.397c-0.458-0.241-0.858-0.594-1.151-1.018
			c-0.296-0.423-0.487-0.909-0.58-1.404c-0.094-0.499-0.086-1.001-0.02-1.486c0.067-0.487,0.199-0.963,0.394-1.41
			c0.384-0.897,0.984-1.69,1.73-2.305c0.748-0.611,1.658-1.038,2.62-1.155c0.24-0.03,0.481-0.04,0.725-0.026
			c0.247,0.015,0.487,0.06,0.72,0.13c0.463,0.143,0.899,0.382,1.24,0.731c0.168,0.175,0.312,0.378,0.4,0.608
			c0.092,0.23,0.112,0.48,0.074,0.721c-0.04,0.243-0.188,0.467-0.393,0.593c-0.204,0.127-0.446,0.17-0.677,0.157l0.001-0.002
			L442.476,63.568z M442.476,63.568l-0.021-0.01l-0.003-0.002h0.004c0.23-0.006,0.462-0.069,0.642-0.205
			c0.182-0.134,0.29-0.343,0.31-0.56c0.019-0.218-0.015-0.444-0.11-0.639c-0.094-0.197-0.234-0.371-0.397-0.518
			c-0.328-0.295-0.741-0.494-1.169-0.597c-0.214-0.052-0.434-0.079-0.649-0.079c-0.221,0.001-0.443,0.022-0.661,0.058
			c-0.877,0.146-1.689,0.579-2.351,1.165c-0.665,0.585-1.189,1.33-1.508,2.148c-0.158,0.408-0.27,0.834-0.32,1.267
			c-0.051,0.432-0.046,0.868,0.041,1.279c0.163,0.828,0.683,1.558,1.413,1.933c0.723,0.381,1.638,0.401,2.423,0.132
			c0.79-0.274,1.459-0.862,1.998-1.56l0.117,0.53l-0.078-0.041l0.439-0.095c-0.497,0.626-1.107,1.232-1.889,1.592
			c-0.387,0.182-0.807,0.291-1.226,0.334c-0.105,0.012-0.208,0.019-0.317,0.022c-0.057,0.003-0.104,0.003-0.152,0.003h-0.081
			l-0.083-0.003c-0.223-0.013-0.458-0.049-0.687-0.154c-0.229-0.101-0.438-0.281-0.572-0.493c-0.137-0.211-0.208-0.439-0.249-0.656
			c-0.04-0.218-0.052-0.433-0.051-0.637c0.002-0.23,0.032-0.43,0.063-0.629c0.142-0.79,0.346-1.542,0.561-2.296
			c0.219-0.753,0.454-1.497,0.746-2.231c0.076-0.186,0.148-0.364,0.252-0.557c0.108-0.186,0.223-0.345,0.354-0.506
			c0.26-0.318,0.604-0.594,1.007-0.731c0.199-0.07,0.407-0.107,0.612-0.119c0.209-0.01,0.406-0.007,0.623,0.047
			c0.106,0.028,0.217,0.076,0.308,0.159c0.093,0.082,0.154,0.195,0.18,0.306c0.013,0.055,0.021,0.11,0.024,0.167
			c0.002,0.028,0,0.049,0.001,0.075v0.018l-0.001,0.023l-0.003,0.041c-0.008,0.108-0.038,0.218-0.086,0.313
			c-0.097,0.189-0.206,0.33-0.25,0.51c-0.045,0.176-0.063,0.37-0.025,0.549c0.037,0.18,0.135,0.351,0.284,0.466
			C442.088,63.504,442.282,63.561,442.476,63.568z"/>
	</g>
</g>
</svg>
