<?xml version="1.0" encoding="utf-8"?>
<!-- Generator: Adobe Illustrator 15.1.0, SVG Export Plug-In . SVG Version: 6.00 Build 0)  -->
<!DOCTYPE svg PUBLIC "-//W3C//DTD SVG 1.1//EN" "http://www.w3.org/Graphics/SVG/1.1/DTD/svg11.dtd">
<svg version="1.1" id="Layer_1" xmlns="http://www.w3.org/2000/svg" xmlns:xlink="http://www.w3.org/1999/xlink" x="0px" y="0px"
	 width="130px" height="83px" viewBox="0 0 130 83" enable-background="new 0 0 130 83" xml:space="preserve">
<g>
	<path fill="#2A2A2A" d="M55.387,48.529c-0.765,0.755-1.844,1.134-2.913,1.029c-1.425,0.077-2.681-0.949-3.209-2.22
		C44.85,36.38,40.45,25.412,36.053,14.447c-0.604-1.412-1.043-2.913-1.903-4.198c-1.188-1.816-3.141-3.013-5.188-3.628
		c-1.1-0.369-2.271-0.289-3.41-0.3c-2.062-0.032-4.115,0.647-5.788,1.836c-2.164,1.366-3.791,3.571-4.464,6.039v0.855
		c0.072-0.062,0.215-0.186,0.285-0.248c0.412-0.625,1.051-1.192,1.852-1.127c1.137-0.144,2.124,0.612,2.844,1.404
		c0.875,0.918,1.262,2.142,1.729,3.302c4.432,11.034,8.875,22.068,13.303,33.12c0.833,2.43,2.88,4.303,5.202,5.277
		c2.176,0.846,4.626,1.205,6.895,0.535c3.165-0.73,6.083-2.676,7.769-5.481c0.899-1.528,1.526-3.286,1.475-5.074
		c-0.499,0.544-0.698,1.281-1.256,1.771H55.387z"/>
	<path fill="#2A2A2A" d="M29.878,50.559c-0.666,0.403-1.498,0.469-2.239,0.274c-0.976-0.285-1.657-1.149-2.021-2.062
		c-3.027-7.371-6.07-14.736-9.092-22.108c-0.332-0.761-0.531-1.596-1.063-2.25c-0.117,1.711-0.025,3.432-0.082,5.147
		c-0.064,1.818,0.019,3.636-0.084,5.45v18.479c0.55,0.883,1.117,1.783,1.927,2.438c1.059,0.884,2.358,1.478,3.726,1.692
		c0.975,0.072,1.944,0.072,2.924-0.012c1.504-0.273,2.914-0.955,4.129-1.873c0.733-0.809,1.543-1.564,2.102-2.512
		c0.77-1.307,1.327-2.781,1.328-4.315c-0.487,0.575-0.883,1.259-1.549,1.651H29.878L29.878,50.559z"/>
	<path fill="#2A2A2A" d="M98.381,28.117c-0.606,0-1.178,0.167-1.682,0.463c-0.129,0.032-0.252,0.081-0.366,0.162
		c-1.891,1.361-2.596,3.698-4.077,5.412c-0.823,0.932-1.967,1.467-3.069,1.988c0.055,0.053,0.162,0.144,0.216,0.198
		c0.797,0.072,1.584,0.198,2.396,0.22c1.16,0.216,2.356,0.036,3.509,0.233c1.656,0.126,3.457,0.126,4.906-0.8
		c0.585-0.407,1.14-0.984,1.376-1.667c0.29-0.598,0.455-1.286,0.455-2.017c0.011-2.322-1.633-4.194-3.667-4.191L98.381,28.117
		L98.381,28.117z"/>
	<path fill="#2A2A2A" d="M75.104,49.896c-1.252-0.405-2.15-1.494-2.611-2.692c-0.594-1.548-1.189-3.095-1.786-4.642
		c-0.814-2.206-1.773-4.359-2.462-6.609c-3.093-7.91-6.103-15.83-9.181-23.749c-0.378-0.884-0.771-1.786-1.413-2.516
		c-1.786-2.088-4.613-3.166-7.33-3.008c-1.48,0.202-2.999,0.505-4.282,1.315c-1.591,0.937-2.979,2.254-3.883,3.87
		c-0.184,0.356-0.453,0.693-0.5,1.103c0.133,0.18,0.329-0.001,0.493-0.026c0.646-0.231,1.375-0.13,1.98,0.18
		c0.978,0.486,1.764,1.296,2.34,2.225c0.736,1.207,1.098,2.592,1.638,3.896c3.858,9.972,7.704,19.943,11.538,29.934
		c0.476,1.116,0.792,2.286,1.386,3.343c0.485,0.9,1.206,1.621,1.98,2.287c1.172,0.989,2.646,1.528,4.122,1.87
		c0.565,0.036,1.134,0.072,1.69,0.181c0.563-0.039,1.115-0.168,1.685-0.164c2.499-0.424,4.878-1.676,6.561-3.584
		c0.984-1.172,1.818-2.502,2.283-3.969c-0.45,0.185-0.813,0.528-1.267,0.7C77.157,50.2,76.074,50.165,75.104,49.896L75.104,49.896z"
		/>
	<path fill="#2A2A2A" d="M90.414,20.61c-0.505-0.073-1.015-0.118-1.523-0.112c-2.498,0.008-4.996-0.001-7.495-0.029
		c-1.423,0.032-2.881-0.202-4.269,0.222c-1.204,0.337-2.41,1.097-2.86,2.318c-0.365,1.026-0.905,1.977-1.329,2.97
		c-1.149,2.913-2.229,5.852-3.345,8.779c-0.189,0.721-0.711,1.452-0.366,2.211c1.308,3.402,2.609,6.786,3.923,10.188
		c0.423,1.079,1.333,2.016,2.503,2.229c1.368,0.378,2.918-0.17,3.771-1.299c0.392-0.614,0.963-1.11,1.25-1.789
		c3.005-7.747,5.919-15.53,8.874-23.296c0.313-0.791,0.677-1.565,0.874-2.392H90.414z"/>
	<path fill="#2A2A2A" d="M115.561,8.154c-0.329-2.361-1.345-4.66-3.026-6.371c-0.262-0.285-0.54-0.568-0.911-0.701
		c0.797,2.087-0.356,4.646-2.425,5.464c-0.104,0.046-0.211,0.084-0.317,0.12H86.692C84.111,6.658,81.531,6.65,78.95,6.65
		c-1.02-0.052-2.003,0.283-2.914,0.705c-2.396,1.142-4.191,3.383-4.929,5.917c-0.364,1.47-0.729,3.015-0.358,4.518
		c0.262,2.07,1.1,4.104,2.575,5.624c0.319-0.539,0.439-1.193,0.887-1.657c0.804-0.97,1.952-1.588,3.178-1.84h12.81
		c0.983,0.145,1.979,0.036,2.971,0.053c3.671,0.036,7.344,0.018,11.016,0.052c2.426,0.36,5.059,0.018,7.076-1.466
		c2.158-1.527,3.639-3.958,4.122-6.547c0.335-1.247,0.168-2.579,0.187-3.855H115.561z"/>
</g>
<path fill="#2A2A2A" d="M63.092,70.551c-0.67-0.002-1.337,0-2.004-0.002c0.479-1.54,0.89-3.166,1.874-4.488
	c0.26-0.205,0.526-0.754,0.932-0.459c0.163,0.672-0.417,1.332-0.164,2.037c0.615,0.092,1.422,0.36,1.902-0.186
	c0.487-0.766,0.097-1.926-0.823-2.159c-1.037-0.239-2.228-0.201-3.104,0.456c-1.625,1.114-2.439,2.986-2.922,4.807
	c-0.648,0.078-1.46-0.24-1.983,0.248c0.633,0.055,1.26,0.035,1.907,0.039c-0.993,3.53-1.701,7.141-2.99,10.584
	c-0.208,0.639-0.554,1.237-1.111,1.649c-0.474-0.697,0.344-1.429-0.008-2.154c-0.477-0.319-1.142-0.309-1.649-0.077
	c-0.754,0.645-0.409,2.034,0.559,2.303c0.999,0.25,2.214,0.25,3.022-0.471c1.186-0.992,1.743-2.473,2.237-3.871
	c0.845-2.631,1.485-5.316,2.247-7.971c0.693,0,1.387,0,2.088,0.001c-0.008-0.062-0.004-0.207-0.004-0.278L63.092,70.551z"/>
<path fill="#2A2A2A" d="M87.219,77.563c1.187-4.11,2.602-8.164,3.896-12.246c-1.136-0.012-2.271-0.034-3.404,0.045v0.299
	c0.245,0,0.737,0,0.973,0c-1.104,3.486-2.252,6.961-3.346,10.451c-0.24,0.72-0.201,1.837,0.737,2.035
	c1.512,0.414,2.861-0.713,3.436-1.981c-0.164,0.002-0.493,0.007-0.657,0.012c-0.457,0.556-0.881,1.203-1.637,1.386H87.219
	L87.219,77.563z"/>
<path fill="#2A2A2A" d="M18.732,72.428c-0.543-2.383-4.108-2.521-5.545-0.861c-1.083-1.402-3.296-1.354-4.66-0.377
	c0-0.116,0.005-0.346,0.005-0.461c-0.496,0-0.992,0-1.488,0c0,2.395,0,4.789,0,7.172c0.496,0,0.99,0,1.494,0
	c0.024-1.438-0.05-2.879,0.032-4.313c0.063-1.128,1.237-2.117,2.392-1.884c0.873,0.198,1.224,1.134,1.224,1.925
	c0.015,1.424-0.002,2.844,0,4.273c0.496,0,0.989,0,1.494,0c0.02-1.426-0.037-2.854,0.022-4.28c0.062-1.172,1.293-2.173,2.486-1.908
	c0.857,0.216,1.206,1.134,1.206,1.918c0.012,1.425-0.003,2.845,0,4.267c0.496,0,0.989,0,1.494,0.004
	c-0.087-1.817,0.159-3.67-0.164-5.473h0.008V72.428z"/>
<path fill="#2A2A2A" d="M36.483,73.381c-0.021-1.02-0.456-2.145-1.453-2.615c-1.186-0.494-2.631-0.356-3.68,0.379
	c-0.002-0.106-0.005-0.318-0.007-0.426c-0.496,0-0.99,0-1.483,0c0,2.395,0,4.789,0,7.174c0.496,0,0.99,0,1.494,0
	c0.02-1.434-0.037-2.865,0.021-4.297c0.047-1.137,1.237-2.117,2.39-1.902c0.88,0.199,1.242,1.135,1.242,1.928
	c0.015,1.423-0.002,2.843,0,4.271c0.496,0,0.989,0,1.494,0c-0.021-1.502,0.009-2.996-0.01-4.511L36.483,73.381L36.483,73.381z"/>
<path fill="#2A2A2A" d="M68.558,70.361c-0.934-0.178-1.635,0.521-2.076,1.223c-0.058-0.611-0.449-1.255-1.163-1.213
	c-1.241-0.234-2.356,0.719-2.618,1.855c0.902,0.09,0.979-1.027,1.737-1.281c0.013,0.412-0.05,0.811-0.19,1.205
	c-0.64,1.936-1.281,3.865-1.883,5.813c0.765,0.02,1.53,0.02,2.286,0.01c0.839-2.287,1.153-4.936,3.009-6.714
	c0.551,0.179-0.055,0.989,0.019,1.431c0.618,0.414,1.817,0.631,2.165-0.209c0.464-0.914-0.141-2.246-1.291-2.119H68.558
	L68.558,70.361z"/>
<path fill="#2A2A2A" d="M106.599,77.589c-0.132-0.337-0.278-0.694-0.109-1.049c0.467-1.619,1.632-3.093,1.488-4.84
	c-0.013-0.69-0.605-1.373-1.35-1.332c-1.274-0.187-2.299,0.726-3.074,1.583c-0.065-0.424-0.021-0.914-0.34-1.256
	c-1.188-0.959-3.408,0.111-3.336,1.557c0.822,0.09,0.883-1.034,1.577-1.316c0.081,0.342,0.055,0.689-0.067,1.026
	c-0.661,2.015-1.316,4.033-1.943,6.06c0.762,0,1.529,0,2.285,0.006c0.479-1.404,0.863-2.838,1.372-4.232
	c0.522-1.02,1.2-2.072,2.312-2.555c0.206,0.287,0.595,0.558,0.433,0.96c-0.257,1.589-1.347,2.936-1.524,4.554
	c-0.138,0.846,0.701,1.53,1.529,1.467c1.369,0.162,2.408-0.951,2.929-2.049c-0.161,0.01-0.487,0.026-0.648,0.036
	c-0.435,0.524-0.861,1.101-1.526,1.381H106.599z"/>
<path fill="#2A2A2A" d="M25.835,75.253c-0.127,1.024-1.088,1.647-2.076,1.778c-0.781-0.236-1.352-0.917-1.385-1.723
	c-0.054-1.525-0.004-3.055-0.02-4.582c-0.499,0-0.995,0-1.491,0c0.005,1.449-0.007,2.897,0,4.355
	c0.005,1.008,0.324,2.143,1.278,2.686c1.166,0.629,2.682,0.485,3.754-0.271c0,0.108,0,0.306,0,0.414
	c0.494-0.004,0.984-0.007,1.479-0.007c0-2.393,0-4.782,0-7.174c-0.496,0-0.992,0-1.488,0C25.854,72.232,25.979,73.745,25.835,75.253
	L25.835,75.253z"/>
<path fill="#2A2A2A" d="M75.735,70.426c-1.031-0.133-2.148-0.115-3.075,0.405c-1.982,1.024-3.087,3.458-2.452,5.563
	c0.768,2.52,4.986,2.394,5.939,0.078c-0.902-0.111-1.227,0.883-1.986,1.135c-0.606,0.244-1.476,0.498-1.95-0.104
	c-0.573-1.066,0.062-2.261,0.276-3.339c1.248,0.035,2.574,0.019,3.688-0.613c0.601-0.323,1.094-0.931,1.057-1.626
	c0.052-0.791-0.763-1.385-1.501-1.5H75.735L75.735,70.426z M75.226,71.917c-0.161,1.249-1.434,1.979-2.646,1.998
	c0.377-1.136,0.622-2.651,1.9-3.159c0.714-0.27,0.893,0.684,0.749,1.161H75.226z"/>
<path fill="#2A2A2A" d="M83.063,70.428c-1.037-0.135-2.16-0.119-3.085,0.408c-2.024,1.053-3.135,3.578-2.391,5.706
	c0.893,2.394,4.949,2.179,5.893-0.065c-0.905-0.112-1.229,0.891-1.994,1.137c-0.633,0.272-1.64,0.507-2.023-0.244
	c-0.421-1.055,0.139-2.161,0.356-3.201c1.247,0.036,2.574,0.018,3.682-0.611c0.603-0.322,1.099-0.932,1.063-1.627
	c0.05-0.795-0.75-1.39-1.506-1.5h0.006V70.428z M82.548,71.945c-0.177,1.24-1.44,1.945-2.642,1.962
	c0.377-1.134,0.623-2.653,1.899-3.161c0.728-0.26,0.892,0.712,0.747,1.199H82.548z"/>
<path fill="#2A2A2A" d="M96.685,77.557c0.64-2.361,1.527-4.65,2.194-7.006c-1.055-0.058-2.118,0.202-3.16-0.041
	c-3.377-0.432-6.438,3.329-5.179,6.42c0.617,1.692,3.295,1.692,4.193,0.229c0.193,0.432,0.414,0.99,0.99,1.025
	c1.424,0.289,2.745-0.765,3.188-2.024c-0.15,0.008-0.454,0.021-0.604,0.026C97.873,76.75,97.457,77.398,96.685,77.557L96.685,77.557
	z M95.883,72.754c-0.625,1.686-0.92,3.723-2.511,4.854c-0.4,0.355-0.949,0.092-1.029-0.389c-0.175-1.305,0.28-2.588,0.729-3.799
	c0.411-1.004,0.939-2.126,2.028-2.57c0.29-0.158,0.594,0.036,0.847,0.18c0.529,0.482,0.071,1.166-0.072,1.725H95.883z"/>
<path fill="#2A2A2A" d="M123.673,71.059c-0.711-0.807-1.92-0.727-2.906-0.662c-2.856,0.402-4.752,3.726-3.675,6.318
	c1.025,2.23,4.896,1.961,5.818-0.229c-0.904-0.111-1.229,0.888-1.99,1.136c-0.636,0.271-1.646,0.509-2.025-0.246
	c-0.424-1.052,0.139-2.159,0.356-3.199c1.356,0.036,2.844,0,3.984-0.809c0.731-0.488,1.061-1.622,0.431-2.306L123.673,71.059z
	 M121.98,71.924c-0.164,1.249-1.436,1.971-2.644,1.983c0.377-1.134,0.621-2.649,1.896-3.158c0.717-0.263,0.883,0.69,0.738,1.175
	H121.98z"/>
<path fill="#2A2A2A" d="M44.683,71.246c-1.302-0.973-3.211-1.02-4.627-0.264c-1.897,1.072-2.234,3.724-1.203,5.473
	c1.136,1.943,4.122,2.214,5.85,0.893c-0.008,0.135-0.021,0.41-0.029,0.547c0.499,0,0.989,0,1.493,0
	c0.003-3.677,0-7.354,0.003-11.033c-0.499,0-0.995,0-1.491,0C44.678,68.326,44.663,69.784,44.683,71.246L44.683,71.246z
	 M43.033,76.787c-1.189,0.507-2.61-0.275-3.038-1.412c-0.578-1.283-0.015-3.031,1.396-3.529c1.116-0.441,2.43,0.198,2.988,1.188
	c0.714,1.305,0.14,3.212-1.354,3.746L43.033,76.787z"/>
<path fill="#2A2A2A" d="M54.419,71.217c-1.09-0.777-2.56-0.89-3.837-0.568c-2.953,0.709-3.506,4.975-1.247,6.713
	c1.563,1.152,4.014,1.063,5.436-0.258C56.301,75.508,56.237,72.592,54.419,71.217L54.419,71.217z M54.345,74.842
	c-0.202,1.527-2.131,2.7-3.549,1.819c-1.944-0.929-1.825-4.083,0.232-4.815c1.835-0.82,3.841,1.215,3.319,2.997L54.345,74.842z"/>
<g>
	<path fill="#2A2A2A" stroke="#2A2A2A" stroke-width="0.5537" stroke-miterlimit="10" d="M115.233,72.961
		c-0.537,0-0.779-0.389-0.779-0.761c0-0.575,0.294-0.625,0.294-1.032s-0.225-0.559-0.691-0.559c-0.779,0-1.299,0.373-1.731,1.101
		c-0.382,0.677-1.314,3.976-1.314,4.873c0,0.812,0.259,1.403,1.193,1.403c1.352,0,2.199-0.693,2.909-1.59l0.068,0.035
		c-0.796,1.031-1.731,1.623-2.908,1.623c-1.559,0-2.719-1.168-2.719-2.842c0-2.42,2.096-4.67,4.415-4.67
		c1.074,0,2.146,0.745,2.146,1.573C116.116,72.674,115.719,72.961,115.233,72.961z"/>
</g>
</svg>
