<?xml version="1.0" encoding="utf-8"?>
<!-- Generator: Adobe Illustrator 15.1.0, SVG Export Plug-In . SVG Version: 6.00 Build 0)  -->
<!DOCTYPE svg PUBLIC "-//W3C//DTD SVG 1.1//EN" "http://www.w3.org/Graphics/SVG/1.1/DTD/svg11.dtd">
<svg version="1.1" id="Layer_1" xmlns="http://www.w3.org/2000/svg" xmlns:xlink="http://www.w3.org/1999/xlink" x="0px" y="0px"
	 width="227px" height="160px" viewBox="2.463 22.082 227 160" enable-background="new 2.463 22.082 227 160" xml:space="preserve">
<g>
	<g>
		<path fill="#DFE4E7" d="M190.241,179.543c0,1.191-0.88,2.158-1.964,2.158H79.586c-1.085,0-1.964-0.967-1.964-2.158v-59.082
			c0-1.191,0.88-2.158,1.964-2.158h108.691c1.086,0,1.964,0.967,1.964,2.158V179.543z"/>
		<path fill="#DFE4E7" d="M189.895,179.926c0,1.191-0.88,2.156-1.964,2.156H79.239c-1.083,0-1.962-0.967-1.962-2.156v-59.084
			c0-1.193,0.879-2.156,1.962-2.156h108.692c1.085,0,1.964,0.965,1.964,2.156V179.926z"/>
	</g>
</g>
<rect x="81.891" y="135.277" fill="#FFFFFF" stroke="#2A2A2A" stroke-width="1.0011" stroke-miterlimit="10" width="29.029" height="30.031"/>
<polygon fill="#2A2A2A" points="125.481,157.557 122.666,156.037 119.904,157.656 120.375,154.326 118.074,152.012 121.186,151.469 
	122.523,148.422 123.977,151.42 127.102,151.846 124.889,154.242 "/>
<polygon fill="#2A2A2A" points="137.184,157.557 134.366,156.037 131.604,157.656 132.077,154.326 129.776,152.012 132.888,151.469 
	134.225,148.422 135.675,151.42 138.803,151.846 136.59,154.242 "/>
<polygon fill="#2A2A2A" points="148.885,157.557 146.065,156.037 143.306,157.656 143.777,154.326 141.478,152.012 144.588,151.469 
	145.924,148.422 147.377,151.42 150.503,151.846 148.29,154.242 "/>
<polygon fill="#FFFFFF" points="159.121,157.557 156.306,156.037 153.543,157.656 154.015,154.326 151.715,152.012 154.823,151.469 
	156.163,148.422 157.615,151.42 160.744,151.846 158.528,154.242 "/>
<g>
	<g>
		<path fill="#DFE4E7" d="M190.085,89.932c0,1.211-0.883,2.193-1.972,2.193H79.034c-1.088,0-1.969-0.982-1.969-2.193V29.854
			c0-1.21,0.881-2.193,1.969-2.193h109.08c1.09,0,1.972,0.982,1.972,2.193V89.932L190.085,89.932z"/>
		<path fill="#DFE4E7" d="M189.735,89.543c0,1.211-0.883,2.193-1.97,2.193H78.684c-1.088,0-1.971-0.983-1.971-2.193V29.466
			c0-1.211,0.884-2.193,1.971-2.193h109.082c1.088,0,1.97,0.983,1.97,2.193V89.543z"/>
	</g>
</g>
<rect x="82.162" y="36.977" fill="#FFFFFF" stroke="#2A2A2A" stroke-width="0.842" stroke-miterlimit="10" width="24.417" height="24.417"/>
<g enable-background="new    ">
	<path fill="#2A2A2A" d="M119.795,60.933c0,0.793-0.216,1.4-0.646,1.82c-0.432,0.42-1.051,0.63-1.86,0.63h-1.332v-4.809h1.474
		c0.746,0,1.328,0.207,1.742,0.622S119.795,60.19,119.795,60.933z M119.201,60.953c0-0.627-0.156-1.099-0.471-1.417
		c-0.316-0.319-0.782-0.477-1.404-0.477h-0.812v3.841h0.68c0.667,0,1.169-0.163,1.503-0.491
		C119.034,62.079,119.201,61.595,119.201,60.953z"/>
	<path fill="#2A2A2A" d="M120.738,58.802c0-0.125,0.03-0.217,0.092-0.275c0.061-0.059,0.137-0.087,0.23-0.087
		c0.086,0,0.163,0.029,0.227,0.089c0.063,0.059,0.095,0.15,0.095,0.273c0,0.122-0.032,0.214-0.095,0.274
		c-0.063,0.061-0.141,0.09-0.227,0.09c-0.094,0-0.17-0.03-0.23-0.09C120.769,59.017,120.738,58.924,120.738,58.802z M121.33,63.383
		h-0.547v-3.605h0.547V63.383z"/>
	<path fill="#2A2A2A" d="M124.813,62.4c0,0.335-0.123,0.594-0.374,0.776c-0.251,0.182-0.603,0.273-1.052,0.273
		c-0.479,0-0.853-0.076-1.119-0.228v-0.507c0.174,0.088,0.357,0.157,0.559,0.208c0.196,0.05,0.388,0.076,0.571,0.076
		c0.284,0,0.505-0.045,0.658-0.137c0.154-0.091,0.231-0.229,0.231-0.415c0-0.141-0.063-0.261-0.182-0.36
		c-0.123-0.099-0.361-0.218-0.713-0.354c-0.336-0.125-0.574-0.234-0.717-0.327c-0.141-0.093-0.246-0.198-0.314-0.316
		c-0.069-0.119-0.104-0.26-0.104-0.424c0-0.294,0.118-0.525,0.359-0.696c0.239-0.17,0.566-0.255,0.982-0.255
		c0.389,0,0.768,0.079,1.138,0.237l-0.194,0.444c-0.361-0.148-0.688-0.224-0.983-0.224c-0.259,0-0.452,0.04-0.585,0.122
		c-0.133,0.082-0.197,0.193-0.197,0.335c0,0.097,0.025,0.179,0.073,0.247c0.05,0.067,0.13,0.132,0.239,0.194
		c0.109,0.062,0.32,0.15,0.633,0.267c0.428,0.156,0.716,0.313,0.866,0.471C124.738,61.962,124.813,62.16,124.813,62.4z"/>
	<path fill="#2A2A2A" d="M127.225,63.449c-0.534,0-0.955-0.163-1.262-0.487c-0.309-0.325-0.463-0.775-0.463-1.352
		c0-0.581,0.144-1.042,0.43-1.385c0.286-0.341,0.67-0.513,1.152-0.513c0.451,0,0.81,0.149,1.073,0.445
		c0.263,0.297,0.394,0.689,0.394,1.176v0.346h-2.482c0.012,0.423,0.117,0.744,0.321,0.963c0.202,0.219,0.487,0.329,0.856,0.329
		c0.387,0,0.771-0.082,1.15-0.243v0.487c-0.192,0.083-0.374,0.143-0.546,0.18C127.676,63.431,127.468,63.449,127.225,63.449z
		 M127.075,60.17c-0.288,0-0.521,0.095-0.692,0.284c-0.172,0.188-0.274,0.448-0.305,0.782h1.884c0-0.344-0.076-0.608-0.229-0.792
		C127.58,60.261,127.361,60.17,127.075,60.17z"/>
	<path fill="#2A2A2A" d="M131.945,63.383V61.05c0-0.294-0.064-0.512-0.199-0.658c-0.134-0.145-0.344-0.217-0.629-0.217
		c-0.377,0-0.654,0.102-0.829,0.306c-0.176,0.204-0.263,0.541-0.263,1.011v1.891h-0.547v-3.605h0.444l0.089,0.493h0.025
		c0.112-0.177,0.27-0.314,0.471-0.412c0.201-0.098,0.428-0.147,0.674-0.147c0.436,0,0.762,0.104,0.98,0.314
		c0.22,0.21,0.33,0.544,0.33,1.005v2.352H131.945z M131.539,59.295c-0.096,0-0.186-0.021-0.275-0.062
		c-0.09-0.04-0.18-0.085-0.266-0.135c-0.086-0.049-0.17-0.094-0.25-0.135c-0.081-0.04-0.157-0.061-0.231-0.061
		c-0.11,0-0.192,0.033-0.249,0.099c-0.055,0.065-0.1,0.165-0.129,0.299h-0.322c0.028-0.266,0.105-0.473,0.232-0.623
		c0.125-0.151,0.287-0.226,0.486-0.226c0.102,0,0.199,0.021,0.295,0.061c0.094,0.041,0.183,0.085,0.27,0.135
		c0.083,0.049,0.168,0.095,0.245,0.135c0.079,0.04,0.153,0.061,0.224,0.061c0.107,0,0.188-0.032,0.24-0.098s0.096-0.165,0.129-0.301
		h0.326c-0.03,0.266-0.105,0.473-0.229,0.623C131.91,59.22,131.746,59.295,131.539,59.295z"/>
	<path fill="#2A2A2A" d="M135.832,63.383l-0.11-0.513h-0.024c-0.18,0.226-0.361,0.378-0.538,0.459
		c-0.179,0.08-0.402,0.12-0.671,0.12c-0.356,0-0.637-0.093-0.84-0.277c-0.203-0.184-0.304-0.446-0.304-0.786
		c0-0.728,0.581-1.109,1.745-1.144l0.612-0.02v-0.223c0-0.283-0.06-0.492-0.182-0.626c-0.122-0.135-0.316-0.203-0.584-0.203
		c-0.301,0-0.641,0.093-1.021,0.277l-0.167-0.418c0.179-0.097,0.372-0.171,0.583-0.228c0.211-0.056,0.425-0.082,0.639-0.082
		c0.428,0,0.747,0.096,0.954,0.286c0.208,0.19,0.311,0.497,0.311,0.917v2.46H135.832z M134.598,62.999
		c0.34,0,0.606-0.093,0.801-0.279c0.193-0.187,0.291-0.447,0.291-0.783V61.61l-0.547,0.023c-0.434,0.016-0.747,0.083-0.938,0.203
		c-0.191,0.12-0.288,0.305-0.288,0.556c0,0.198,0.061,0.349,0.182,0.451C134.215,62.946,134.383,62.999,134.598,62.999z"/>
	<path fill="#2A2A2A" d="M139.814,62.9h-0.029c-0.253,0.366-0.63,0.549-1.131,0.549c-0.473,0-0.837-0.162-1.1-0.484
		c-0.262-0.322-0.394-0.78-0.394-1.375c0-0.594,0.132-1.056,0.394-1.385c0.264-0.329,0.631-0.493,1.1-0.493
		c0.488,0,0.863,0.178,1.125,0.533h0.042l-0.022-0.26l-0.014-0.253v-1.467h0.547v5.118h-0.444L139.814,62.9z M138.723,62.992
		c0.371,0,0.641-0.101,0.81-0.305c0.167-0.203,0.251-0.529,0.251-0.981v-0.114c0-0.511-0.084-0.876-0.254-1.095
		c-0.17-0.218-0.442-0.327-0.813-0.327c-0.319,0-0.565,0.124-0.737,0.373c-0.17,0.25-0.254,0.601-0.254,1.054
		c0,0.46,0.084,0.809,0.253,1.044C138.146,62.875,138.396,62.992,138.723,62.992z"/>
	<path fill="#2A2A2A" d="M144.599,61.578c0,0.588-0.147,1.047-0.442,1.376c-0.298,0.329-0.706,0.495-1.227,0.495
		c-0.322,0-0.609-0.077-0.859-0.228c-0.25-0.152-0.443-0.369-0.578-0.652c-0.136-0.282-0.203-0.613-0.203-0.993
		c0-0.588,0.146-1.045,0.439-1.373c0.294-0.328,0.703-0.492,1.225-0.492c0.504,0,0.904,0.168,1.201,0.504
		C144.451,60.551,144.599,61.005,144.599,61.578z M141.854,61.578c0,0.46,0.092,0.811,0.275,1.052
		c0.186,0.241,0.455,0.361,0.813,0.361c0.358,0,0.629-0.12,0.814-0.36c0.184-0.24,0.277-0.591,0.277-1.053
		c0-0.458-0.094-0.806-0.277-1.045c-0.186-0.238-0.459-0.356-0.82-0.356c-0.357,0-0.627,0.117-0.81,0.352
		C141.943,60.763,141.854,61.113,141.854,61.578z"/>
	<path fill="#2A2A2A" d="M147.201,59.713c0.162,0,0.305,0.013,0.431,0.039l-0.075,0.507c-0.148-0.033-0.28-0.049-0.395-0.049
		c-0.291,0-0.541,0.118-0.748,0.355c-0.208,0.236-0.311,0.531-0.311,0.884v1.934h-0.547v-3.605h0.451l0.063,0.668h0.025
		c0.135-0.235,0.296-0.416,0.484-0.542C146.768,59.776,146.975,59.713,147.201,59.713z"/>
	<path fill="#2A2A2A" d="M153.769,58.575v3.111c0,0.548-0.165,0.979-0.496,1.293c-0.332,0.313-0.787,0.47-1.364,0.47
		c-0.579,0-1.027-0.159-1.344-0.474c-0.316-0.316-0.475-0.75-0.475-1.302v-3.098h0.559v3.138c0,0.4,0.109,0.709,0.329,0.923
		c0.218,0.215,0.542,0.323,0.966,0.323c0.406,0,0.719-0.108,0.938-0.325c0.22-0.216,0.328-0.525,0.328-0.929v-3.131L153.769,58.575
		L153.769,58.575z"/>
	<path fill="#2A2A2A" d="M158.241,63.383h-0.634l-1.293-2.115l-1.315,2.115h-0.592l1.598-2.513l-1.488-2.296h0.617l1.194,1.905
		l1.202-1.905h0.596l-1.489,2.276L158.241,63.383z"/>
</g>
<g enable-background="new    ">
	<path fill="#2A2A2A" d="M116.739,68.909h1.359c0.638,0,1.099,0.095,1.385,0.286c0.286,0.19,0.427,0.492,0.427,0.904
		c0,0.286-0.079,0.521-0.237,0.706c-0.159,0.185-0.392,0.305-0.696,0.36v0.033c0.73,0.125,1.095,0.509,1.095,1.152
		c0,0.429-0.146,0.765-0.437,1.006c-0.289,0.241-0.696,0.362-1.219,0.362h-1.678L116.739,68.909L116.739,68.909z M117.299,70.968
		h0.922c0.395,0,0.68-0.062,0.852-0.186c0.174-0.125,0.26-0.333,0.26-0.627c0-0.27-0.096-0.464-0.289-0.583s-0.5-0.179-0.921-0.179
		h-0.823V70.968z M117.299,71.441v1.799h1.003c0.388,0,0.681-0.074,0.878-0.225c0.195-0.151,0.295-0.386,0.295-0.706
		c0-0.298-0.102-0.518-0.303-0.658c-0.201-0.14-0.506-0.21-0.916-0.21H117.299z"/>
	<path fill="#2A2A2A" d="M120.977,69.136c0-0.125,0.031-0.217,0.092-0.276c0.062-0.058,0.138-0.087,0.23-0.087
		c0.088,0,0.164,0.03,0.227,0.089c0.063,0.059,0.096,0.15,0.096,0.272c0,0.123-0.033,0.214-0.096,0.275
		c-0.063,0.06-0.139,0.09-0.227,0.09c-0.093,0-0.169-0.03-0.23-0.09C121.008,69.35,120.977,69.258,120.977,69.136z M121.568,73.718
		h-0.546v-3.604h0.546V73.718z"/>
	<path fill="#2A2A2A" d="M123.271,73.718h-0.544V68.6h0.544V73.718z"/>
	<path fill="#2A2A2A" d="M126.106,70.053c0.474,0,0.841,0.163,1.104,0.486c0.262,0.323,0.394,0.781,0.394,1.373
		c0,0.592-0.133,1.052-0.396,1.379c-0.266,0.328-0.633,0.492-1.101,0.492c-0.235,0-0.448-0.044-0.642-0.13
		c-0.196-0.086-0.357-0.22-0.489-0.4h-0.04l-0.114,0.463h-0.39v-5.118h0.544v1.243c0,0.279-0.01,0.529-0.025,0.75h0.025
		C125.23,70.233,125.606,70.053,126.106,70.053z M126.029,70.511c-0.373,0-0.642,0.106-0.806,0.321
		c-0.166,0.214-0.247,0.574-0.247,1.081s0.086,0.869,0.254,1.087s0.439,0.327,0.813,0.327c0.336,0,0.584-0.123,0.75-0.367
		c0.163-0.245,0.246-0.596,0.246-1.054c0-0.47-0.083-0.818-0.246-1.05C126.627,70.625,126.373,70.511,126.029,70.511z"/>
	<path fill="#2A2A2A" d="M130.774,73.718l-0.108-0.514h-0.027c-0.18,0.227-0.359,0.378-0.537,0.459
		c-0.18,0.08-0.402,0.12-0.671,0.12c-0.357,0-0.638-0.092-0.839-0.276c-0.204-0.184-0.305-0.446-0.305-0.786
		c0-0.728,0.582-1.109,1.746-1.144l0.611-0.02v-0.224c0-0.283-0.06-0.492-0.182-0.627c-0.122-0.134-0.316-0.202-0.584-0.202
		c-0.301,0-0.641,0.092-1.02,0.276l-0.168-0.418c0.178-0.097,0.372-0.172,0.584-0.226c0.211-0.055,0.424-0.083,0.637-0.083
		c0.43,0,0.746,0.096,0.955,0.287c0.208,0.19,0.311,0.496,0.311,0.917v2.46H130.774z M129.541,73.332c0.339,0,0.605-0.092,0.8-0.279
		s0.292-0.447,0.292-0.783v-0.325l-0.547,0.022c-0.434,0.016-0.747,0.083-0.938,0.203c-0.19,0.119-0.288,0.305-0.288,0.557
		c0,0.197,0.06,0.347,0.18,0.451C129.158,73.281,129.327,73.332,129.541,73.332z"/>
	<path fill="#2A2A2A" d="M135.414,71.911c0,0.588-0.147,1.046-0.443,1.376c-0.297,0.33-0.705,0.495-1.227,0.495
		c-0.321,0-0.607-0.076-0.857-0.227c-0.252-0.152-0.443-0.369-0.58-0.652c-0.135-0.284-0.203-0.615-0.203-0.994
		c0-0.588,0.146-1.044,0.441-1.373c0.293-0.328,0.701-0.492,1.225-0.492c0.504,0,0.904,0.168,1.201,0.504
		C135.266,70.885,135.414,71.338,135.414,71.911z M132.668,71.911c0,0.46,0.092,0.812,0.277,1.053
		c0.184,0.241,0.455,0.361,0.813,0.361s0.627-0.12,0.813-0.36c0.184-0.24,0.277-0.591,0.277-1.054c0-0.458-0.094-0.807-0.277-1.044
		c-0.187-0.237-0.46-0.357-0.821-0.357c-0.357,0-0.627,0.118-0.808,0.352C132.76,71.096,132.668,71.447,132.668,71.911z"/>
</g>
<text transform="matrix(1 0 0 1 82.6865 77.0991)" fill="#84B7DF" font-family="'MyriadPro-Regular'" font-size="6.1508">Contactar</text>
<path fill="#2A2A2A" d="M93.13,61.455c-0.437,0.208-2.597,0.252-2.867-0.447C91.138,60.458,92.606,60.935,93.13,61.455z"/>
<path fill="#2A2A2A" d="M98.647,61.455c-1.161-0.134-1.896,0.165-2.87,0.223C95.846,60.817,98.534,60.18,98.647,61.455z"/>
<path fill="#2A2A2A" d="M91.365,62.347c-0.036-0.484,0.783-0.101,1.104-0.223c0.093,0.468-0.15,0.59-0.221,0.894
	C91.541,63.214,91.791,62.438,91.365,62.347z"/>
<path fill="#2A2A2A" d="M96.441,62.125c0.369,0,0.736,0,1.104,0c-0.26,0.331-0.191,0.997-0.882,0.894
	C96.489,62.818,96.424,62.514,96.441,62.125z"/>
<polygon fill="#EDEEF2" points="93.479,65.097 94.663,64.962 93.967,63.129 "/>
<ellipse fill="#EDEEF2" cx="99.418" cy="63.086" rx="0.771" ry="0.932"/>
<path fill="#2A2A2A" d="M96.01,65.862c-0.206,0.427-0.909,0.744-1.747,0.744c-0.859,0-1.578-0.332-1.761-0.776
	c-0.092,0.019-0.144,0.067-0.144,0.162c0,0.386,0.832,1.4,1.857,1.4c1.024,0,1.855-1.015,1.855-1.4
	C96.07,65.93,96.048,65.891,96.01,65.862z"/>
<polygon fill="#84B7DF" points="118.828,64.598 116.459,63.321 114.135,64.684 114.533,61.88 112.596,59.935 115.214,59.478 
	116.34,56.914 117.561,59.436 120.189,59.795 118.328,61.811 "/>
<polygon fill="#84B7DF" points="128.67,64.598 126.3,63.321 123.977,64.684 124.373,61.88 122.439,59.935 125.055,59.478 
	126.181,56.914 127.4,59.436 130.031,59.795 128.17,61.811 "/>
<polygon fill="#84B7DF" points="138.512,64.598 136.141,63.321 133.818,64.684 134.217,61.88 132.281,59.935 134.896,59.478 
	136.021,56.914 137.242,59.436 139.873,59.795 138.012,61.811 "/>
<polygon fill="none" stroke="#84B7DF" stroke-width="0.1538" stroke-miterlimit="10" points="147.121,64.598 144.753,63.321 
	142.432,64.684 142.825,61.88 140.893,59.935 143.507,59.478 144.633,56.914 145.855,59.436 148.486,59.795 146.623,61.811 "/>
<g>
	<g>
		<path fill="#DFE4E7" stroke="#FFFFFF" stroke-miterlimit="10" d="M153.73,124.689c0,1.314-1.066,2.377-2.379,2.377H19.708
			c-1.313,0-2.377-1.064-2.377-2.377V59.562c0-1.313,1.065-2.377,2.377-2.377h131.643c1.314,0,2.379,1.065,2.379,2.377V124.689
			L153.73,124.689z"/>
		<path fill="#DFE4E7" stroke="#FFFFFF" stroke-miterlimit="10" d="M153.311,124.268c0,1.314-1.066,2.377-2.38,2.377H19.288
			c-1.314,0-2.378-1.064-2.378-2.377V59.14c0-1.313,1.065-2.377,2.378-2.377h83.608h48.034c1.314,0,2.377,1.065,2.377,2.377v65.127
			H153.311z"/>
	</g>
</g>
<rect x="22.804" y="74.55" fill="#FFFFFF" stroke="#2A2A2A" stroke-width="0.842" stroke-miterlimit="10" width="28.626" height="29.469"/>
<polygon fill="#2A2A2A" points="66.601,96.442 63.756,94.912 60.971,96.547 61.447,93.182 59.126,90.847 62.264,90.3 63.615,87.222 
	65.079,90.248 68.235,90.679 66.002,93.097 "/>
<polygon fill="#2A2A2A" points="77.964,96.617 75.121,95.084 72.333,96.72 72.809,93.354 70.488,91.022 73.627,90.474 
	74.977,87.396 76.442,90.422 79.599,90.853 77.365,93.271 "/>
<polygon fill="#2A2A2A" points="90.22,96.442 87.375,94.912 84.59,96.547 85.066,93.182 82.745,90.847 85.882,90.3 87.232,87.222 
	88.698,90.248 91.854,90.679 89.621,93.097 "/>
<polygon fill="#FFFFFF" points="100.553,96.442 97.711,94.912 94.922,96.547 95.399,93.182 93.077,90.847 96.216,90.3 
	97.567,87.222 99.032,90.248 102.189,90.679 99.954,93.097 "/>
<path fill="#2A2A2A" d="M35.97,91.718c-0.502,0.242-3.006,0.295-3.321-0.515c1.016-0.626,2.682-0.054,3.35,0.515H35.97z"/>
<path fill="#2A2A2A" d="M42.36,91.718c-1.345-0.154-2.194,0.197-3.322,0.288c0.078-1.049,3.186-1.715,3.282-0.288H42.36z"/>
<path fill="#2A2A2A" d="M33.924,92.751c-0.043-0.557,0.907-0.117,1.279-0.257c0.108,0.541-0.173,0.687-0.254,1.036
	c-0.819,0.207-0.578-0.655-1.054-0.779H33.924L33.924,92.751z"/>
<path fill="#2A2A2A" d="M39.804,92.49c0.426,0,0.864,0,1.246,0c-0.301,0.388-0.22,1.155-1.023,1.039
	c-0.167-0.273-0.198-0.56-0.198-1.039H39.804z"/>
<path fill="#EDEEF2" d="M36.957,92.679"/>
<line fill="none" x1="36.381" y1="94.885" x2="37.722" y2="94.785"/>
<path fill="#2A2A2A" d="M39.304,96.822c-0.237,0.498-1.052,0.863-2.021,0.863c-0.997,0-1.829-0.388-2.041-0.901
	c-0.103,0.024-0.164,0.078-0.164,0.186c0,0.484,0.958,1.629,2.106,1.625c1.189,0,2.151-1.176,2.151-1.625
	c0.043-0.073,0.015-0.073,0.015-0.144h-0.046L39.304,96.822L39.304,96.822z"/>
<path fill="#2A2A2A" d="M36.222,77.497c1.26,0.67,1.914,1.913,2.872,2.776c0.778,0.201-0.204-1.311,0.572-1.11
	c1.572,0.38,2.012,2.008,2.296,3.619c0.503-0.068,0.653-0.482,0.575-1.115c0.996,0.386,1.245,1.628,1.148,3.062
	c0.612,0.095,0.546-0.398,0.572-0.836c2.974,2.394,0.672,8.043,0,11.108c-0.021-3.134-1.704-4.655-1.717-7.795
	c-0.837-1.773-3.954-0.924-5.44-0.281c-1.739-0.527-3.734-1.186-5.44-0.278c-0.483,0.918-0.17,1.818,0,2.786
	c-1.373,0.801-1.658,2.655-1.432,5.008c-1.62-2.063-2.334-6.952-1.146-10.021c0.637-0.154,0.385,0.576,0.862,0.558
	c0.418-1.266,0.811-2.552,1.432-3.619c1.017-0.431,0.191,0.959,0.86,0.86c0.788-0.716,0.871-2.125,1.718-2.781
	c0.736,0,0.385,1.053,1.149,1.111c0.97-0.414,1.184-1.564,1.087-3.053h0.031V77.497z"/>
<path fill="none" stroke="#2A2A2A" stroke-width="0.2197" stroke-miterlimit="10" d="M44.622,91.456c0,4.92-3.346,8.909-7.475,8.909
	c-4.133,0-7.483-3.989-7.483-8.909c0-4.916,3.35-8.905,7.483-8.905C41.276,82.551,44.622,86.54,44.622,91.456z"/>
<path fill="#2A2A2A" d="M103.501,158.234c-0.29,0.82-0.809-0.293-1.411,0c-0.202-2.125,1.131-2.484,1.411-4.051
	c-0.406-0.359-1.24,1.084-1.647,1.625c-0.351-0.957,1.107-2.145,1.18-3.516c-1.156,0.01-0.298-0.773-0.236-2.158
	c-0.106-0.404-0.303,0.105-0.708,0c0.06-2.23,0.015-4.334-0.94-5.398c-0.485,3.131-4.827,3.287-5.653,5.129
	c-0.562,0.621-2.118,0.1-3.065,0.27c-0.977,0.594-1.353,1.867-1.176,3.762c-0.63-0.361-0.399-1.703-0.948-2.158
	c-0.924,2.363,1.29,3.545,1.399,5.666c-0.737-0.326-1.469-0.654-2.122-1.078c0.041-0.316,0.434-0.229,0.708-0.27
	c-0.758-0.756-1.866-1.102-2.116-2.432c0.185,0,0.212,0.324,0.428,0.324c-0.005-1.166-1.177-0.996-1.182-2.16
	c1.189,0.469-0.293-1.156-0.236-1.889c0.669,0.215,0.612-0.383,1.181-0.27c-0.605-7.811,5.188-15.07,10.836-10.529
	c6.713,0.645,6.879,12.682,3.762,17.818c0.03,0.605,0.203,1.035,0.525,1.316h0.01V158.234L103.501,158.234z"/>
<path fill="#2A2A2A" d="M88.657,149.945c1.983,2.689,2.253,7.311,5.051,9.025c0,0.861,0,1.723,0,2.578
	c-1.481,0.281-1.869-1.207-2.634-2.361c-1.325-1.99-3.374-2.402-3.574-4.508c-0.128-1.67,1.056-2.744,1.161-4.732h-0.003V149.945z"
	/>
<path fill="#2A2A2A" d="M103.539,149.992c0.982,1.074,1.4,2.793,1.291,5.156c-2.2,1.711-3.019,5-5.833,6.008
	c-0.7-2.902,0.994-3.148,2.073-4.721c1.372-2.031,1.454-4.611,2.423-6.443H103.539L103.539,149.992z"/>
<path fill="#2A2A2A" d="M98.917,157.025c0,0.467-0.891,1.684-1.995,1.684c-1.098,0-1.99-1.217-1.99-1.684c0-0.463,0.886,0,2.042,0
	c1.049-0.014,1.949-0.444,1.949,0H98.917z"/>
<path fill="#2A2A2A" d="M95.359,150.803c-0.567,0.27-3.375,0.33-3.731-0.582c1.141-0.758,3.048-0.111,3.693,0.582H95.359z"/>
<path fill="#2A2A2A" d="M102.533,150.803c-1.512-0.174-2.466,0.215-3.734,0.322c0.088-1.125,3.619-1.986,3.724-0.322H102.533z"/>
<path fill="#2A2A2A" d="M93.067,152.377c-0.052-0.628,1.016-0.134,1.435-0.292c0.12,0.607-0.198,0.769-0.289,1.164
	C93.289,153.533,93.601,152.453,93.067,152.377L93.067,152.377z"/>
<path fill="#2A2A2A" d="M99.659,152.086c0.48,0,0.972,0,1.397,0c-0.336,0.431-0.244,1.298-1.146,1.164
	c-0.186-0.256-0.289-0.682-0.289-1.164H99.659z"/>
<path fill="none" stroke="#2A2A2A" stroke-width="0.2465" stroke-miterlimit="10" d="M103.212,149.875
	c0,5.531-2.994,10.016-6.69,10.016c-3.7,0-6.695-4.486-6.695-10.016c0-5.533,2.995-10.016,6.695-10.016
	C100.217,139.859,103.212,144.342,103.212,149.875z"/>
<polygon fill="#2A2A2A" points="119.461,55.461 117.09,54.185 114.768,55.547 115.164,52.744 113.229,50.799 115.846,50.343 
	116.971,47.778 118.191,50.3 120.822,50.659 118.959,52.673 "/>
<polygon fill="#2A2A2A" points="129.301,55.461 126.931,54.185 124.607,55.547 125.005,52.744 123.07,50.799 125.688,50.343 
	126.813,47.778 128.031,50.3 130.664,50.659 128.802,52.673 "/>
<polygon fill="#FFFFFF" points="147.753,55.461 145.384,54.185 143.062,55.547 143.459,52.744 141.522,50.799 144.138,50.343 
	145.264,47.778 146.486,50.3 149.117,50.659 147.255,52.673 "/>
<polygon fill="#FFFFFF" points="138.48,55.461 136.113,54.185 133.79,55.547 134.186,52.744 132.252,50.799 134.867,50.343 
	135.992,47.778 137.215,50.3 139.847,50.659 137.982,52.673 "/>
<g>
	<path fill="#ECE6CD" d="M97.738,50.38c-0.007-0.05-0.015-0.098-0.023-0.148c0.131,0,0.209,0.098,0.311,0.21
		c-0.054-0.093-0.148-0.093-0.25-0.059h-0.037L97.738,50.38L97.738,50.38z"/>
	<path fill="#ECE6CD" d="M97.08,49.252l-0.252,0.205c-0.016-0.004-0.037-0.009-0.05-0.014c0.014-0.049,0.022-0.093,0.039-0.143
		c0.098-0.098,0.229-0.098,0.229-0.049H97.08z"/>
	<path fill="#ECE6CD" d="M97.877,49.488c-0.014,0.02-0.027,0.034-0.046,0c-0.018-0.016-0.042-0.035-0.056-0.059
		c0.049-0.034,0.088-0.075,0.121-0.114C97.91,49.41,97.877,49.41,97.877,49.488L97.877,49.488z"/>
	<path fill="#ECE6CD" d="M96.572,49.299c-0.009-0.002-0.019-0.008-0.031-0.013c0.015-0.083,0.045-0.164,0.084-0.229
		c0.02,0.041,0,0.041,0,0.032"/>
</g>
<path fill="#ECE6CD" d="M97.975,51.908c-0.169,0-0.308-0.094-0.308-0.206c0-0.116,0.139-0.21,0.308-0.21"/>
<ellipse fill="#ECE6CD" cx="97.253" cy="51.7" rx="0.312" ry="0.208"/>
<path fill="#2A2A2A" d="M92.904,50.31c-0.551,0.261-3.268,0.316-3.613-0.559c1.11-0.693,3.005-0.071,3.627,0.559H92.904z"/>
<path fill="#2A2A2A" d="M99.852,50.31c-1.464-0.168-2.387,0.205-3.613,0.313c0.084-1.151,3.442-1.878,3.655-0.313H99.852z"/>
<path fill="#2A2A2A" d="M90.685,51.43c-0.049-0.608,0.984-0.128,1.389-0.279c0.119,0.586-0.19,0.743-0.279,1.123
	c-0.891,0.217-0.541-0.722-1.06-0.844H90.685z"/>
<path fill="#2A2A2A" d="M97.072,51.151c0.461,0,0.941,0,1.352,0c-0.331,0.417-0.243,1.252-1.11,1.123
	c-0.177-0.202-0.234-0.618-0.234-1.123H97.072z"/>
<path fill="#2A2A2A" d="M99.311,49.888c1.169-4.163-2.614-2.796-5.399-2.829c-2.616-0.029-5.682-0.808-4.373,2.358
	c-1.265,0.956-1.352,3.003-1.287,5.184c-0.658-0.65-0.359-2.187-0.769-3.063c-0.676-0.074-0.844,0.324-0.774,0.942
	c-1.394-0.382,0.051-1.922-1.282-2.354c-0.072-0.621,0.094-1.016,0.769-0.946c-0.031-0.84-0.948-0.858-0.769-1.885
	c-0.038-0.739,0.657-0.81,1.282-0.945c-0.397-1.099-0.181-2.137,0.517-2.825c0.434,0,0.833,0,1.249,0
	c0.219-1.639,2.951-3.014,4.373-1.415c0.855-1.904,4.961-2.278,5.096,0.518c1.942-0.758,3.229,0.729,2.811,2.834
	c0.065,0.518,1.143,0.103,1.244,0.469c0.245,0.628,0.21,1.338-0.512,1.665c0.21,0.522,1.251,0.312,1.251,0.941
	c-0.005,1.604-1.583,1.52-0.775,3.305c-0.486,0.052-0.565-0.268-1.026-0.238c0.033,0.97-0.447,1.474-0.257,2.593
	c-1.063-0.769,0.462-4.102-1.412-4.309H99.311z"/>
<path fill="none" stroke="#2A2A2A" stroke-width="0.2387" stroke-miterlimit="10" d="M88.914,56.769
	c-0.58-1.452-0.913-3.151-0.913-4.965c0-5.354,2.9-9.698,6.483-9.698c3.579,0,6.479,4.344,6.479,9.698
	c0,1.812-0.333,3.508-0.91,4.959"/>
<g>
	<path fill="#2A2A2A" d="M119.952,140.683h0.792v4.06c0,1.611-0.792,2.106-1.837,2.106c-0.297,0-0.648-0.063-0.837-0.144l0.108-0.64
		c0.161,0.063,0.396,0.117,0.666,0.117c0.702,0,1.107-0.314,1.107-1.503V140.683z"/>
	<path fill="#2A2A2A" d="M122.832,140.683v3.601c0,1.351,0.603,1.927,1.413,1.927c0.892,0,1.477-0.595,1.477-1.927v-3.601h0.792
		v3.547c0,1.863-0.981,2.619-2.296,2.619c-1.242,0-2.179-0.702-2.179-2.593v-3.573H122.832z"/>
	<path fill="#2A2A2A" d="M127.862,140.683h0.793v5.41h2.593v0.657h-3.386V140.683z"/>
	<path fill="#2A2A2A" d="M132.902,140.683v6.067h-0.793v-6.067H132.902z"/>
	<path fill="#2A2A2A" d="M135.251,144.842l-0.63,1.908h-0.811l2.071-6.067h0.937l2.07,6.067h-0.837l-0.648-1.908H135.251z
		 M137.25,144.229l-0.604-1.747c-0.135-0.396-0.225-0.756-0.314-1.107h-0.019c-0.09,0.352-0.18,0.729-0.306,1.099l-0.595,1.756
		H137.25z"/>
	<path fill="#2A2A2A" d="M141.687,140.772c0.477-0.081,1.044-0.136,1.665-0.136c1.125,0,1.927,0.271,2.458,0.757
		c0.549,0.495,0.864,1.197,0.864,2.179c0,0.99-0.315,1.801-0.873,2.358c-0.576,0.567-1.513,0.873-2.692,0.873
		c-0.567,0-1.026-0.026-1.422-0.071V140.772z M142.47,146.138c0.197,0.027,0.485,0.036,0.792,0.036c1.684,0,2.584-0.937,2.584-2.575
		c0.009-1.431-0.802-2.34-2.458-2.34c-0.405,0-0.711,0.035-0.918,0.081V146.138z"/>
	<path fill="#2A2A2A" d="M152.866,143.653c0,2.079-1.27,3.195-2.818,3.195c-1.611,0-2.728-1.251-2.728-3.088
		c0-1.926,1.188-3.187,2.809-3.187C151.795,140.574,152.866,141.844,152.866,143.653z M148.148,143.743
		c0,1.306,0.702,2.467,1.944,2.467s1.945-1.144,1.945-2.521c0-1.216-0.631-2.477-1.937-2.477
		C148.797,141.213,148.148,142.42,148.148,143.743z"/>
	<path fill="#2A2A2A" d="M153.881,146.75v-6.067h0.864l1.936,3.069c0.44,0.711,0.801,1.351,1.08,1.972l0.027-0.009
		c-0.072-0.811-0.091-1.549-0.091-2.494v-2.538h0.738v6.067h-0.792l-1.927-3.079c-0.423-0.675-0.828-1.368-1.125-2.025l-0.027,0.009
		c0.045,0.766,0.055,1.494,0.055,2.503v2.593H153.881z"/>
	<path fill="#2A2A2A" d="M159.803,146.75v-6.067h0.864l1.936,3.069c0.44,0.711,0.801,1.351,1.08,1.972l0.027-0.009
		c-0.072-0.811-0.091-1.549-0.091-2.494v-2.538h0.738v6.067h-0.792l-1.927-3.079c-0.423-0.675-0.828-1.368-1.125-2.025l-0.027,0.009
		c0.045,0.766,0.055,1.494,0.055,2.503v2.593H159.803z"/>
</g>
<text transform="matrix(1 0 0 1 113.2295 45.25)" fill="#2A2A2A" font-family="'MyriadPro-Regular'" font-size="9">ALEX SMITH</text>
<g>
	<path fill="#2A2A2A" d="M62.443,82.208l-0.839,2.542h-1.08l2.758-8.083h1.248l2.758,8.083h-1.115l-0.864-2.542H62.443z
		 M65.106,81.392l-0.804-2.327c-0.18-0.527-0.3-1.007-0.419-1.475h-0.024c-0.12,0.468-0.24,0.972-0.408,1.463l-0.792,2.338H65.106z"
		/>
	<path fill="#2A2A2A" d="M68.48,84.75v-8.083h1.151l2.579,4.09c0.587,0.947,1.067,1.799,1.439,2.626l0.036-0.012
		c-0.096-1.079-0.12-2.063-0.12-3.322v-3.382h0.983v8.083h-1.055l-2.566-4.102c-0.564-0.9-1.104-1.823-1.5-2.699l-0.036,0.012
		c0.06,1.019,0.072,1.991,0.072,3.334v3.454H68.48z"/>
	<path fill="#2A2A2A" d="M76.376,76.786c0.636-0.108,1.391-0.18,2.219-0.18c1.499,0,2.566,0.36,3.274,1.007
		c0.732,0.66,1.151,1.595,1.151,2.902c0,1.319-0.419,2.399-1.163,3.143c-0.768,0.755-2.015,1.163-3.586,1.163
		c-0.756,0-1.368-0.036-1.895-0.096V76.786z M77.419,83.935c0.264,0.036,0.647,0.048,1.055,0.048c2.243,0,3.442-1.247,3.442-3.43
		c0.012-1.907-1.067-3.118-3.274-3.118c-0.54,0-0.947,0.048-1.223,0.108V83.935z"/>
	<path fill="#2A2A2A" d="M85.831,84.75v-3.43l-2.566-4.653h1.199l1.139,2.231c0.3,0.611,0.552,1.103,0.804,1.667h0.024
		c0.216-0.528,0.504-1.056,0.816-1.667l1.163-2.231h1.175l-2.698,4.642v3.442H85.831z"/>
	<path fill="#2A2A2A" d="M94.111,77.554h-2.459v-0.887h5.985v0.887h-2.471v7.196h-1.055V77.554z"/>
	<path fill="#2A2A2A" d="M98.947,82.208l-0.839,2.542h-1.08l2.758-8.083h1.248l2.758,8.083h-1.115l-0.863-2.542H98.947z
		 M101.609,81.392l-0.804-2.327c-0.18-0.527-0.3-1.007-0.419-1.475h-0.024c-0.12,0.468-0.24,0.972-0.408,1.463l-0.792,2.338H101.609
		z"/>
	<path fill="#2A2A2A" d="M105.834,84.75v-3.43l-2.566-4.653h1.199l1.139,2.231c0.3,0.611,0.552,1.103,0.804,1.667h0.024
		c0.216-0.528,0.504-1.056,0.816-1.667l1.163-2.231h1.175l-2.698,4.642v3.442H105.834z"/>
	<path fill="#2A2A2A" d="M110.432,76.667h1.056v7.208h3.454v0.875h-4.51V76.667z"/>
	<path fill="#2A2A2A" d="M122.548,80.624c0,2.771-1.69,4.258-3.754,4.258c-2.146,0-3.634-1.667-3.634-4.114
		c0-2.566,1.583-4.246,3.742-4.246C121.121,76.522,122.548,78.213,122.548,80.624z M116.264,80.744c0,1.739,0.936,3.286,2.591,3.286
		s2.591-1.523,2.591-3.358c0-1.619-0.84-3.298-2.579-3.298S116.264,78.981,116.264,80.744z"/>
	<path fill="#2A2A2A" d="M123.907,76.774c0.528-0.096,1.296-0.168,2.003-0.168c1.115,0,1.848,0.216,2.339,0.66
		c0.396,0.36,0.636,0.912,0.636,1.547c0,1.055-0.672,1.763-1.511,2.051V80.9c0.611,0.216,0.983,0.792,1.175,1.631
		c0.264,1.127,0.456,1.907,0.624,2.219h-1.079c-0.133-0.24-0.313-0.923-0.528-1.931c-0.239-1.115-0.684-1.535-1.631-1.571h-0.983
		v3.502h-1.044V76.774z M124.951,80.457h1.067c1.115,0,1.823-0.612,1.823-1.535c0-1.043-0.756-1.5-1.859-1.5
		c-0.504,0-0.852,0.036-1.031,0.084V80.457z"/>
</g>
<g>
	<path fill="#2A2A2A" d="M61.692,100.455v3.601c0,1.351,0.604,1.927,1.414,1.927c0.891,0,1.477-0.594,1.477-1.927v-3.601h0.792
		v3.547c0,1.863-0.981,2.62-2.295,2.62c-1.243,0-2.179-0.702-2.179-2.593v-3.574H61.692z"/>
	<path fill="#2A2A2A" d="M70.054,106.522l-0.783-1.341c-0.315-0.513-0.504-0.846-0.693-1.197h-0.018
		c-0.171,0.351-0.351,0.675-0.657,1.206l-0.729,1.333h-0.9l1.854-3.07l-1.783-2.998h0.91l0.801,1.422
		c0.225,0.396,0.396,0.702,0.558,1.026h0.027c0.171-0.36,0.324-0.639,0.549-1.026l0.819-1.422h0.909l-1.846,2.953l1.891,3.115
		H70.054z"/>
	<path fill="#2A2A2A" d="M73.778,100.545c0.477-0.081,1.044-0.135,1.666-0.135c1.125,0,1.927,0.27,2.458,0.756
		c0.549,0.495,0.864,1.197,0.864,2.179c0,0.99-0.315,1.8-0.874,2.358c-0.576,0.567-1.512,0.874-2.692,0.874
		c-0.567,0-1.026-0.027-1.422-0.072V100.545z M74.562,105.91c0.198,0.027,0.486,0.036,0.792,0.036c1.684,0,2.583-0.937,2.583-2.575
		c0.009-1.432-0.801-2.341-2.458-2.341c-0.405,0-0.711,0.036-0.918,0.081V105.91z"/>
	<path fill="#2A2A2A" d="M80.222,104.488c0.018,1.071,0.693,1.513,1.495,1.513c0.567,0,0.918-0.099,1.207-0.225l0.144,0.567
		c-0.279,0.126-0.766,0.279-1.458,0.279c-1.341,0-2.143-0.891-2.143-2.206s0.774-2.341,2.043-2.341c1.432,0,1.8,1.242,1.8,2.043
		c0,0.162-0.009,0.279-0.027,0.369H80.222z M82.545,103.921c0.009-0.495-0.207-1.279-1.098-1.279c-0.81,0-1.152,0.729-1.215,1.279
		H82.545z"/>
	<path fill="#2A2A2A" d="M84.183,105.721c0.243,0.144,0.657,0.306,1.053,0.306c0.567,0,0.837-0.279,0.837-0.648
		c0-0.378-0.225-0.576-0.801-0.792c-0.792-0.288-1.162-0.711-1.162-1.233c0-0.702,0.576-1.278,1.503-1.278
		c0.441,0,0.829,0.117,1.063,0.27l-0.189,0.576c-0.171-0.108-0.486-0.261-0.892-0.261c-0.468,0-0.72,0.27-0.72,0.594
		c0,0.36,0.252,0.522,0.819,0.748c0.748,0.279,1.144,0.657,1.144,1.305c0,0.774-0.604,1.314-1.621,1.314
		c-0.477,0-0.918-0.126-1.225-0.306L84.183,105.721z"/>
	<path fill="#2A2A2A" d="M88.737,100.941c0,0.27-0.189,0.486-0.504,0.486c-0.288,0-0.477-0.216-0.477-0.486s0.198-0.495,0.495-0.495
		C88.539,100.446,88.737,100.662,88.737,100.941z M87.854,106.522v-4.357h0.792v4.357H87.854z"/>
	<path fill="#2A2A2A" d="M93.688,105.883c0,1.008-0.207,1.611-0.621,1.999c-0.432,0.387-1.044,0.522-1.594,0.522
		c-0.522,0-1.098-0.126-1.449-0.36l0.198-0.612c0.288,0.189,0.738,0.351,1.278,0.351c0.81,0,1.404-0.423,1.404-1.53v-0.477h-0.018
		c-0.234,0.405-0.711,0.729-1.386,0.729c-1.081,0-1.854-0.918-1.854-2.125c0-1.477,0.963-2.305,1.971-2.305
		c0.756,0,1.162,0.387,1.36,0.747h0.018l0.027-0.657h0.702c-0.027,0.306-0.036,0.667-0.036,1.188V105.883z M92.896,103.885
		c0-0.135-0.009-0.252-0.045-0.351c-0.144-0.468-0.522-0.846-1.107-0.846c-0.756,0-1.296,0.639-1.296,1.647
		c0,0.855,0.441,1.566,1.287,1.566c0.495,0,0.937-0.306,1.098-0.811c0.045-0.135,0.063-0.288,0.063-0.423V103.885z"/>
	<path fill="#2A2A2A" d="M94.938,103.345c0-0.459-0.009-0.819-0.036-1.18h0.702l0.045,0.72h0.018c0.216-0.405,0.72-0.81,1.44-0.81
		c0.604,0,1.54,0.36,1.54,1.854v2.593h-0.792v-2.512c0-0.702-0.261-1.288-1.008-1.288c-0.513,0-0.918,0.369-1.063,0.811
		c-0.036,0.099-0.054,0.234-0.054,0.369v2.62h-0.792V103.345z"/>
	<path fill="#2A2A2A" d="M100.373,104.488c0.018,1.071,0.693,1.513,1.495,1.513c0.567,0,0.918-0.099,1.207-0.225l0.144,0.567
		c-0.279,0.126-0.766,0.279-1.458,0.279c-1.341,0-2.143-0.891-2.143-2.206s0.774-2.341,2.043-2.341c1.431,0,1.8,1.242,1.8,2.043
		c0,0.162-0.009,0.279-0.027,0.369H100.373z M102.696,103.921c0.009-0.495-0.207-1.279-1.098-1.279
		c-0.811,0-1.152,0.729-1.215,1.279H102.696z"/>
	<path fill="#2A2A2A" d="M104.441,103.524c0-0.513-0.009-0.954-0.036-1.359h0.693l0.036,0.864h0.027
		c0.198-0.585,0.684-0.954,1.215-0.954c0.081,0,0.144,0.009,0.216,0.018v0.747c-0.081-0.018-0.162-0.018-0.271-0.018
		c-0.558,0-0.954,0.414-1.062,1.008c-0.018,0.108-0.027,0.243-0.027,0.369v2.323h-0.792V103.524z"/>
</g>
<g>
	<path fill="#2A2A2A" d="M119.573,160.06v2.399c0,0.898,0.401,1.283,0.941,1.283c0.594,0,0.983-0.396,0.983-1.283v-2.399h0.527
		v2.362c0,1.242-0.653,1.746-1.529,1.746c-0.827,0-1.451-0.469-1.451-1.728v-2.381H119.573z"/>
	<path fill="#2A2A2A" d="M125.146,164.102l-0.521-0.894c-0.211-0.342-0.336-0.563-0.463-0.798h-0.012
		c-0.113,0.234-0.233,0.45-0.438,0.804l-0.486,0.888h-0.6l1.236-2.045l-1.188-1.997h0.605l0.533,0.948
		c0.15,0.264,0.264,0.467,0.372,0.684h0.019c0.113-0.24,0.215-0.426,0.365-0.684l0.546-0.948h0.605l-1.229,1.968l1.26,2.074H125.146
		z"/>
	<path fill="#2A2A2A" d="M127.631,160.119c0.318-0.053,0.696-0.09,1.109-0.09c0.75,0,1.284,0.18,1.638,0.504
		c0.366,0.33,0.575,0.798,0.575,1.451c0,0.66-0.209,1.199-0.581,1.571c-0.384,0.378-1.007,0.582-1.793,0.582
		c-0.378,0-0.684-0.019-0.948-0.048V160.119z M128.153,163.693c0.132,0.019,0.323,0.024,0.528,0.024
		c1.121,0,1.721-0.624,1.721-1.715c0.006-0.954-0.534-1.56-1.637-1.56c-0.271,0-0.475,0.024-0.612,0.055V163.693z"/>
	<path fill="#2A2A2A" d="M131.927,162.746c0.013,0.714,0.462,1.008,0.995,1.008c0.379,0,0.612-0.066,0.805-0.15l0.096,0.378
		c-0.187,0.084-0.51,0.187-0.972,0.187c-0.894,0-1.427-0.594-1.427-1.47s0.516-1.56,1.361-1.56c0.953,0,1.199,0.828,1.199,1.361
		c0,0.108-0.007,0.187-0.019,0.246H131.927z M133.475,162.369c0.006-0.33-0.139-0.852-0.732-0.852c-0.539,0-0.768,0.485-0.809,0.852
		H133.475z"/>
	<path fill="#2A2A2A" d="M134.566,163.568c0.162,0.096,0.438,0.203,0.702,0.203c0.378,0,0.558-0.186,0.558-0.432
		c0-0.252-0.15-0.384-0.533-0.527c-0.528-0.191-0.773-0.475-0.773-0.822c0-0.467,0.383-0.852,1.001-0.852
		c0.294,0,0.552,0.078,0.708,0.181l-0.127,0.384c-0.113-0.072-0.323-0.174-0.594-0.174c-0.311,0-0.479,0.18-0.479,0.396
		c0,0.239,0.168,0.348,0.545,0.497c0.498,0.187,0.762,0.438,0.762,0.87c0,0.516-0.402,0.876-1.079,0.876
		c-0.317,0-0.612-0.084-0.815-0.204L134.566,163.568z"/>
	<path fill="#2A2A2A" d="M137.603,160.384c0,0.18-0.126,0.323-0.336,0.323c-0.192,0-0.317-0.144-0.317-0.323
		c0-0.181,0.132-0.33,0.33-0.33C137.471,160.054,137.603,160.197,137.603,160.384z M137.016,164.102v-2.902h0.527v2.902H137.016z"/>
	<path fill="#2A2A2A" d="M140.902,163.676c0,0.672-0.139,1.073-0.414,1.331c-0.288,0.259-0.695,0.349-1.062,0.349
		c-0.349,0-0.731-0.084-0.966-0.24l0.133-0.408c0.191,0.126,0.491,0.234,0.852,0.234c0.539,0,0.935-0.282,0.935-1.02v-0.318h-0.012
		c-0.155,0.27-0.474,0.486-0.923,0.486c-0.721,0-1.236-0.611-1.236-1.416c0-0.982,0.643-1.535,1.313-1.535
		c0.504,0,0.774,0.258,0.905,0.498h0.012l0.019-0.438h0.468c-0.018,0.203-0.023,0.443-0.023,0.791V163.676z M140.374,162.345
		c0-0.091-0.006-0.168-0.03-0.233c-0.096-0.313-0.348-0.564-0.737-0.564c-0.503,0-0.863,0.426-0.863,1.098
		c0,0.569,0.294,1.043,0.857,1.043c0.329,0,0.624-0.203,0.731-0.539c0.03-0.09,0.042-0.192,0.042-0.282V162.345z"/>
	<path fill="#2A2A2A" d="M141.737,161.984c0-0.306-0.007-0.545-0.024-0.785h0.468l0.03,0.479h0.012c0.145-0.27,0.48-0.54,0.959-0.54
		c0.402,0,1.025,0.24,1.025,1.236v1.727h-0.527v-1.673c0-0.468-0.174-0.858-0.672-0.858c-0.342,0-0.611,0.246-0.707,0.541
		c-0.023,0.065-0.036,0.155-0.036,0.245v1.745h-0.527V161.984z"/>
	<path fill="#2A2A2A" d="M145.361,162.746c0.012,0.714,0.461,1.008,0.995,1.008c0.378,0,0.612-0.066,0.804-0.15l0.096,0.378
		c-0.186,0.084-0.51,0.187-0.971,0.187c-0.895,0-1.428-0.594-1.428-1.47s0.516-1.56,1.361-1.56c0.953,0,1.199,0.828,1.199,1.361
		c0,0.108-0.006,0.187-0.018,0.246H145.361z M146.908,162.369c0.006-0.33-0.139-0.852-0.731-0.852c-0.54,0-0.768,0.485-0.81,0.852
		H146.908z"/>
	<path fill="#2A2A2A" d="M148.073,162.104c0-0.342-0.007-0.636-0.024-0.905h0.462l0.024,0.576h0.018
		c0.132-0.391,0.455-0.637,0.81-0.637c0.054,0,0.096,0.006,0.144,0.013v0.497c-0.054-0.012-0.107-0.012-0.18-0.012
		c-0.371,0-0.636,0.275-0.707,0.672c-0.012,0.072-0.019,0.162-0.019,0.246v1.547h-0.527V162.104z"/>
</g>
</svg>
