<?xml version="1.0" encoding="utf-8"?>
<!-- Generator: Adobe Illustrator 15.1.0, SVG Export Plug-In . SVG Version: 6.00 Build 0)  -->
<!DOCTYPE svg PUBLIC "-//W3C//DTD SVG 1.1//EN" "http://www.w3.org/Graphics/SVG/1.1/DTD/svg11.dtd">
<svg version="1.1" id="Layer_1" xmlns="http://www.w3.org/2000/svg" xmlns:xlink="http://www.w3.org/1999/xlink" x="0px" y="0px"
	 width="227px" height="160px" viewBox="-63.5 -30 227 160" enable-background="new -63.5 -30 227 160" xml:space="preserve">
<g>
	<path fill="#2A2A2A" d="M103.663-6.792c-0.011-0.002-0.022-0.003-0.033-0.005c-0.086-0.017-0.166-0.041-0.241-0.069
		c-0.013-0.005-0.024-0.009-0.037-0.014c-0.073-0.031-0.144-0.066-0.207-0.107c-0.009-0.006-0.019-0.012-0.027-0.018
		c-0.064-0.043-0.126-0.091-0.182-0.145c-0.002-0.002-0.005-0.006-0.009-0.008c-0.116-0.116-0.211-0.25-0.28-0.397
		c-0.002-0.001-0.002-0.002-0.002-0.002c-0.035-0.074-0.063-0.151-0.087-0.23c0-0.001-0.002-0.003-0.002-0.005
		c-0.023-0.08-0.039-0.16-0.051-0.243c-0.46-0.153-0.815-0.544-1.023-1.031c-0.382-0.9-0.824-1.77-1.489-2.489
		c-0.171-0.15-0.331-0.329-0.476-0.549c-0.24-0.363-0.289-0.729-0.208-1.055H85.286v26.063h18.766V-6.772
		c-0.033,0.002-0.065,0.005-0.101,0.005C103.851-6.767,103.754-6.777,103.663-6.792z"/>
	<polygon fill="#666666" points="104.052,-6.5 99.5,-6.5 99.5,-12.354 	"/>
</g>
<g>
	<path fill-rule="evenodd" clip-rule="evenodd" fill="#2A2A2A" d="M131.885,79.646c-1.048,1.336-2.342,2.419-3.443,3.7
		c-2.457-2.299-4.67-4.853-7.074-7.206c1.068-1.358,2.383-2.462,3.506-3.766C127.236,74.771,129.574,77.195,131.885,79.646z"/>
	<path fill-rule="evenodd" clip-rule="evenodd" fill="#2A2A2A" d="M121.992,79.126c-2.973,2.988-6.542,6.784-9.704,10.063
		c-0.478,0.495-1.182,1.002-1.379,1.43c-0.131,0.287-0.671,2.34-0.625,2.726c0.078,0.659,0.917,0.939,1.314,1.428
		c0.769-0.338,1.819-0.226,2.692-0.648c0.865-0.418,2.089-2.102,2.817-2.856c2.623-2.72,4.932-5.114,7.64-7.921
		c0.218-0.227,0.681-0.715,0.688-0.715c0.183-0.007,0.767,0.796,0.94,0.976c0.379,0.395,0.716,0.596,0.876,0.973
		c-3.277,3.375-6.734,6.918-10.144,10.453c-0.503,0.521-0.969,1.242-1.439,1.492c-0.611,0.326-1.626,0.454-2.38,0.65
		c-2.396,0.626-4.815,1.144-7.2,1.818c0.7-2.426,1.217-4.797,1.879-7.271c0.206-0.773,0.324-1.761,0.625-2.402
		c0.21-0.448,0.935-0.97,1.441-1.493c3.341-3.464,6.956-7.309,10.205-10.583C120.84,77.854,121.497,78.407,121.992,79.126z"/>
	<path fill-rule="evenodd" clip-rule="evenodd" fill="#2A2A2A" d="M124.372,81.594c-2.955,3.04-6.415,6.587-9.58,9.868
		c-0.286,0.297-1.134,1.421-1.314,1.429c-0.328,0.015-1.127-1.302-1.315-1.429c3.658-3.738,7.29-7.504,10.896-11.297
		C123.512,80.624,124.021,81.025,124.372,81.594z"/>
</g>
<g>
	<path fill-rule="evenodd" clip-rule="evenodd" fill="#2A2A2A" d="M-21.962,29.402c3.692,2.894,7.318,5.858,10.906,8.865
		c0,4.73,0,9.463,0,14.193c-7.13,0.131-14.488,0.019-21.707,0.057c-0.097-4.041-0.053-8.213-0.053-12.455c0-0.586-0.11-1.354,0-1.74
		c0.087-0.304,0.89-0.875,1.265-1.178C-28.334,34.544-25.119,31.988-21.962,29.402z M-21.909,31.927
		c-2.836,2.198-5.552,4.524-8.378,6.732c1.263,1.212,2.506,2.134,3.899,3.255c0.307,0.246,1.109,1.088,1.318,1.065
		c0.077-0.009,0.635-0.677,0.79-0.841c0.329-0.352,0.545-0.582,0.79-0.843c0.179-0.189,1.347-1.694,1.581-1.683
		c0.116,0.005,0.676,0.721,0.79,0.842c0.913,0.973,1.539,1.767,2.423,2.524c1.641-1.507,3.527-2.753,5.11-4.32
		C-16.396,36.454-19.123,34.158-21.909,31.927z M-30.918,49.039c1.436-1.389,3.034-3.091,4.425-4.713
		c-1.514-1.137-2.896-2.415-4.425-3.535C-30.918,43.541-30.918,46.29-30.918,49.039z M-13.005,40.791
		c-1.469,1.223-2.998,2.381-4.425,3.646c1.266,1.328,2.712,2.833,3.952,4.152c0.161,0.172,0.29,0.485,0.526,0.449
		C-12.988,46.308-12.883,43.428-13.005,40.791z M-21.909,42.475c-2.29,2.188-4.959,5.168-7.218,7.574
		c-0.109,0.115-0.378,0.217-0.316,0.448c5.005,0,10.011,0,15.015,0C-16.742,47.855-19.42,45.116-21.909,42.475z"/>
</g>
<g>
	<path fill-rule="evenodd" clip-rule="evenodd" fill="#2A2A2A" d="M-9.439,88.538c0.781,0.945,1.731,1.939,2.674,2.935
		c0.87,0.92,2.29,1.818,2.412,3.156c0.129,1.415-0.909,2.478-2.097,2.491c-1.417,0.016-2.408-1.711-3.198-2.546
		c-0.993-1.049-1.855-1.972-2.831-2.88c-1.245,0.696-2.265,1.157-3.775,1.272c-5.372,0.414-9.253-3.83-9.542-8.747
		c-0.322-5.473,3.753-9.814,8.651-9.967c3.54-0.108,6.296,1.994,7.76,4.486C-7.877,81.306-7.514,85.788-9.439,88.538z
		 M-21.236,79.07c-1.147,1.213-1.981,2.874-1.783,5.259c0.249,2.988,2.501,5.438,5.4,5.704c3.667,0.338,6.571-2.291,6.764-6.091
		c0.111-2.186-0.817-3.818-1.835-4.872c-1.074-1.111-2.695-2.003-4.719-1.826C-19.027,77.383-20.332,78.116-21.236,79.07z"/>
	<path fill-rule="evenodd" clip-rule="evenodd" fill="#2A2A2A" d="M-12.323,82.503c-0.187,0.102-0.281-0.19-0.367-0.277
		c-1.073-1.057-2.671-2.041-4.929-1.882c-1.394,0.1-2.436,0.732-3.303,1.384c-0.059,0.045-0.221,0.209-0.314,0.111
		c0.815-1.566,2.064-2.854,4.142-2.934C-14.613,78.808-12.97,80.47-12.323,82.503z"/>
</g>
<g>
	<path fill-rule="evenodd" clip-rule="evenodd" fill="#2A2A2A" d="M58.481-17.522c-0.194,0.118-0.622-0.181-1.07-0.177
		c-0.491,0.005-0.883,0.257-1.137,0.294c0-3.037,0-6.073,0-9.109c-4.223-0.138-8.72-0.02-13.049-0.059
		c-0.147,5.425-0.022,11.106-0.064,16.631c4.035,0,8.07,0,12.105,0c0.085,0.898,0.232,1.742,0.568,2.409c-3.806,0-6.764,0-10.656,0
		c-1.727,0-3.501,0.189-4.099-0.881c-0.498-0.893-0.188-3.365-0.188-4.76c0-4.334,0-7.889,0-12.283c0-1.861-0.116-3.222,1.513-3.467
		c1.148-0.172,2.546,0,3.847,0c2.517,0,4.88,0,7.566,0c2.014,0,4.121-0.308,4.603,1.058c0.229,0.652,0.062,1.796,0.062,2.586
		C58.481-22.706,58.481-20.153,58.481-17.522z M49.655-8.295c0.291,0.017,0.536-0.146,0.504-0.588
		C50.112-8.896,50.085-8.933,50.098-9C49.254-9.524,48.918-8.339,49.655-8.295z"/>
	<path fill-rule="evenodd" clip-rule="evenodd" fill="#2A2A2A" d="M54.194-24.81c0,0.393,0,0.784,0,1.176c-2.983,0-5.968,0-8.953,0
		c0.041-0.373-0.082-0.9,0.063-1.176C48.268-24.81,51.231-24.81,54.194-24.81z"/>
	<path fill-rule="evenodd" clip-rule="evenodd" fill="#2A2A2A" d="M54.194-22.752c0,0.392,0,0.783,0,1.175c-2.983,0-5.968,0-8.953,0
		c0.041-0.373-0.082-0.9,0.063-1.175C48.268-22.752,51.231-22.752,54.194-22.752z"/>
	<path fill-rule="evenodd" clip-rule="evenodd" fill="#2A2A2A" d="M54.194-20.696c0,0.392,0,0.784,0,1.175c-2.983,0-5.968,0-8.953,0
		c0.041-0.373-0.082-0.9,0.063-1.175C48.268-20.696,51.231-20.696,54.194-20.696z"/>
	<path fill-rule="evenodd" clip-rule="evenodd" fill="#2A2A2A" d="M54.194-18.639c0,0.392,0,0.783,0,1.175c-2.983,0-5.968,0-8.953,0
		c0.041-0.373-0.082-0.9,0.063-1.175C48.268-18.639,51.231-18.639,54.194-18.639z"/>
	<path fill-rule="evenodd" clip-rule="evenodd" fill="#2A2A2A" d="M45.368-16.582c2.921,0,5.843,0,8.764,0
		c0.137,0.285,0.028,0.796,0.063,1.175c-2.983,0-5.968,0-8.953,0C45.307-15.778,45.101-16.4,45.368-16.582z"/>
	<path fill-rule="evenodd" clip-rule="evenodd" fill="#2A2A2A" d="M58.735-16.112c0.141-0.061,0.508,0.258,0.755,0.47
		c0.997,0.851,2.598,1.978,2.648,3.702c0.039,1.312-0.419,2.751-0.314,4.114c0.077,1.019,0.439,1.791,0.82,2.645
		c-1.359,0.359-2.591,0.836-3.909,1.234c-0.146-2.459-2.028-3.398-2.208-5.701c-0.076-0.996,0-2.485,0-3.584
		c0-1.063-0.212-2.814,0.378-3.173c1.447-0.879,1.521,1.591,1.703,2.703c0.069,0.418,0.202,2.63,0.82,2.526
		c0.526-0.088-0.159-1.887-0.252-2.351C58.973-14.541,58.915-15.461,58.735-16.112z"/>
	<path fill-rule="evenodd" clip-rule="evenodd" fill="#2A2A2A" d="M49.718-14.466c0,0.392,0,0.783,0,1.175c-1.471,0-2.941,0-4.413,0
		c-0.137-0.285-0.028-0.795-0.063-1.175C46.733-14.466,48.227-14.466,49.718-14.466z"/>
</g>
<text transform="matrix(1.3291 0 0 1 113.6338 50.1504)" fill="#2A2A2A" font-family="'MyriadPro-Bold'" font-size="31.2968">€</text>
<polygon fill="#2A2A2A" points="16.058,9.7 7.284,7.288 0.711,13.579 -0.152,3.994 -8.01,-0.964 0.229,-4.477 1.946,-13.833 
	7.903,-6.417 16.819,-7.241 12.262,0.854 "/>
<g>
	<g>
		<path fill="#2A2A2A" d="M51.752,46.87c-0.354-0.146-0.729-0.225-1.076-0.359c-1.037-0.4-1.949-0.946-2.739-1.599
			c-0.51-0.422-1.028-0.935-1.295-1.625c-0.139-0.362-0.183-0.857-0.039-1.245c0.13-0.352,0.374-0.611,0.623-0.84
			c0.004,0,0.006-0.008,0-0.01c-0.787,0.371-1.276,1.111-1.438,2.143c-0.087,0.54-0.055,1.166,0,1.695
			c0.064,0.584,0.194,1.07,0.292,1.51c0.465,1.751,1.264,3.211,2.141,4.572c0.103-0.02,3.586-4.204,3.489-4.238h0.043V46.87
			L51.752,46.87z"/>
		<path fill="#2A2A2A" d="M52.942,46.87c0.356-0.146,0.73-0.225,1.081-0.359c1.035-0.4,1.947-0.946,2.738-1.599
			c0.511-0.422,1.025-0.935,1.293-1.625c0.138-0.362,0.188-0.857,0.04-1.245c-0.129-0.352-0.368-0.611-0.622-0.84
			c0,0-0.002-0.008,0-0.01c0.79,0.388,1.268,1.07,1.461,2.143c0.088,0.584,0.098,1.148-0.019,1.695
			c-0.06,0.545-0.157,1.036-0.281,1.51c-0.463,1.77-1.293,3.25-2.185,4.572c-0.07-0.02-3.476-4.204-3.476-4.238h-0.032L52.942,46.87
			L52.942,46.87z"/>
	</g>
</g>
<path fill="#2A2A2A" d="M53.475,51.235c0.211,1.344,0.389,2.876,0.682,4.221c0.04,0.19,0.1,0.386,0.1,0.715
	c0.027,0.19,0,0.574,0,0.805c0.139,3.259,0.291,6.709,0.387,9.968c0.135,3.255-4.701,1.074-4.531-3.313
	c0.09-2.252,0.162-4.426,0.242-6.616c0.01-0.284,0.012-0.556,0.047-0.799c0.248-1.602,0.525-3.265,0.771-4.884
	c0.826-0.156,1.607-0.156,2.285-0.096H53.475L53.475,51.235z"/>
<path fill="#2A2A2A" d="M59.4,43.546l-6.963,22.16l-6.854-21.814v-0.289c-6.022,1.66-10.37,7.162-10.37,13.779v13.99
	c0,7.976,6.424,14.504,14.208,14.505h6.436c7.78,0,13.809-6.55,13.809-14.505v-13.99c0.007-6.68-4.243-12.225-10.273-13.834h0.01
	v-0.002H59.4z"/>
<path fill="#2A2A2A" d="M60.391,32.795c-0.83-2.084-0.652-5.268-1.9-6.896c-3.438,0.597-8.143,2.161-10.425-0.688
	c-2.275,1.651-3.534,4.415-3.79,8.273c-1.658-2.652-2.916-8.717-1.264-11.722c0.399-0.731,1.468-0.838,2.528-1.724
	c2.4-2.013,6.827-4.3,11.059-2.415c4.862,2.131,5.421,8.65,3.765,15.171H60.391L60.391,32.795z"/>
<path fill="#2A2A2A" d="M50.269,29.72c-0.662,0.321-3.938,0.393-4.353-0.69c1.332-0.808,3.554-0.125,4.33,0.69H50.269z"/>
<path fill="#2A2A2A" d="M58.631,29.72c-1.762-0.205-2.871,0.256-4.348,0.39c0.1-1.401,4.139-2.375,4.332-0.39H58.631z"/>
<path fill="#2A2A2A" d="M47.59,31.1c-0.055-0.749,1.188-0.157,1.672-0.347c0.142,0.72-0.228,0.913-0.332,1.378
	c-1.076,0.275-0.729-0.893-1.311-1.031H47.59z"/>
<path fill="#2A2A2A" d="M55.285,30.752c0.557,0,1.072,0,1.656,0c-0.396,0.514-0.291,1.54-1.336,1.378
	c-0.244-0.309-0.295-0.798-0.295-1.378H55.285z"/>
<path fill="#2A2A2A" d="M53.564,50.927c-0.713-0.004-1.398,0.014-2.116,0c-0.085,0-0.243,0.027-0.302,0
	c-0.042-0.018-0.116-0.223-0.134-0.27c-0.2-0.473-0.36-0.99-0.479-1.553c-0.045-0.22-0.102-0.464-0.094-0.73
	c0.021-0.712,0.618-1.064,1.148-1.214c0.641-0.179,1.438-0.079,1.943,0.194c0.332,0.195,0.586,0.488,0.684,0.923
	c0.042,0.292,0,0.519-0.047,0.757c-0.147,0.691-0.314,1.375-0.609,1.895L53.564,50.927L53.564,50.927z"/>
<path fill="#2A2A2A" d="M55.192,38.165c-0.311,0.66-1.376,1.146-2.645,1.146c-1.304,0-2.393-0.512-2.671-1.197
	c-0.14,0.029-0.217,0.103-0.217,0.248c0,0.583,1.268,2.143,2.821,2.164c1.56,0.019,2.813-1.565,2.813-2.164
	c-0.008-0.121-0.084-0.121-0.084-0.199L55.192,38.165L55.192,38.165z"/>
<ellipse fill="none" stroke="#2A2A2A" stroke-width="0.1942" stroke-miterlimit="10" cx="52.4" cy="32.159" rx="8.013" ry="10.562"/>
<path id="cloud-icon" fill="#2A2A2A" d="M89.816,114.455c-0.687-8.651-12.08-11.503-16.736-4.094
	c-3.021-1.708-6.873,0.302-7.114,3.832c-3.312,0.404-5.876,3.225-5.876,6.646c0,3.699,2.998,6.699,6.699,6.699h20.995
	c3.699,0,6.698-3,6.698-6.699C94.482,117.849,92.522,115.316,89.816,114.455z"/>
<path id="time-3-icon" fill="#2A2A2A" d="M21.819,105.101c-6.475,0-11.723,5.249-11.723,11.724s5.248,11.724,11.723,11.724
	s11.724-5.249,11.724-11.724S28.293,105.101,21.819,105.101z M21.819,125.986c-5.063,0-9.163-4.098-9.163-9.162
	s4.099-9.162,9.163-9.162s9.163,4.097,9.163,9.162C30.982,121.889,26.883,125.986,21.819,125.986z M29.036,117.381
	c0.098,0.018,0.169,0.102,0.169,0.201v0.004c0,0.098-0.068,0.182-0.165,0.2c-2.112,0.395-7.113,1.215-7.662,1.215
	c-0.786,0-1.422-0.638-1.422-1.423c0-0.56,0.842-5.957,1.23-8.144c0.015-0.087,0.092-0.151,0.181-0.151h0.001
	c0.097,0,0.181,0.07,0.194,0.166l1.077,6.824L29.036,117.381z"/>
</svg>
