<?xml version="1.0" encoding="utf-8"?>
<!-- Generator: Adobe Illustrator 15.1.0, SVG Export Plug-In . SVG Version: 6.00 Build 0)  -->
<!DOCTYPE svg PUBLIC "-//W3C//DTD SVG 1.1//EN" "http://www.w3.org/Graphics/SVG/1.1/DTD/svg11.dtd">
<svg version="1.1" id="Layer_1" xmlns="http://www.w3.org/2000/svg" xmlns:xlink="http://www.w3.org/1999/xlink" x="0px" y="0px"
	 width="227px" height="160px" viewBox="0 0 227 160" enable-background="new 0 0 227 160" xml:space="preserve">
<g>
	<g>
		<path fill="#2A2A2A" d="M113.924,74.047c-0.293-0.121-0.604-0.185-0.891-0.296c-0.856-0.332-1.61-0.783-2.264-1.322
			c-0.422-0.349-0.85-0.773-1.071-1.344c-0.115-0.299-0.151-0.709-0.032-1.03c0.107-0.291,0.31-0.505,0.515-0.694
			c0.004,0,0.006-0.005,0-0.008c-0.65,0.307-1.055,0.919-1.188,1.771c-0.072,0.447-0.045,0.965,0,1.402
			c0.053,0.483,0.16,0.885,0.242,1.249c0.384,1.447,1.045,2.654,1.77,3.78c0.085-0.017,2.965-3.476,2.884-3.504h0.036V74.047
			L113.924,74.047z"/>
		<path fill="#2A2A2A" d="M114.907,74.047c0.295-0.121,0.604-0.185,0.895-0.296c0.854-0.332,1.609-0.783,2.263-1.322
			c0.423-0.349,0.848-0.773,1.069-1.344c0.114-0.299,0.154-0.709,0.033-1.03c-0.106-0.291-0.304-0.505-0.514-0.694
			c0,0-0.002-0.005,0-0.008c0.652,0.321,1.047,0.886,1.207,1.771c0.073,0.483,0.081,0.95-0.016,1.402
			c-0.049,0.45-0.129,0.857-0.232,1.249c-0.382,1.463-1.068,2.687-1.806,3.78c-0.058-0.017-2.873-3.476-2.873-3.504h-0.027
			L114.907,74.047L114.907,74.047z"/>
	</g>
</g>
<path fill="#2A2A2A" d="M115.348,77.657c0.174,1.11,0.321,2.377,0.564,3.489c0.032,0.157,0.081,0.318,0.081,0.591
	c0.023,0.157,0,0.475,0,0.665c0.115,2.694,0.241,5.546,0.319,8.239c0.111,2.692-3.886,0.89-3.745-2.738
	c0.074-1.862,0.135-3.659,0.2-5.469c0.008-0.235,0.009-0.46,0.039-0.662c0.204-1.323,0.434-2.697,0.637-4.037
	c0.684-0.129,1.329-0.129,1.891-0.078H115.348L115.348,77.657z"/>
<path fill="#2A2A2A" d="M120.246,71.298l-5.756,18.32l-5.667-18.034v-0.238c-4.979,1.372-8.572,5.92-8.572,11.391v11.564
	c0,6.595,5.311,11.991,11.746,11.991h5.32c6.432,0,11.416-5.413,11.416-11.991V82.737c0.005-5.522-3.509-10.107-8.493-11.437h0.008
	v-0.002H120.246z"/>
<path fill="#2A2A2A" d="M121.065,62.412c-0.687-1.723-0.539-4.355-1.571-5.701c-2.842,0.493-6.732,1.787-8.618-0.569
	c-1.881,1.365-2.922,3.649-3.133,6.839c-1.371-2.192-2.411-7.206-1.045-9.69c0.33-0.604,1.213-0.693,2.09-1.425
	c1.985-1.664,5.644-3.555,9.143-1.996c4.02,1.761,4.48,7.151,3.111,12.542H121.065L121.065,62.412z"/>
<path fill="#2A2A2A" d="M112.697,59.87c-0.548,0.265-3.255,0.324-3.598-0.571c1.1-0.668,2.937-0.104,3.58,0.571H112.697z"/>
<path fill="#2A2A2A" d="M119.61,59.87c-1.457-0.17-2.374,0.211-3.594,0.322c0.081-1.158,3.421-1.964,3.581-0.322H119.61z"/>
<path fill="#2A2A2A" d="M110.483,61.01c-0.046-0.619,0.981-0.13,1.382-0.287c0.117,0.595-0.188,0.754-0.274,1.139
	c-0.89,0.227-0.602-0.738-1.084-0.853H110.483z"/>
<path fill="#2A2A2A" d="M116.845,60.722c0.46,0,0.887,0,1.369,0c-0.327,0.425-0.241,1.273-1.105,1.139
	c-0.201-0.255-0.242-0.66-0.242-1.139H116.845z"/>
<path fill="#2A2A2A" d="M115.422,77.4c-0.59-0.002-1.156,0.011-1.749,0c-0.07,0-0.201,0.023-0.249,0
	c-0.035-0.015-0.097-0.184-0.111-0.222c-0.165-0.391-0.299-0.819-0.396-1.284c-0.037-0.182-0.084-0.383-0.078-0.604
	c0.019-0.588,0.512-0.88,0.949-1.003c0.53-0.147,1.188-0.066,1.607,0.16c0.274,0.162,0.483,0.404,0.564,0.763
	c0.035,0.241,0,0.429-0.038,0.625c-0.122,0.571-0.261,1.137-0.504,1.566L115.422,77.4L115.422,77.4z"/>
<path fill="#2A2A2A" d="M116.768,66.851c-0.257,0.546-1.138,0.948-2.187,0.948c-1.077,0-1.978-0.424-2.208-0.991
	c-0.115,0.024-0.179,0.085-0.179,0.206c0,0.481,1.048,1.771,2.332,1.789c1.289,0.015,2.326-1.294,2.326-1.789
	c-0.006-0.101-0.07-0.101-0.07-0.166L116.768,66.851L116.768,66.851z"/>
<rect x="169.248" y="53.155" fill="#2A2A2A" width="6.506" height="8.119"/>
<path fill="#2A2A2A" d="M176.601,46.269c-0.188,0.535-0.527-0.188-0.918,0c-0.133-1.383,0.736-1.617,0.918-2.636
	c-0.263-0.234-0.808,0.705-1.071,1.054c-0.23-0.622,0.72-1.395,0.769-2.286c-0.753,0.004-0.195-0.503-0.155-1.407
	c-0.069-0.263-0.197,0.068-0.46,0c0.037-1.452,0.009-2.823-0.613-3.517c-0.316,2.042-3.145,2.143-3.682,3.342
	c-0.365,0.405-1.378,0.064-1.997,0.176c-0.633,0.387-0.88,1.216-0.764,2.45c-0.411-0.235-0.26-1.11-0.619-1.407
	c-0.601,1.54,0.842,2.307,0.91,3.69c-0.478-0.212-0.956-0.427-1.379-0.703c0.026-0.205,0.283-0.146,0.461-0.175
	c-0.496-0.491-1.217-0.718-1.378-1.582c0.12,0,0.137,0.209,0.278,0.209c-0.003-0.76-0.767-0.65-0.77-1.407
	c0.775,0.304-0.189-0.754-0.155-1.232c0.437,0.14,0.399-0.249,0.771-0.175c-0.393-5.085,3.379-9.815,7.058-6.856
	c4.373,0.418,4.479,8.259,2.449,11.604c0.019,0.394,0.132,0.674,0.342,0.857L176.601,46.269L176.601,46.269z"/>
<path fill="#2A2A2A" d="M166.934,40.871c1.292,1.75,1.469,4.76,3.291,5.879c0,0.559,0,1.118,0,1.678
	c-0.969,0.181-1.218-0.786-1.716-1.538c-0.862-1.297-2.195-1.566-2.327-2.936c-0.085-1.088,0.688-1.788,0.757-3.083H166.934z"/>
<path fill="#2A2A2A" d="M176.627,40.901c0.639,0.701,0.91,1.819,0.84,3.358c-1.435,1.114-1.966,3.255-3.797,3.912
	c-0.459-1.888,0.646-2.05,1.347-3.074c0.896-1.321,0.947-3.002,1.577-4.196H176.627L176.627,40.901z"/>
<path fill="#2A2A2A" d="M173.717,45.255c0,0.303-0.577,1.096-1.299,1.096c-0.715,0-1.297-0.793-1.297-1.096c0-0.301,0.577,0,1.329,0
	c0.687-0.008,1.271-0.29,1.271,0H173.717z"/>
<path fill="#2A2A2A" d="M175.977,49.24l-3.573,12.145l-3.51-11.952v-0.158c-3.502,0.907-6.303,3.921-6.303,7.551v7.666
	c0,4.34,3.711,8.048,8.052,8.053h3.596c4.337,0,7.272-3.696,7.272-8.053v-7.666c-0.023-3.669-2.19-6.679-5.553-7.584L175.977,49.24
	L175.977,49.24z"/>
<path fill="#2A2A2A" d="M171.496,51.062c-0.188-0.08-0.382-0.123-0.569-0.198c-0.544-0.219-1.023-0.519-1.438-0.875
	c-0.269-0.23-0.539-0.514-0.675-0.89c-0.077-0.201-0.104-0.471-0.024-0.685c0.066-0.192,0.192-0.334,0.326-0.459
	c0,0,0.003-0.003,0-0.003c-0.416,0.205-0.67,0.608-0.753,1.188c-0.048,0.296-0.032,0.631,0,0.93c0.035,0.279,0.068,0.56,0.138,0.827
	c0.244,0.979,0.703,1.75,1.119,2.519c0.072-0.051,1.857-2.291,1.857-2.354H171.496z"/>
<path fill="#2A2A2A" d="M173.057,50.875c0.187-0.078,0.38-0.123,0.568-0.196c0.539-0.22,1.024-0.518,1.438-0.875
	c0.268-0.23,0.539-0.512,0.68-0.891c0.074-0.199,0.097-0.471,0.021-0.684c-0.071-0.192-0.198-0.334-0.326-0.46
	c-0.004,0-0.004-0.003,0-0.005c0.416,0.21,0.701,0.63,0.771,1.189c0.042,0.28,0,0.631-0.009,0.931
	c-0.034,0.297-0.086,0.569-0.152,0.827c-0.244,0.97-0.679,1.782-1.146,2.518c-0.04-0.074-1.875-2.313-1.875-2.354L173.057,50.875
	L173.057,50.875z"/>
<path fill="#2A2A2A" d="M171.3,41.429c-0.37,0.176-2.2,0.216-2.432-0.379c0.745-0.494,1.981-0.073,2.404,0.379H171.3z"/>
<path fill="#2A2A2A" d="M175.971,41.429c-0.984-0.114-1.605,0.14-2.433,0.209c0.058-0.731,2.356-1.293,2.426-0.209H175.971z"/>
<path fill="#2A2A2A" d="M169.805,42.186c-0.033-0.41,0.662-0.087,0.936-0.19c0.078,0.395-0.129,0.5-0.189,0.756
	C169.951,42.938,170.154,42.237,169.805,42.186L169.805,42.186z"/>
<path fill="#2A2A2A" d="M174.099,41.996c0.311,0,0.634,0,0.909,0c-0.221,0.282-0.158,0.845-0.747,0.756
	c-0.122-0.166-0.188-0.444-0.188-0.756H174.099z"/>
<g>
	<path fill="#ECE6CD" d="M174.472,94.817c-0.005-0.033-0.009-0.067-0.016-0.101c0.088,0,0.142,0.065,0.207,0.141
		c-0.036-0.063-0.099-0.063-0.168-0.036h-0.023V94.817z"/>
	<path fill="#ECE6CD" d="M174.03,94.06l-0.168,0.137c-0.013-0.002-0.026-0.006-0.035-0.009c0.011-0.032,0.018-0.063,0.028-0.093
		c0.066-0.068,0.153-0.068,0.153-0.035H174.03z"/>
	<path fill="#ECE6CD" d="M174.565,94.217c-0.01,0.015-0.019,0.024-0.031,0c-0.014-0.013-0.028-0.022-0.036-0.037
		c0.031-0.024,0.059-0.052,0.08-0.078C174.587,94.167,174.565,94.167,174.565,94.217L174.565,94.217z"/>
	<path fill="#ECE6CD" d="M173.688,94.091c-0.007,0-0.015-0.008-0.022-0.013c0.008-0.052,0.03-0.107,0.056-0.154
		c0.017,0.03,0,0.03,0,0.022"/>
</g>
<path fill="#ECE6CD" d="M174.632,95.848c-0.114,0-0.207-0.063-0.207-0.14c0-0.075,0.093-0.143,0.207-0.143"/>
<ellipse fill="#ECE6CD" cx="174.146" cy="95.707" rx="0.209" ry="0.141"/>
<path fill="none" stroke="#2A2A2A" stroke-width="0.4636" stroke-miterlimit="10" d="M175.967,103.711
	c-0.06-0.034-0.238-0.076-0.247-0.095h-6.165c-0.035,0.009-0.069,0.019-0.104,0c-0.27,0.022-0.541,0.063-0.813,0.063
	c-0.021-0.003-0.04-0.005-0.063-0.013c-0.071,0.046-0.147,0.095-0.232,0.095c-0.041,0.022-0.085,0.033-0.126,0.044v13.309h7.94
	v-13.365c-0.063,0.044-0.126-0.049-0.196-0.037H175.967z"/>
<path fill="#2A2A2A" d="M175.977,102.113l-3.888,12.144l-3.828-11.951v-0.159c-3.366,0.904-5.791,3.921-5.791,7.551v7.665
	c0,4.335,3.569,7.978,7.91,7.942h3.59c4.342,0,7.716-3.587,7.716-7.942v-7.665c0.027-3.706-2.365-6.715-5.724-7.584H175.977
	L175.977,102.113z"/>
<path fill="#2A2A2A" d="M170.983,94.73c-0.37,0.174-2.198,0.213-2.43-0.377c0.748-0.465,2.021-0.046,2.439,0.377H170.983z"/>
<path fill="#2A2A2A" d="M175.656,94.73c-0.984-0.113-1.605,0.137-2.429,0.207c0.057-0.769,2.313-1.258,2.458-0.207H175.656z"/>
<path fill="#2A2A2A" d="M169.491,95.486c-0.033-0.412,0.661-0.088,0.936-0.189c0.08,0.395-0.129,0.5-0.188,0.758
	c-0.599,0.145-0.364-0.489-0.713-0.57h-0.034V95.486z"/>
<path fill="#2A2A2A" d="M173.788,95.297c0.311,0,0.634,0,0.91,0c-0.224,0.282-0.164,0.84-0.747,0.756
	c-0.119-0.137-0.159-0.419-0.159-0.756H173.788z"/>
<path fill="#2A2A2A" d="M173.625,99.356c-0.17,0.361-0.77,0.634-1.478,0.634c-0.729,0-1.336-0.285-1.491-0.66
	c-0.079,0.014-0.12,0.056-0.12,0.136c0,0.351,0.701,1.188,1.54,1.184c0.837-0.003,1.57-0.857,1.57-1.184
	c0.034-0.05,0.006-0.118,0.006-0.109H173.625L173.625,99.356L173.625,99.356z"/>
<path fill="#2A2A2A" d="M175.293,94.446c0.787-2.799-1.758-1.882-3.63-1.902c-1.761-0.021-3.822-0.541-2.94,1.584
	c-0.85,0.643-0.91,2.023-0.866,3.487c-0.442-0.436-0.242-1.472-0.518-2.059c-0.454-0.05-0.569,0.221-0.521,0.634
	c-0.938-0.258,0.035-1.292-0.863-1.585c-0.049-0.416,0.063-0.684,0.519-0.635c-0.023-0.565-0.639-0.576-0.519-1.266
	c-0.023-0.5,0.441-0.549,0.863-0.636c-0.268-0.741-0.122-1.436,0.348-1.9c0.291,0,0.562,0,0.84,0
	c0.147-1.103,1.984-2.027,2.941-0.951c0.575-1.284,3.336-1.532,3.427,0.349c1.305-0.512,2.173,0.489,1.892,1.908
	c0.042,0.349,0.768,0.068,0.836,0.312c0.164,0.424,0.142,0.9-0.344,1.119c0.141,0.352,0.841,0.209,0.841,0.634
	c-0.003,1.08-1.063,1.024-0.522,2.223c-0.325,0.033-0.378-0.178-0.689-0.161c0.022,0.654-0.302,0.993-0.173,1.745
	c-0.713-0.515,0.31-2.76-0.951-2.897h0.03V94.446z"/>
<ellipse fill="#FFFFFF" cx="172.046" cy="115.092" rx="0.42" ry="0.42"/>
<ellipse fill="#FFFFFF" cx="172.046" cy="116.981" rx="0.417" ry="0.417"/>
<path fill="none" stroke="#2A2A2A" stroke-width="0.4294" stroke-miterlimit="10" d="M120.12,36.833V18.858
	c0-1.615,0.9-2.924,2.008-2.924h0.074c1.109,0,2.032,1.284,2.032,2.924v17.974h-0.023"/>
<path fill="none" stroke="#2A2A2A" stroke-width="0.4291" stroke-miterlimit="10" d="M104.481,36.862V19.076
	c0-1.6,0.899-2.895,2.008-2.895h0.073c1.11,0,2.031,1.281,2.031,2.895v17.786h-0.022"/>
<path fill="#2A2A2A" d="M109.229,14.195c0.743,0.7,0.069,2.1,0.208,3.079c0.43,2.52,2.941,4.129,4.901,5.1
	c3.151-1.229,5.853-3.763,4.886-8.203c1.962,0.418,3.712,1.05,4.692,2.448c-0.344,1.149-1.125,1.883-1.628,2.883
	c0,0.56,0,1.188,0,1.772c-2.769,3.306-2.282,11.21-1.399,15.536c-3.354,0.328-9.457,0.328-12.807,0
	c0.742-4.828,1.488-11.587-1.397-15.078c0.298-2.427-0.891-3.44-1.632-4.88c0.56-1.633,2.536-1.983,4.145-2.661L109.229,14.195
	L109.229,14.195z"/>
<path fill="#2A2A2A" d="M115.458,12.49c0,0.3-0.551,1.089-1.229,1.089c-0.675,0-1.223-0.787-1.223-1.089c0-0.303,0.56,0,1.188,0
	s1.258-0.277,1.229,0H115.458z"/>
<path fill="#2A2A2A" d="M113.172,8.688c-0.347,0.175-2.074,0.213-2.291-0.375c0.701-0.439,1.887-0.089,2.308,0.375H113.172z"/>
<path fill="#2A2A2A" d="M117.585,8.688c-0.931-0.111-1.52,0.14-2.298,0.209c0.053-0.744,2.168-1.304,2.31-0.209H117.585z"/>
<path fill="#2A2A2A" d="M111.763,9.439c-0.031-0.407,0.625-0.085,0.882-0.188c0.075,0.393-0.122,0.498-0.176,0.751
	c-0.566,0.181-0.329-0.521-0.682-0.563H111.763z"/>
<path fill="#2A2A2A" d="M115.82,9.251c0.294,0,0.562,0,0.908,0c-0.208,0.278-0.155,0.841-0.706,0.75
	c-0.163-0.169-0.242-0.45-0.172-0.75H115.82z"/>
<ellipse fill="#EDEEF2" cx="118.228" cy="10.043" rx="0.631" ry="0.771"/>
<ellipse fill="#ECE6CD" cx="109.757" cy="10.043" rx="0.631" ry="0.771"/>
<path fill="#2A2A2A" d="M110.539,14.372c1.847-1.38-1.483-5.985,0.042-8.845c2.853,0.63,3.64,3.43,6.788,3.799
	c-0.128,2.875-1.193,6.368,1.751,7.321c0.976-0.824-0.503-1.516,0.185-2.398c1.833,1.038-0.024-0.313,1.892,0.164
	c-1.108-0.408-1.118-1.987-1.756-2.899c0.043-0.813,1.046,0.278,1.188,0.561c-0.079-2.934-1.602-14.388-10.688-9.899
	c-2.588,3.076-3.228,11.406,1.122,13.5c0.324,0.947-1.234-2.413-0.534-1.303H110.539z"/>
<path fill="#ED6E64" d="M51.319,103.771c0,0,0,0,0,0.004c0,0.772,1.608,1.4,3.571,1.392
	C52.937,105.154,51.319,104.525,51.319,103.771z"/>
<path fill="#2A2A2A" d="M58.476,103.375l-0.046,0.063c-0.145-0.039-0.31-0.072-0.461-0.103c0.109,0.142,0.14,0.282,0.14,0.421
	c0,0.769-1.616,1.392-3.605,1.392c-1.987,0-3.602-0.623-3.602-1.392c0-0.004,0-0.004,0-0.004c0-0.002,0-0.005,0-0.005
	c0-0.127,0.091-0.254,0.171-0.371c-0.117,0.031-0.302,0.056-0.302,0.097v-0.084c-3.344,0.931-5.75,3.936-5.75,7.569v0.172v7.491
	v0.174c0,3.635,2.378,6.647,5.808,7.552v-0.081c0.481,0.209,1.33,0.209,2.03,0.178h3.593c0.592,0,1.165-0.01,1.714-0.134l0.32,0.037
	c3.348-0.872,5.794-3.889,5.794-7.552v-0.176v-7.493v-0.168c-0.015-3.636-2.466-6.715-5.824-7.584H58.476L58.476,103.375z"/>
<path fill="#2A2A2A" d="M53.81,97.452c-0.367,0.178-2.199,0.215-2.428-0.378c0.742-0.458,1.96-0.037,2.448,0.378H53.81z"/>
<path fill="#2A2A2A" d="M58.479,97.452c-0.982-0.113-1.603,0.143-2.427,0.207c0.057-0.764,2.328-1.254,2.399-0.207H58.479z"/>
<path fill="#2A2A2A" d="M52.316,98.208c-0.032-0.408,0.663-0.086,0.934-0.189c0.079,0.395-0.126,0.504-0.186,0.76
	c-0.598,0.152-0.422-0.479-0.771-0.57H52.316L52.316,98.208L52.316,98.208z"/>
<path fill="#2A2A2A" d="M56.613,98.015c0.311,0,0.631,0,0.911,0c-0.22,0.287-0.16,0.847-0.748,0.758
	c-0.122-0.196-0.145-0.405-0.145-0.758H56.613z"/>
<path fill="#EDEEF2" d="M54.531,98.154"/>
<line fill="none" x1="54.11" y1="99.768" x2="55.091" y2="99.693"/>
<path fill="#2A2A2A" d="M56.248,101.182c-0.174,0.365-0.769,0.63-1.477,0.63c-0.728,0-1.337-0.282-1.491-0.658
	c-0.076,0.021-0.121,0.056-0.121,0.136c0,0.354,0.7,1.191,1.54,1.188c0.868,0,1.572-0.859,1.572-1.188
	c0.032-0.054,0.012-0.054,0.012-0.105h-0.035L56.248,101.182L56.248,101.182z"/>
<path fill="#2A2A2A" d="M53.994,87.058c0.922,0.489,1.4,1.397,2.101,2.029c0.568,0.147-0.148-0.958,0.418-0.811
	c1.149,0.278,1.47,1.468,1.679,2.645c0.368-0.05,0.477-0.351,0.418-0.815c0.729,0.283,0.911,1.191,0.84,2.24
	c0.449,0.066,0.399-0.295,0.419-0.613c2.173,1.749,0.491,5.881,0,8.122c-0.016-2.293-1.246-3.401-1.256-5.699
	c-0.611-1.297-2.889-0.676-3.976-0.207c-1.271-0.386-2.73-0.863-3.977-0.204c-0.354,0.671-0.124,1.33,0,2.04
	c-1.003,0.584-1.212,1.94-1.048,3.659c-1.182-1.506-1.706-5.08-0.837-7.324c0.465-0.114,0.282,0.419,0.631,0.406
	c0.305-0.925,0.594-1.866,1.046-2.643c0.744-0.314,0.14,0.701,0.63,0.629c0.575-0.522,0.636-1.553,1.255-2.035
	c0.539,0,0.281,0.771,0.84,0.815c0.708-0.304,0.865-1.146,0.795-2.234H53.994z"/>
<path fill="#ECE6CD" d="M110.808,137.102c0,0,0,0,0,0.004c0,0.772,1.607,1.402,3.569,1.402
	C112.423,138.471,110.808,137.837,110.808,137.102z"/>
<path fill="#2A2A2A" d="M118.288,136.707l-0.061,0.061c-0.148-0.037-0.316-0.072-0.467-0.102c0.109,0.139,0.142,0.279,0.142,0.417
	c0,0.771-1.57,1.394-3.559,1.394s-3.56-0.627-3.56-1.394c0,0,0-0.004,0-0.006c0,0-0.045,0-0.045-0.002
	c0-0.128-0.169-0.254-0.092-0.368c-0.114,0.027-0.562,0.058-0.562,0.089v-0.082c-2.8,0.904-5.6,3.925-5.6,7.553v0.172v7.487v0.176
	c0,3.639,2.8,6.649,5.6,7.546v-0.079c1.399,0.211,1.819,0.421,2.521,0.432h3.594c0.593,0,1.166-0.134,1.71-0.26l0.347-0.027
	c3.349-0.867,5.82-3.942,5.82-7.611v-0.171v-7.488v-0.176c0.027-3.628-2.423-6.706-5.784-7.56H118.288L118.288,136.707z"/>
<path fill="#FFFFFF" d="M117.439,136.557C117.439,136.551,117.441,136.555,117.439,136.557c0.396,0.139,0.704,0.349,0.768,0.737
	c0.034,0.213,0,0.402-0.034,0.588c-0.041,0.178-0.104,0.352-0.172,0.488c-0.278,0.629-0.756,1.164-1.259,1.616
	c-0.063-0.384-0.162-0.721-0.377-1.012c-0.149-0.198-0.37-0.402-0.767-0.446c-0.068-0.008-0.146-0.015-0.218-0.014
	c-0.064,0.012-0.146,0.014-0.193,0.022c-0.041,0.012-0.077,0.052-0.12,0.07c-0.013,0.014-0.092,0.089-0.139,0.063
	c-0.017-0.01,0.008-0.043,0.017-0.066c0.032-0.069,0.066-0.145,0.091-0.206c0.384-0.063,0.756-0.146,1.093-0.252
	c0.503-0.155,0.953-0.343,1.319-0.604c0.121-0.087,0.236-0.178,0.316-0.296c0.042-0.063,0.074-0.121,0.085-0.2
	c0.005-0.085-0.021-0.154-0.059-0.223c-0.092-0.107-0.191-0.176-0.332-0.269h-0.02V136.557z"/>
<path fill="#FFFFFF" d="M111.118,136.529c0-0.002-0.002-0.002-0.002,0c-0.399,0.155-0.687,0.372-0.746,0.739
	c-0.029,0.199,0,0.422,0.07,0.585c0.039,0.21,0.068,0.351,0.141,0.493c0.278,0.628,0.77,1.186,1.258,1.613
	c0.063-0.383,0.161-0.723,0.378-1.017c0.148-0.195,0.372-0.398,0.766-0.441c0.066-0.007,0.143-0.017,0.221-0.011
	c0.064,0,0.14,0,0.209,0.021c0.043,0,0.068,0.07,0.141,0.07c0.014,0,0.069,0.07,0.14,0.061c0.015-0.005-0.008-0.042-0.016-0.066
	c-0.027-0.068-0.066-0.145-0.09-0.206c-0.384-0.063-0.755-0.141-1.092-0.246c-0.502-0.161-0.952-0.343-1.319-0.605
	c-0.122-0.089-0.239-0.182-0.318-0.295c-0.046-0.064-0.075-0.122-0.082-0.209c-0.003-0.08,0.016-0.15,0.056-0.215
	c0.032-0.084,0.186-0.225,0.258-0.271H111.118z"/>
<path fill="#2A2A2A" d="M111.638,129.383c-0.034-0.396,0.746-0.08,1.054-0.182c0.089,0.384-0.146,0.483-0.21,0.731
	c-0.677,0.138-0.412-0.496-0.831-0.55H111.638z"/>
<path fill="#2A2A2A" d="M115.509,129.22c0.352,0,0.703,0,1.05,0c-0.248,0.274-0.182,0.817-0.841,0.731
	c-0.162-0.165-0.223-0.442-0.223-0.731H115.509z"/>
<path fill="#2A2A2A" d="M115.451,132.375c-0.141,0.349-0.607,0.609-1.166,0.609c-0.572,0-1.053-0.274-1.174-0.639
	c-0.063,0.021-0.096,0.054-0.096,0.137c0,0.347,0.561,1.115,1.26,1.144c0.685,0,1.238-0.83,1.238-1.144
	c-0.022-0.033-0.018-0.104-0.088-0.105L115.451,132.375L115.451,132.375z"/>
<ellipse fill="#EDEEF2" cx="118.018" cy="129.72" rx="0.629" ry="0.769"/>
<path fill="#2A2A2A" d="M119.279,129.781c0.412,0.143,0.797,0.209,1.115,0.205c-0.034-0.116-0.059-0.236-0.079-0.359
	c-0.083-0.048-0.18-0.096-0.302-0.149c0.045-0.099,0.141-0.169,0.263-0.23c-0.15-0.385-0.348-0.635-0.613-0.686
	c0.109-0.715,1.078-0.684,1.389-1.217c-0.588,0.015-0.901-0.233-1.04-0.609c-1.425-3.795-3.072-7.534-10.076-5.781
	c-2.044,1.655-2.024,5.121-3.123,7.604c0.989,1.845-0.167,4.618,2.065,5.778c0-0.543-0.936-1.77,0-2.125
	c0.746,0.617-0.559,2.1,0.716,0.91c-0.315,0.779-0.562,1.749,0.319,2.128c0.003-0.808-0.194-1.791,0.695-1.822
	c0.405,0.814-0.375,3.358,1.031,2.734c-0.513-0.258-0.744-0.768-0.693-1.52c0.707-0.611,0.714,0.139,1.35,0.28
	c-1.764-2.709-3.844-5.657-1.738-9.433c2.18,1.473,4.22,3.011,6.917,3.957c-0.251,1.195-0.719,2.203-1.038,3.357
	c0.68,0.072,0.688-0.409,1.038-0.607c0.604,1.45-2.529,4.9,0.321,5.475c-0.271-0.068-0.406-0.25-0.346-0.609
	c0.465,0.424,1.986,0.424,2.466,0c0.479,0.696-0.897,1.119,0,1.217c0.313-0.366,0.866-4.905,0.563-7.661
	c-0.599,0.074-1.143-0.068-1.222-0.843h0.022V129.781L119.279,129.781z"/>
<g>
	<g>
		<g>
			<path fill="#2A2A2A" d="M58.358,47.647l-3.901,12.141L50.62,47.836v-0.158c-3.499,0.908-5.597,3.923-5.597,7.551v7.665
				c0,4.329,3.569,8.247,7.909,8.247h3.594c4.375,0,7.395-3.918,7.395-8.247V55.23c0-3.685-2.241-6.693-5.529-7.583H58.358
				L58.358,47.647z"/>
		</g>
		<g>
			<path fill="#2A2A2A" d="M58.257,70.653l-7.639-0.191v0.158c-3.499-0.908-5.597-3.922-5.597-7.55v-7.667
				c0-4.349,3.569-8.057,7.908-8.057h3.595c4.374,0,7.395,3.708,7.395,8.057v7.667c0,3.662-2.31,6.741-5.669,7.583H58.257z"/>
		</g>
	</g>
</g>
<path fill="#2A2A2A" d="M57.915,46.555c0,0.832-0.461,1.489-1.027,1.489h-4.857c-0.567,0-1.027-0.66-1.027-1.489l0,0
	c0-0.828,0.46-1.486,1.027-1.486h4.857c0.567-0.032,1.011,0.668,1.011,1.486H57.915z"/>
<g>
	<path fill="#ECE6CD" d="M52.116,37.879c0.003-0.032,0.008-0.068,0.013-0.102c-0.085,0.004-0.162,0.058-0.225,0.135
		c0.055-0.025,0.159-0.025,0.228-0.033H52.116z"/>
</g>
<path fill="#2A2A2A" d="M53.426,38.074c-0.369,0.177-2.198,0.215-2.431-0.376c0.744-0.438,1.976-0.09,2.464,0.376H53.426z"/>
<path fill="#2A2A2A" d="M58.097,38.074c-0.983-0.112-1.604,0.139-2.428,0.21c0.056-0.747,2.342-1.306,2.414-0.21H58.097z"/>
<path fill="#2A2A2A" d="M51.932,38.83c-0.032-0.411,0.663-0.086,0.935-0.192c0.078,0.396-0.129,0.5-0.188,0.757
	c-0.6,0.171-0.408-0.458-0.758-0.567h0.011V38.83z"/>
<path fill="#2A2A2A" d="M56.229,38.641c0.311,0,0.631,0,0.91,0c-0.218,0.282-0.161,0.845-0.746,0.757
	c-0.122-0.179-0.201-0.46-0.129-0.757H56.229z"/>
<path fill="#2A2A2A" d="M55.981,41.896c-0.055,0.334-0.491,0.711-1.094,0.906c-0.614,0.201-1.2,0.145-1.426-0.114
	c-0.063,0.034-0.089,0.079-0.068,0.144c0.083,0.279,0.91,0.769,1.608,0.508c0.735-0.24,1.112-1.115,1.031-1.375
	C56.04,41.948,55.981,41.878,55.981,41.896z"/>
<ellipse fill="none" stroke="#2A2A2A" stroke-width="0.1605" stroke-miterlimit="10" cx="114.116" cy="9.044" rx="4.357" ry="6.522"/>
<path fill="#2A2A2A" d="M58.658,39.704c0.084,0,0.14,0,0.211,0c2.343-8.978-11.705-9.27-8.642,0.581
	c-0.078-2.668-0.032-5.201,2.575-4.912c0.652,0.56,0.49,2.029,1.75,1.889c0.841-0.083,0.803-1.673,1.715-1.889
	c1.796-0.428,2.24,1.68,2.38,4.306c-0.005,0.03-0.005,0.03-0.005,0.025H58.658z"/>
<ellipse fill="none" stroke="#2A2A2A" stroke-width="0.1605" stroke-miterlimit="10" cx="172.054" cy="40.824" rx="4.358" ry="6.522"/>
<ellipse fill="none" stroke="#2A2A2A" stroke-width="0.1605" stroke-miterlimit="10" cx="114.459" cy="61.885" rx="6.625" ry="8.732"/>
<ellipse fill="none" stroke="#2A2A2A" stroke-width="0.1605" stroke-miterlimit="10" cx="172.046" cy="95.737" rx="4.358" ry="6.523"/>
<ellipse fill="none" stroke="#2A2A2A" stroke-width="0.1762" stroke-miterlimit="10" cx="114.174" cy="129.25" rx="4.473" ry="6.551"/>
<ellipse fill="none" stroke="#2A2A2A" stroke-width="0.1605" stroke-miterlimit="10" cx="54.667" cy="97.262" rx="5.466" ry="6.512"/>
<ellipse fill="none" stroke="#2A2A2A" stroke-width="0.1605" stroke-miterlimit="10" cx="54.459" cy="38.691" rx="4.358" ry="5.744"/>
</svg>
