<?xml version="1.0" encoding="utf-8"?>
<!-- Generator: Adobe Illustrator 15.1.0, SVG Export Plug-In . SVG Version: 6.00 Build 0)  -->
<!DOCTYPE svg PUBLIC "-//W3C//DTD SVG 1.1//EN" "http://www.w3.org/Graphics/SVG/1.1/DTD/svg11.dtd">
<svg version="1.1" xmlns="http://www.w3.org/2000/svg" xmlns:xlink="http://www.w3.org/1999/xlink" x="0px" y="0px"
	 width="953.069px" height="243.148px" viewBox="0 0 953.069 243.148" enable-background="new 0 0 953.069 243.148"
	 xml:space="preserve">
<g id="Layer_2" display="none">
	<rect x="-38" y="-37.046" display="inline" fill="#333333" width="1072" height="369"/>
</g>
<g id="Layer_1">
	<g opacity="0.14">
		<path fill-rule="evenodd" clip-rule="evenodd" fill="#FFFFFF" d="M37.455,23.849c3.664-0.607,4.599,3.125,7.059,3.591
			c2.346,0.443,3.26-0.79,5.091-0.479c1.471,0.25,2.81,1.453,3.355,2.753c0.403,0.963,0.323,2.132,0.81,3.231
			c0.348,0.786,0.936,1.581,1.62,2.035c1.122,0.746,2.333,0.76,3.124,1.316c1.412,0.994,2.15,2.528,1.967,4.548
			c-0.163,1.802-1.443,2.495-0.926,5.027c0.34,1.66,1.984,2.46,2.43,4.429c1.054,4.646-3.402,4.836-4.396,7.899
			c-0.506,1.562,0.219,3.311-0.231,5.027c-0.36,1.378-1.418,2.375-2.43,2.872c-1.289,0.633-3.013,0.261-4.396,0.838
			c-3.391,1.412-2.43,6.255-7.405,5.745c-1.672-0.171-2.298-1.518-3.934-1.796c-2.832-0.48-3.535,1.521-5.786,1.796
			c-5.076,0.621-4.32-4.966-7.867-5.984c-1.707-0.49-3.006-0.009-4.166-0.599c-0.86-0.438-2.02-1.748-2.313-2.872
			c-0.454-1.731,0.165-3.517-0.116-4.669c-0.093-0.379-0.289-0.742-0.463-1.076c-1.063-2.047-4.988-3.039-4.05-7.182
			c0.488-2.156,2.771-2.764,2.546-5.984c-0.084-1.199-0.89-1.965-1.042-3.352c-0.636-5.77,5.141-4.514,6.711-7.779
			c0.611-1.271,0.407-2.641,0.926-3.711c0.529-1.092,1.816-2.266,3.125-2.514c2.11-0.398,2.828,0.862,5.09,0.479
			C34.433,26.991,34.39,24.356,37.455,23.849z M47.636,37.492c-4.541,4.519-8.88,9.247-13.422,13.765
			c-2.054-1.864-3.75-4.099-5.9-5.864c-0.598,0.795-1.252,1.295-2.083,2.154c-0.256,0.266-2.096,1.947-2.083,2.273
			c0.019,0.439,2.138,2.093,2.547,2.515c2.557,2.645,5.313,5.576,7.404,7.779c6.084-5.994,12.024-12.139,17.818-18.433
			C50.405,40.375,49.247,38.7,47.636,37.492z"/>
	</g>
	<g opacity="0.14">
		<path fill-rule="evenodd" clip-rule="evenodd" fill="#FFFFFF" d="M777.085,67.449c-0.297,1.344-0.744,2.558-1.05,3.894
			c-2.744-0.878-6.668-1.117-8.666,0.451c-0.974,0.765-1.429,1.734-1.837,2.934c3.15,0.133,6.586,0.02,9.846,0.057
			c-0.175,0.79-0.364,1.568-0.524,2.369c-3.238,0-6.477,0-9.716,0c-0.152,0.414-0.022,1.072-0.065,1.58c3.151,0,6.302,0,9.453,0
			c-0.157,0.807-0.348,1.583-0.525,2.37c-2.845,0-5.689,0-8.534,0c0.572,3.609,5.644,5.564,10.109,3.78
			c0.333,1.368,0.879,2.555,1.181,3.949c-3.586,1.521-8.877,1-11.881-0.451c-3.101-1.499-5.355-4.006-6.17-7.278
			c-1.16,0-2.32,0-3.479,0c0.122-0.836,0.349-1.581,0.525-2.37c0.853,0,1.707,0,2.56,0c0.121-0.441,0.057-1.042,0.132-1.523
			c-0.679-0.131-1.641-0.019-2.429-0.057c0.15-0.811,0.332-1.594,0.524-2.369c0.745,0,1.488,0,2.232,0
			c1.42-4.607,4.876-7.845,11.159-8.237C772.558,66.381,774.962,66.852,777.085,67.449z"/>
	</g>
	<g opacity="0.14">
		<path fill-rule="evenodd" clip-rule="evenodd" fill="#FFFFFF" d="M933.009,37.499c-6.12,9.789-14.111,18.034-24.192,24.481
			c-9.895,6.326-22.327,11.523-38.016,10.654c-26.828-1.484-42.929-19.089-56.16-34.847c12.375-15.377,29.168-29.343,54.72-31.104
			C900.094,4.564,919.248,21.011,933.009,37.499z M854.097,28.57c-1.218,2.23-2.198,4.278-2.592,8.354
			c-1.024,10.589,4.668,18.891,11.232,22.752c14.544,8.555,33.031-1.486,34.56-17.28c1.554-16.052-11.021-27.311-26.208-25.344
			C862.868,18.116,856.489,24.191,854.097,28.57z"/>
		<path fill-rule="evenodd" clip-rule="evenodd" fill="#FFFFFF" d="M873.105,26.843c6.14-0.68,11.403,3.155,13.247,7.2
			c4.846,10.625-6.04,22.823-17.567,17.567c-4.934-2.25-10.077-9.365-6.336-17.567C863.908,30.842,866.943,27.525,873.105,26.843z"
			/>
	</g>
	<g opacity="0.14">
		<path fill-rule="evenodd" clip-rule="evenodd" fill="#FFFFFF" d="M670.049,74.162c6.717,3.043,13.344,9.768,11.065,19.131
			c-0.18,0.738-0.485,1.72-0.849,2.6c-0.307,0.744-1.076,1.616-1.086,2.291c-0.026,1.919,1.592,4.388,2.492,5.881
			c1.074,1.78,2.378,3.103,3.008,4.566c-5.611-0.038-10.898-0.507-15.503-1.891c-13.212,5.261-25.925,2.047-30.993-6.938
			c-2.865,0.343-5.51,0.387-7.934,0.139c-5.766,4.247-12.943,7.553-20.789,10.413c-0.289-0.921,0.42-2.381,0.822-3.822
			c0.379-1.354,0.651-2.703,0.944-4.194c0.509-2.59,1.667-6.433,0.634-9.224c-0.39-1.055-1.937-2.021-2.713-2.864
			c-2.488-2.702-4.736-6.206-5.646-11.299c-2.697-15.099,10.35-28.043,25.271-31.693c11.288-2.762,20.891-1.073,28.491,3.161
			C665.016,54.737,671.422,62.934,670.049,74.162z M623.853,97.186c1.685-1.054,3.353-3.075,5.134-3.513
			c1.951-0.479,4.448,0.063,6.287-0.03c7.522-0.379,13.644-2.338,18.465-5.631c5.441-3.716,10.592-9.925,9.859-17.999
			c-1.35-14.877-18.773-20.154-32.691-16.812c-11.356,2.726-21.879,11.874-21.104,22.563c0.567,7.834,4.696,10.698,9.138,14.379
			c-0.09,3.509-0.449,6.836-0.848,10.138C620.234,99.318,621.934,98.387,623.853,97.186z M673.344,97.611
			c1.751-2.901,3.553-6.198,2.465-10.416c-0.991-3.838-4.021-6.018-6.678-7.616c-0.232,0.03-0.287-0.176-0.568-0.078
			c-4,9.192-11.383,16.129-24.445,19.281c3.965,4.988,10.283,6.918,18.963,4.801c1.719-0.419,3.5-1.664,5.067-1.749
			c1.196-0.064,2.548,0.849,3.708,1.115c1.577,0.362,2.896,0.38,4.189,0.681C675.054,101.746,674.061,99.863,673.344,97.611z"/>
	</g>
	<ellipse opacity="0.14" fill="#FFFFFF" cx="115.596" cy="180.523" rx="21.956" ry="21.19"/>
	<path id="blank-file-2-icon" opacity="0.14" fill="#FFFFFF" d="M914.4,158.256v7.834h6.501v22.498h-19.334v-30.332H914.4
		 M916.293,154.601h-17.754v37.642h25.391v-28.437L916.293,154.601z"/>
</g>
</svg>
