<?xml version="1.0" encoding="utf-8"?>
<!-- Generator: Adobe Illustrator 15.1.0, SVG Export Plug-In . SVG Version: 6.00 Build 0)  -->
<!DOCTYPE svg PUBLIC "-//W3C//DTD SVG 1.1//EN" "http://www.w3.org/Graphics/SVG/1.1/DTD/svg11.dtd">
<svg version="1.1" id="Layer_1" xmlns="http://www.w3.org/2000/svg" xmlns:xlink="http://www.w3.org/1999/xlink" x="0px" y="0px"
	 width="227px" height="160px" viewBox="-16 33.5 227 160" enable-background="new -16 33.5 227 160" xml:space="preserve">
<rect x="90.002" y="123.138" fill="#2A2A2A" width="22.829" height="34.856"/>
<path fill="#2A2A2A" d="M115.8,98.978c-0.66,1.876-1.848-0.665-3.223,0c-0.462-4.848,2.584-5.669,3.223-9.248
	c-0.923-0.821-2.832,2.472-3.762,3.702c-0.803-2.181,2.53-4.895,2.694-8.021c-2.639,0.016-0.682-1.763-0.538-4.933
	c-0.242-0.918-0.693,0.243-1.617,0c0.138-5.089,0.032-9.899-2.15-12.333c-1.105,7.157-11.026,7.512-12.912,11.719
	c-1.283,1.418-4.834,0.226-7.001,0.613c-2.232,1.358-3.091,4.27-2.684,8.596c-1.44-0.826-0.913-3.894-2.166-4.934
	c-2.112,5.401,2.948,8.096,3.195,12.945c-1.683-0.742-3.354-1.499-4.845-2.466c0.093-0.72,0.989-0.519,1.616-0.613
	c-1.732-1.724-4.261-2.518-4.833-5.554c0.423,0,0.483,0.74,0.979,0.74c-0.011-2.665-2.689-2.277-2.701-4.937
	c2.717,1.068-0.671-2.639-0.539-4.317c1.53,0.49,1.398-0.874,2.695-0.616c-1.38-17.84,11.852-34.423,24.752-24.052
	c15.34,1.471,15.713,28.969,8.597,40.705c0.065,1.386,0.462,2.368,1.199,3.009h0.021V98.978z"/>
<path fill="#2A2A2A" d="M81.89,80.046c4.532,6.138,5.147,16.696,11.538,20.62c0,1.967,0,3.928,0,5.884
	c-3.382,0.639-4.268-2.752-6.017-5.392c-3.024-4.55-7.704-5.491-8.16-10.294c-0.297-3.82,2.409-6.275,2.65-10.818H81.89z"/>
<path fill="#2A2A2A" d="M115.888,80.154c2.244,2.452,3.195,6.379,2.948,11.78c-5.026,3.907-6.896,11.42-13.326,13.724
	c-1.6-6.63,2.271-7.191,4.735-10.785c3.135-4.641,3.322-10.531,5.533-14.719H115.888z"/>
<path fill="#2A2A2A" d="M104.752,95.425c0,1.065-2.034,3.845-4.561,3.845c-2.506,0-4.541-2.78-4.541-3.845c0-1.058,2.023,0,4.664,0
	c2.396-0.03,4.453-1.015,4.453,0H104.752z"/>
<path fill="#2A2A2A" d="M112.483,111.271l-11.455,42.599l-11.24-41.932v-0.549c-11.22,3.182-20.194,13.758-20.194,26.489v26.887
	c0,15.217,11.893,28.229,25.801,28.251h11.521c13.908,0,23.315-12.968,23.315-28.251v-26.887
	c-0.076-12.871-7.025-23.43-17.799-26.606H112.483z"/>
<path fill="#2A2A2A" d="M97.894,115.793c-0.654-0.28-1.336-0.427-1.997-0.693c-1.902-0.77-3.585-1.817-5.043-3.068
	c-0.946-0.812-1.891-1.801-2.375-3.125c-0.264-0.704-0.353-1.653-0.078-2.399c0.236-0.677,0.677-1.172,1.144-1.618
	c0,0,0.011-0.011,0-0.011c-1.458,0.715-2.349,2.133-2.645,4.174c-0.166,1.037-0.105,2.214,0,3.261
	c0.115,0.979,0.247,1.964,0.483,2.898c0.863,3.437,2.458,6.141,3.932,8.84c0.252-0.187,6.522-8.04,6.522-8.26H97.894z"/>
<path fill="#2A2A2A" d="M103.365,115.137c0.654-0.277,1.338-0.43,1.997-0.688c1.892-0.773,3.591-1.82,5.043-3.07
	c0.939-0.811,1.892-1.797,2.381-3.125c0.259-0.698,0.34-1.65,0.077-2.398c-0.254-0.676-0.693-1.17-1.145-1.616
	c-0.011,0-0.011-0.011,0-0.016c1.453,0.736,2.453,2.208,2.696,4.17c0.153,0.981,0,2.213-0.028,3.261
	c-0.116,1.043-0.302,1.994-0.534,2.902c-0.853,3.402-2.376,6.25-4.015,8.835c-0.148-0.259-6.577-8.114-6.577-8.26h0.104V115.137z"/>
<path fill="#2A2A2A" d="M97.2,82.004c-1.297,0.613-7.71,0.756-8.523-1.328c2.606-1.735,6.962-0.258,8.437,1.328H97.2z"/>
<path fill="#2A2A2A" d="M113.589,82.004c-3.454-0.398-5.631,0.493-8.53,0.734c0.203-2.567,8.267-4.534,8.509-0.734H113.589z"/>
<path fill="#2A2A2A" d="M91.965,84.658c-0.115-1.436,2.321-0.305,3.278-0.666c0.275,1.386-0.452,1.757-0.661,2.654
	C92.472,87.292,93.187,84.836,91.965,84.658L91.965,84.658z"/>
<path fill="#2A2A2A" d="M107.023,83.992c1.094,0,2.222,0,3.19,0c-0.771,0.987-0.557,2.964-2.618,2.654
	c-0.425-0.581-0.662-1.56-0.662-2.654H107.023z"/>
<path fill="none" stroke="#2A2A2A" stroke-width="0.5631" stroke-miterlimit="10" d="M115.14,79.881
	c0,12.635-6.841,22.877-15.282,22.877c-8.454,0-15.294-10.242-15.294-22.877c0-12.635,6.84-22.878,15.294-22.878
	C108.299,57.003,115.14,67.247,115.14,79.881z"/>
<g>
	<path fill="#F7F6D2" stroke="#EDEEF2" stroke-width="0.3693" stroke-miterlimit="10" d="M35.62,124.917
		c0.456,0.431,1.063,0.687,1.5,0.12l4.958-6.438c0.437-0.565,0.292-1.423-0.162-1.853l-2.43-2.295l-1.765-1.667l-1.896-0.771
		l-5.55,7.855L35.62,124.917z"/>
	<path fill="#F7F6D2" stroke="#EDEEF2" stroke-width="0.4461" stroke-miterlimit="10" d="M36.947,112.437l-4.342-4.084
		c-0.464-0.436-1.195-0.327-1.595,0.199l-0.041,0.049c-0.401,0.525-0.33,1.276,0.134,1.71l4.27,4.016"/>
	<path fill="#F7F6D2" stroke="#EDEEF2" stroke-width="0.4461" stroke-miterlimit="10" d="M35.154,114.588l-4.475-4.208
		c-0.466-0.437-1.057-0.21-1.46,0.316l-0.038,0.049c-0.403,0.524-0.469,1.157-0.005,1.591l4.476,4.21"/>
	<path fill="#F7F6D2" stroke="#EDEEF2" stroke-width="0.4461" stroke-miterlimit="10" d="M33.396,116.815l-4.476-4.207
		c-0.463-0.436-1.051-0.216-1.454,0.311l-0.038,0.049c-0.404,0.524-0.474,1.164-0.01,1.598l4.476,4.209"/>
	<path fill="#F7F6D2" stroke="#EDEEF2" stroke-width="0.4461" stroke-miterlimit="10" d="M32.044,118.618l-4.477-4.21
		c-0.464-0.437-1.045-0.224-1.448,0.304l-0.039,0.05c-0.402,0.526-0.263,0.89,0.201,1.327l4.476,4.207"/>
	<path fill="#F7F6D2" stroke="#EDEEF2" stroke-width="0.6657" stroke-miterlimit="10" d="M40.355,114.728l-0.482-3.297
		c-0.061-0.417-0.842-0.658-1.582-0.519l0.006,0.002c-0.739,0.139-1.104,0.591-1.044,1.007l0.563,3.852"/>
</g>
<path fill="#2A2A2A" d="M54.696,143.895c-1.172,1.305-0.911,3.469,0.58,4.831l6.942,6.347c1.492,1.363,3.648,1.408,4.819,0.104
	l1.814-2.023l20.301-22.631c1.171-1.306,0.913-3.468-0.58-4.832l-6.941-6.347c-1.491-1.362-3.649-1.408-4.82-0.102L54.696,143.895z"
	/>
<path fill="#2A2A2A" d="M45.602,117.931c-1.284-1.359-3.27-1.348-4.436,0.022l-5.428,6.387c-1.166,1.373-1.068,3.587,0.216,4.945
	l1.99,2.108l22.264,23.575c1.284,1.36,3.269,1.351,4.436-0.021l5.427-6.387c1.165-1.372,1.069-3.586-0.216-4.948L45.602,117.931z"/>
<g>
	<path fill="#F7F6D2" stroke="#EDEEF2" stroke-width="0.3693" stroke-miterlimit="10" d="M167.014,126.786
		c-0.456,0.431-1.063,0.687-1.499,0.119l-4.959-6.437c-0.437-0.565-0.292-1.423,0.162-1.853l2.431-2.295l1.764-1.667l1.896-0.77
		l5.551,7.854L167.014,126.786z"/>
	<path fill="#F7F6D2" stroke="#EDEEF2" stroke-width="0.4461" stroke-miterlimit="10" d="M165.686,114.306l4.344-4.084
		c0.463-0.435,1.194-0.327,1.595,0.199l0.04,0.049c0.401,0.525,0.329,1.275-0.134,1.71l-4.271,4.016"/>
	<path fill="#F7F6D2" stroke="#EDEEF2" stroke-width="0.4461" stroke-miterlimit="10" d="M167.479,116.457l4.475-4.208
		c0.466-0.437,1.057-0.211,1.46,0.316l0.038,0.049c0.403,0.524,0.469,1.157,0.004,1.591l-4.476,4.211"/>
	<path fill="#F7F6D2" stroke="#EDEEF2" stroke-width="0.4461" stroke-miterlimit="10" d="M169.237,118.685l4.477-4.207
		c0.464-0.437,1.051-0.217,1.453,0.311l0.039,0.049c0.403,0.524,0.473,1.164,0.01,1.599l-4.477,4.209"/>
	<path fill="#F7F6D2" stroke="#EDEEF2" stroke-width="0.4461" stroke-miterlimit="10" d="M170.589,120.486l4.477-4.209
		c0.464-0.437,1.046-0.224,1.448,0.304l0.039,0.05c0.402,0.525,0.263,0.889-0.201,1.327l-4.476,4.207"/>
	<path fill="#F7F6D2" stroke="#EDEEF2" stroke-width="0.6657" stroke-miterlimit="10" d="M162.278,116.597l0.482-3.297
		c0.061-0.417,0.842-0.658,1.582-0.519l-0.007,0.001c0.739,0.139,1.104,0.591,1.044,1.008l-0.563,3.852"/>
</g>
<path fill="#2A2A2A" d="M147.938,145.764c1.172,1.305,0.911,3.469-0.579,4.831l-6.943,6.347c-1.491,1.363-3.647,1.408-4.818,0.104
	l-1.813-2.023l-20.301-22.632c-1.172-1.305-0.913-3.468,0.579-4.832l6.942-6.346c1.49-1.362,3.648-1.409,4.819-0.102
	L147.938,145.764z"/>
<path fill="#2A2A2A" d="M156.097,119.8c1.284-1.36,3.271-1.349,4.437,0.022l5.428,6.386c1.166,1.374,1.068,3.588-0.216,4.946
	l-1.99,2.108l-22.265,23.575c-1.283,1.36-3.269,1.351-4.435-0.021l-5.428-6.387c-1.165-1.373-1.07-3.587,0.216-4.948L156.097,119.8z
	"/>
<g>
	<path fill="#DFE4E7" d="M57.227,101.612c0.31,0.98-0.228,1.495-1.194,1.145l-4.916-1.784c-0.966-0.351-2.441-0.149-3.278,0.448
		l-4.257,3.039c-0.836,0.597-1.493,0.246-1.458-0.782l0.177-5.228c0.035-1.027-0.613-2.368-1.439-2.979l-4.205-3.109
		c-0.827-0.611-0.695-1.344,0.293-1.628l5.026-1.446c0.988-0.285,2.063-1.315,2.388-2.29l1.658-4.96
		c0.326-0.975,1.063-1.076,1.639-0.224l2.929,4.333c0.575,0.852,1.887,1.556,2.915,1.564l5.23,0.044
		c1.028,0.008,1.352,0.679,0.719,1.489l-3.215,4.125c-0.632,0.811-0.896,2.276-0.587,3.256L57.227,101.612z"/>
</g>
<g>
	<path fill="#DFE4E7" d="M148.608,76.139c0.455-0.921,1.199-0.921,1.654,0l2.314,4.69c0.455,0.921,1.659,1.797,2.677,1.944
		l5.175,0.752c1.018,0.147,1.247,0.855,0.512,1.573l-3.746,3.65c-0.735,0.718-1.195,2.134-1.021,3.146l0.884,5.155
		c0.174,1.013-0.428,1.451-1.338,0.972l-4.629-2.434c-0.91-0.479-2.398-0.479-3.309,0l-4.629,2.434
		c-0.91,0.479-1.512,0.041-1.339-0.972l0.885-5.155c0.173-1.013-0.287-2.429-1.022-3.146l-3.746-3.65
		c-0.735-0.718-0.506-1.426,0.512-1.573l5.176-0.752c1.018-0.147,2.222-1.023,2.677-1.944L148.608,76.139z"/>
</g>
<g>
	<path fill="#DFE4E7" d="M87.849,37.052c0.455-0.921,1.199-0.921,1.654,0l2.314,4.691c0.455,0.921,1.659,1.797,2.677,1.944
		l5.175,0.752c1.018,0.147,1.247,0.855,0.512,1.573l-3.746,3.65c-0.736,0.718-1.196,2.134-1.022,3.146l0.884,5.155
		c0.174,1.013-0.429,1.45-1.338,0.972l-4.629-2.434c-0.91-0.478-2.399-0.478-3.309,0l-4.629,2.434
		c-0.91,0.478-1.512,0.041-1.338-0.972l0.884-5.155c0.174-1.013-0.286-2.429-1.022-3.146l-3.745-3.65
		c-0.736-0.718-0.506-1.426,0.511-1.573l5.175-0.752c1.018-0.147,2.222-1.023,2.677-1.944L87.849,37.052z"/>
</g>
</svg>
