<?xml version="1.0" encoding="utf-8"?>
<!-- Generator: Adobe Illustrator 15.1.0, SVG Export Plug-In . SVG Version: 6.00 Build 0)  -->
<!DOCTYPE svg PUBLIC "-//W3C//DTD SVG 1.1//EN" "http://www.w3.org/Graphics/SVG/1.1/DTD/svg11.dtd">
<svg version="1.1" id="Layer_1" xmlns="http://www.w3.org/2000/svg" xmlns:xlink="http://www.w3.org/1999/xlink" x="0px" y="0px"
	 width="227px" height="160px" viewBox="-56.5 -23 227 160" enable-background="new -56.5 -23 227 160" xml:space="preserve">
<path fill-rule="evenodd" clip-rule="evenodd" fill="#2A2A2A" d="M55.496-5.389c-39.862,0-72.176,31.853-72.176,71.145
	S15.634,136.9,55.496,136.9c39.861,0,72.176-31.853,72.176-71.145S95.357-5.389,55.496-5.389z M55.909,127.95
	c-35.078,0-63.515-28.029-63.515-62.607c0-34.576,28.437-62.606,63.515-62.606c35.079,0,63.515,28.03,63.515,62.606
	C119.424,99.921,90.987,127.95,55.909,127.95z"/>
<g>
	<path fill="#2A2A2A" d="M154.537,41.65c0.204,0.522,0.084,1.083-0.27,1.247l-15.332,4.097c-0.356,0.034-0.808-0.204-1.004-0.526
		l-2.434-3.575c-0.194-0.255-0.064-0.533,0.291-0.627l15.232-6.916c0.35-0.232,0.799-0.077,0.998,0.361L154.537,41.65z"/>
</g>
<path fill-rule="evenodd" clip-rule="evenodd" fill="#9DA54C" d="M114.749,122.259C114.763,122.425,114.549,122.343,114.749,122.259
	L114.749,122.259z"/>
<path fill-rule="evenodd" clip-rule="evenodd" fill="#9DA54C" d="M114.199,122.533C114.142,122.477,114.289,122.624,114.199,122.533
	L114.199,122.533z"/>
<path fill-rule="evenodd" clip-rule="evenodd" fill="#9DA54C" d="M113.649,122.672C113.812,122.254,114.378,122.82,113.649,122.672
	L113.649,122.672z"/>
<path fill-rule="evenodd" clip-rule="evenodd" fill="#9DA54C" d="M113.237,122.81c0.023-0.161,0.217-0.149,0.412-0.138
	C113.626,122.832,113.433,122.82,113.237,122.81z"/>
<path fill-rule="evenodd" clip-rule="evenodd" fill="#9DA54C" d="M113.374,125.146c0.004-0.134,0.168-0.106,0.275-0.138
	C113.645,125.143,113.48,125.115,113.374,125.146z"/>
<path fill-rule="evenodd" clip-rule="evenodd" fill="#9DA54C" d="M90.828,125.834C90.814,125.667,91.028,125.748,90.828,125.834
	L90.828,125.834z"/>
<line fill="none" stroke="#000000" stroke-width="0.8249" stroke-miterlimit="10" x1="55.909" y1="65.756" x2="106.789" y2="38.827"/>
<path fill-rule="evenodd" clip-rule="evenodd" fill="none" stroke="#2A2A2A" stroke-width="0.5499" stroke-miterlimit="10" d="
	M62.908,90.29c10.95-3.012,18.984-12.917,18.984-24.672c0-4.201-1.026-8.165-2.845-11.663"/>
<ellipse cx="55.919" cy="65.779" rx="0.436" ry="0.39"/>
<polyline fill="none" stroke="#2A2A2A" stroke-width="0.6417" stroke-miterlimit="10" points="60.103,76.458 63.542,91.823 
	71.222,126.118 "/>
<line fill="none" stroke="#2A2A2A" stroke-width="0.5859" stroke-miterlimit="10" x1="41.681" y1="126.792" x2="50.75" y2="76.046"/>
<line fill="none" stroke="#2A2A2A" stroke-width="0.6416" stroke-miterlimit="10" x1="99.385" y1="110.983" x2="72.4" y2="85.628"/>
<line fill="none" stroke="#2A2A2A" stroke-width="0.6195" stroke-miterlimit="10" x1="115.531" y1="88.331" x2="80.215" y2="75.946"/>
<line fill="none" stroke="#000000" stroke-width="0.167" stroke-miterlimit="10" x1="113.398" y1="63.209" x2="81.921" y2="64.381"/>
<g>
	<path fill="#2A2A2A" d="M68.258,82.622l-1.942,1.371l0.373,1.503l-1.148,0.812l-1.873-7.275l0.845-0.597l6.172,4.239l-1.164,0.822
		L68.258,82.622z M67.325,81.947l-2.131-1.538l-0.015,0.01l0.819,2.466L67.325,81.947z"/>
	<path fill="#2A2A2A" d="M69.296,77.995l1.556-1.916l-2.093-1.699l0.841-1.035l5.312,4.313l-0.841,1.035l-2.374-1.927l-1.556,1.916
		l2.374,1.927l-0.841,1.035l-5.311-4.312l0.84-1.036L69.296,77.995z"/>
	<path fill="#2A2A2A" d="M72.194,70.412l-0.944,1.992l1.361,0.645l0.909-1.918l1.05,0.497l-0.909,1.919l1.673,0.792l0.943-1.992
		l1.05,0.497l-1.515,3.198l-6.183-2.93l1.515-3.197L72.194,70.412z"/>
	<path fill="#2A2A2A" d="M77.305,67.198l-0.468,2.331l1.304,0.835l-0.276,1.379l-6.361-3.997l0.204-1.015l7.396-1.162l-0.28,1.396
		L77.305,67.198z M76.164,67.349l-2.605,0.347l-0.004,0.019l2.289,1.228L76.164,67.349z"/>
	<path fill="#2A2A2A" d="M79.091,64.142l-6.821,0.522l-0.146-1.9c-0.074-0.977,0.189-1.795,0.791-2.453
		c0.602-0.659,1.394-1.026,2.377-1.102c0.971-0.074,1.805,0.173,2.5,0.741c0.696,0.568,1.081,1.335,1.154,2.301L79.091,64.142z
		 M73.325,63.245l4.506-0.345l-0.017-0.218c-0.116-1.514-0.926-2.213-2.427-2.098c-1.502,0.115-2.195,0.93-2.079,2.443
		L73.325,63.245z"/>
</g>
<g>
	<g>
		<path fill="#2A2A2A" d="M86.137,70.583c1.177,0.136,1.765,0.21,2.941,0.366c0.237-1.149,0.355-1.729,0.593-2.903
			c0.636,0.052,0.955,0.078,1.591,0.136c-0.603,3.063-0.904,4.554-1.507,7.457c-0.636-0.141-0.954-0.207-1.59-0.342
			c0.27-1.261,0.404-1.901,0.674-3.194c-1.177-0.18-1.766-0.262-2.942-0.421c-0.27,1.225-0.401,1.829-0.671,3.022
			c-0.636-0.123-0.957-0.184-1.593-0.3c0.602-2.588,0.905-3.922,1.507-6.67c0.637,0.035,0.953,0.054,1.59,0.095
			C86.492,68.943,86.374,69.493,86.137,70.583z"/>
		<path fill="#2A2A2A" d="M95.737,75.292c-1.133-0.258-1.697-0.381-2.83-0.619c-0.396,0.594-0.591,0.882-0.986,1.455
			c-0.67-0.156-1.004-0.229-1.675-0.379c1.891-2.722,2.832-4.204,4.722-7.407c0.493,0.055,0.74,0.082,1.233,0.141
			c0.619,3.554,0.928,5.375,1.547,9.109c-0.68-0.183-1.02-0.271-1.699-0.447C95.925,76.399,95.861,76.029,95.737,75.292z
			 M95.536,73.764c-0.188-1.256-0.281-1.264-0.469-3.264c-0.009,0-0.014,0-0.022,0c-0.577,1-0.865,1.738-1.442,2.808
			C94.377,73.456,94.763,73.605,95.536,73.764z"/>
		<path fill="#2A2A2A" d="M101.328,69.409c-0.5,2.973-0.751,4.434-1.251,7.296c0.899,0.233,1.352,0.353,2.251,0.598
			c-0.103,0.605-0.153,0.906-0.256,1.507c-1.534-0.452-2.303-0.669-3.838-1.086c0.602-3.339,0.902-5.051,1.504-8.549
			C100.374,69.266,100.692,69.313,101.328,69.409z"/>
		<path fill="#2A2A2A" d="M107.878,72.248c-0.982-0.211-1.477-0.313-2.459-0.51c-0.133,0.832-0.198,1.245-0.331,2.068
			c0.921,0.211,1.382,0.318,2.304,0.542c-0.103,0.655-0.149,0.984-0.252,1.635c-0.922-0.243-1.385-0.363-2.307-0.594
			c-0.265,1.636-0.396,2.446-0.661,4.052c-0.637-0.195-0.955-0.291-1.592-0.48c0.603-3.563,0.903-5.384,1.506-9.107
			c1.619,0.272,2.427,0.417,4.046,0.729C108.029,71.251,107.98,71.585,107.878,72.248z"/>
	</g>
</g>
<g>
	<g>
		<path fill="#2A2A2A" d="M88.596,53.723c-0.971,0.229-1.457,0.339-2.428,0.549c0.169,0.59,0.252,0.888,0.421,1.489
			c0.911-0.168,1.369-0.258,2.28-0.445c0.131,0.484,0.195,0.729,0.326,1.22c-0.912,0.165-1.367,0.242-2.278,0.39
			c0.339,1.219,0.508,1.84,0.847,3.103c-0.629,0.063-0.943,0.094-1.572,0.148c-0.77-2.78-1.154-4.114-1.923-6.668
			c1.6-0.36,2.4-0.555,4.001-0.971C88.4,53.008,88.465,53.245,88.596,53.723z"/>
		<path fill="#2A2A2A" d="M90.33,56.624c-0.46-1.771-0.69-2.637-1.15-4.328c0.629-0.168,0.943-0.255,1.572-0.432
			c0.431,1.63,0.646,2.463,1.076,4.164c0.058,0.229,0.114,0.429,0.168,0.599c0.055,0.171,0.139,0.363,0.252,0.58
			c0.113,0.217,0.235,0.393,0.363,0.52c0.129,0.128,0.299,0.227,0.51,0.3c0.211,0.072,0.444,0.088,0.701,0.043
			c0.258-0.045,0.465-0.139,0.625-0.279c0.159-0.14,0.269-0.296,0.326-0.465c0.057-0.167,0.085-0.375,0.086-0.625
			c0-0.251-0.018-0.467-0.051-0.652c-0.032-0.183-0.076-0.395-0.135-0.636c-0.431-1.789-0.646-2.666-1.076-4.384
			c0.629-0.192,0.943-0.291,1.572-0.492c0.46,1.889,0.69,2.853,1.15,4.821c0.251,1.076,0.209,2.003-0.127,2.736
			c-0.337,0.733-1.018,1.177-2.045,1.333c-1.026,0.156-1.857-0.048-2.49-0.569C91.024,58.336,90.581,57.592,90.33,56.624z"/>
		<path fill="#2A2A2A" d="M97.854,49.648c0.638,2.745,0.959,4.155,1.598,7.054c0.891-0.203,1.333-0.308,2.224-0.528
			c0.131,0.614,0.196,0.919,0.327,1.54c-1.521,0.34-2.281,0.497-3.801,0.788c-0.769-3.442-1.152-5.106-1.921-8.325
			C96.91,49.97,97.226,49.864,97.854,49.648z"/>
		<path fill="#2A2A2A" d="M102.155,48.094c0.639,2.941,0.959,4.451,1.598,7.547c0.891-0.236,1.333-0.359,2.224-0.612
			c0.131,0.654,0.196,0.983,0.327,1.644c-1.52,0.397-2.279,0.582-3.799,0.929c-0.77-3.681-1.153-5.465-1.923-8.921
			C101.212,48.45,101.525,48.333,102.155,48.094z"/>
	</g>
</g>
<g>
	<g>
		<path fill="#2A2A2A" d="M84.551,81.981c-0.488,0.263-0.734,0.393-1.223,0.647c-0.061-0.492-0.306-0.826-0.729-0.994
			c-0.229-0.091-0.476-0.099-0.742-0.022c-0.268,0.076-0.47,0.221-0.604,0.431c-0.092,0.146-0.122,0.298-0.09,0.452
			c0.032,0.153,0.109,0.301,0.23,0.441s0.261,0.291,0.414,0.45c0.154,0.16,0.299,0.335,0.434,0.522
			c0.133,0.186,0.242,0.384,0.322,0.594c0.08,0.211,0.1,0.456,0.058,0.731s-0.155,0.561-0.345,0.851
			c-0.426,0.653-0.985,1.068-1.674,1.259c-0.688,0.191-1.394,0.111-2.115-0.213c-0.911-0.409-1.373-1.102-1.385-2.105
			c0.567-0.151,0.851-0.232,1.418-0.39c-0.069,0.292-0.045,0.575,0.074,0.849s0.32,0.471,0.604,0.595
			c0.277,0.121,0.563,0.136,0.849,0.034c0.285-0.101,0.513-0.274,0.68-0.525c0.237-0.356,0.179-0.741-0.146-1.133
			c-0.054-0.065-0.194-0.212-0.415-0.434c-0.399-0.401-0.65-0.788-0.75-1.148c-0.101-0.36-0.001-0.766,0.299-1.23
			c0.352-0.545,0.85-0.941,1.49-1.185c0.641-0.242,1.261-0.258,1.854-0.03c0.329,0.126,0.643,0.335,0.938,0.633
			C84.294,81.358,84.479,81.667,84.551,81.981z"/>
		<path fill="#2A2A2A" d="M87.271,82.421c-1.391,2.368-2.088,3.498-3.479,5.637c0.789,0.402,1.185,0.609,1.975,1.037
			c-0.284,0.446-0.427,0.665-0.711,1.102c-1.348-0.744-2.021-1.095-3.369-1.766c1.676-2.484,2.514-3.811,4.189-6.627
			C86.434,82.045,86.713,82.167,87.271,82.421z"/>
		<path fill="#2A2A2A" d="M91.774,93.041c-1.099,0.284-2.162,0.082-3.188-0.547c-1.025-0.628-1.656-1.458-1.893-2.515
			c-0.235-1.055-0.046-2.056,0.565-3.056c0.6-0.982,1.452-1.681,2.555-2.084c1.104-0.403,2.167-0.358,3.185,0.196
			c1.02,0.556,1.646,1.432,1.883,2.613c0.236,1.181,0.056,2.325-0.544,3.373C93.727,92.089,92.873,92.757,91.774,93.041z
			 M93.271,88.057c-0.124-0.726-0.483-1.258-1.078-1.59c-0.595-0.331-1.233-0.354-1.91-0.096c-0.679,0.259-1.195,0.684-1.547,1.268
			c-0.337,0.559-0.453,1.203-0.347,1.946s0.44,1.278,1.004,1.616c0.563,0.339,1.21,0.389,1.938,0.128
			c0.729-0.262,1.262-0.687,1.599-1.268C93.281,89.455,93.395,88.78,93.271,88.057z"/>
		<path fill="#2A2A2A" d="M97.927,88.195c-0.565,2.496-0.848,3.723-1.413,6.129c0.008,0.005,0.012,0.007,0.02,0.012
			c1.734-1.647,2.599-2.521,4.333-4.367c0.33,0.223,0.497,0.334,0.827,0.561c-0.572,2.652-0.859,3.956-1.432,6.516
			c0.008,0.006,0.014,0.011,0.021,0.017c1.703-1.646,2.558-2.52,4.261-4.358c0.585,0.43,0.876,0.648,1.461,1.092
			c-2.678,2.673-4.018,3.9-6.695,6.137c-0.41-0.322-0.611-0.481-1.021-0.797c0.525-2.343,0.788-3.534,1.313-5.957
			c-0.008-0.005-0.012-0.01-0.02-0.015c-1.635,1.642-2.452,2.421-4.086,3.888c-0.41-0.297-0.615-0.444-1.025-0.734
			c0.798-3.514,1.196-5.319,1.994-9.023C97.05,87.646,97.342,87.828,97.927,88.195z"/>
	</g>
</g>
<g>
	<path fill="#2A2A2A" d="M69.527,103.334l-0.145,0.765c-0.281-0.162-0.552-0.188-0.811-0.075c-0.14,0.06-0.244,0.16-0.311,0.302
		c-0.068,0.142-0.071,0.282-0.012,0.421c0.042,0.098,0.111,0.17,0.207,0.217c0.098,0.049,0.207,0.074,0.331,0.079
		c0.123,0.004,0.258,0.005,0.403,0.001c0.146-0.003,0.294,0.003,0.445,0.018c0.151,0.016,0.297,0.046,0.439,0.093
		c0.142,0.046,0.277,0.133,0.407,0.258s0.237,0.287,0.323,0.484c0.191,0.444,0.219,0.861,0.078,1.251
		c-0.14,0.388-0.43,0.679-0.871,0.869c-0.558,0.24-1.129,0.149-1.715-0.271l0.317-0.779c0.139,0.151,0.308,0.258,0.506,0.318
		c0.199,0.062,0.386,0.055,0.56-0.021c0.171-0.073,0.28-0.194,0.329-0.363c0.049-0.168,0.036-0.339-0.039-0.513
		c-0.106-0.248-0.331-0.378-0.672-0.392c-0.057-0.004-0.189-0.001-0.397,0.006c-0.378,0.008-0.688-0.042-0.928-0.147
		c-0.24-0.104-0.429-0.313-0.564-0.628c-0.158-0.367-0.17-0.73-0.037-1.089c0.135-0.358,0.385-0.617,0.748-0.774
		c0.201-0.087,0.438-0.135,0.712-0.146C69.105,103.207,69.338,103.246,69.527,103.334z"/>
	<path fill="#2A2A2A" d="M71.702,102.835l1.569,3.634l-0.853,0.369l-1.569-3.635l-0.883,0.382l-0.321-0.743l2.618-1.131l0.321,0.743
		L71.702,102.835z"/>
	<path fill="#2A2A2A" d="M76.02,104.187l-1.521,0.657l0.039,1.078l-0.9,0.389l-0.233-5.23l0.662-0.286l3.601,3.776l-0.911,0.394
		L76.02,104.187z M75.48,103.593l-1.232-1.354l-0.012,0.005l0.205,1.799L75.48,103.593z"/>
	<path fill="#2A2A2A" d="M77.928,104.457l-1.94-4.493l0.615-0.266l3.626,2.063l0.012-0.005l-1.271-2.943l0.854-0.368l1.929,4.464
		l-0.615,0.266l-3.627-2.063l-0.012,0.005l1.284,2.973L77.928,104.457z"/>
	<path fill="#2A2A2A" d="M82.334,102.554l-1.891-4.377l1.219-0.526c0.627-0.271,1.226-0.283,1.796-0.036
		c0.571,0.248,0.993,0.688,1.266,1.317c0.27,0.623,0.295,1.229,0.078,1.815s-0.635,1.015-1.255,1.282L82.334,102.554z
		 M81.617,98.551l1.25,2.891l0.139-0.06c0.972-0.42,1.25-1.111,0.833-2.074c-0.417-0.964-1.11-1.236-2.082-0.816L81.617,98.551z"/>
	<path fill="#2A2A2A" d="M77.141,113.064l-1.891-4.377l1.063-0.459c0.426-0.184,0.791-0.23,1.097-0.141
		c0.306,0.092,0.55,0.346,0.729,0.764c0.074,0.17,0.112,0.348,0.116,0.532c0.004,0.184-0.04,0.345-0.133,0.48
		c0.263-0.063,0.503-0.015,0.723,0.143c0.22,0.158,0.386,0.369,0.5,0.632c0.177,0.41,0.183,0.775,0.015,1.096
		c-0.167,0.319-0.459,0.57-0.877,0.751L77.141,113.064z M76.399,109.003l0.491,1.139l0.104-0.045
		c0.222-0.095,0.361-0.206,0.422-0.331c0.062-0.124,0.045-0.296-0.048-0.513c-0.092-0.21-0.207-0.331-0.35-0.369
		c-0.143-0.037-0.313-0.014-0.51,0.072L76.399,109.003z M77.172,110.791l0.526,1.22l0.181-0.077
		c0.131-0.057,0.238-0.112,0.322-0.164c0.082-0.052,0.16-0.116,0.23-0.191c0.07-0.077,0.107-0.17,0.111-0.277
		c0.004-0.106-0.022-0.228-0.082-0.364c-0.046-0.107-0.105-0.192-0.175-0.253c-0.071-0.063-0.14-0.104-0.208-0.122
		c-0.067-0.018-0.15-0.02-0.248-0.002c-0.1,0.017-0.183,0.038-0.252,0.063s-0.158,0.062-0.268,0.108L77.172,110.791z"/>
	<path fill="#2A2A2A" d="M80.436,109.258l-2.381-1.782l0.992-0.429l1.424,1.189l0.178-1.881l0.999-0.432l-0.358,2.965l0.867,2.009
		l-0.853,0.368L80.436,109.258z"/>
</g>
<g>
	<g>
		<path fill="#2A2A2A" d="M49.846,110.963c-0.32,0.551-0.484,0.824-0.818,1.375c-0.211-0.558-0.516-0.836-0.927-0.836
			c-0.221,0-0.435,0.11-0.645,0.33c-0.21,0.221-0.346,0.492-0.403,0.816c-0.04,0.226-0.023,0.426,0.052,0.602
			s0.189,0.318,0.341,0.432c0.152,0.111,0.322,0.227,0.511,0.344c0.188,0.116,0.375,0.255,0.556,0.411
			c0.183,0.157,0.347,0.342,0.493,0.554c0.147,0.211,0.253,0.495,0.32,0.85c0.067,0.355,0.076,0.762,0.021,1.22
			c-0.124,1.035-0.456,1.876-1.019,2.519s-1.27,0.965-2.098,0.965c-1.046,0-1.771-0.661-2.113-1.983
			c0.504-0.502,0.751-0.755,1.238-1.257c0.031,0.414,0.15,0.766,0.36,1.053c0.21,0.288,0.477,0.433,0.794,0.433
			c0.31,0,0.581-0.145,0.811-0.433c0.229-0.287,0.371-0.634,0.431-1.038c0.085-0.576-0.109-1.019-0.536-1.335
			c-0.071-0.053-0.255-0.161-0.528-0.324c-0.498-0.297-0.846-0.663-1.043-1.072c-0.198-0.409-0.218-0.979-0.071-1.707
			c0.173-0.854,0.518-1.577,1.011-2.166s1.008-0.884,1.566-0.884c0.309,0,0.627,0.106,0.958,0.317
			C49.44,110.357,49.686,110.63,49.846,110.963z"/>
		<path fill="#2A2A2A" d="M52.959,111.5c-0.202,4-0.303,5-0.506,9c-0.637,0-0.957,0-1.594,0c0.295-4,0.442-5,0.736-9
			c-0.564,0-0.846,0-1.41,0c0.08,0,0.12-1,0.199-1c1.616,0,2.424,0,4.039,0c-0.022,0-0.032,1-0.054,1
			C53.805,111.5,53.523,111.5,52.959,111.5z"/>
		<path fill="#2A2A2A" d="M61.116,118.971c-0.652,1.048-1.594,1.572-2.769,1.572c-1.176,0-2.162-0.524-2.898-1.572
			s-1.052-2.314-1.01-3.799c0.042-1.457,0.423-2.712,1.082-3.764c0.659-1.053,1.437-1.579,2.394-1.579
			c0.956,0,1.771,0.526,2.516,1.579c0.746,1.052,1.232,2.307,1.392,3.764C61.984,116.656,61.769,117.923,61.116,118.971z
			 M59.521,112.796c-0.448-0.675-0.946-1.01-1.526-1.01c-0.581,0-1.058,0.335-1.45,1.01c-0.393,0.674-0.6,1.441-0.6,2.295
			c0,0.819,0.218,1.606,0.68,2.362c0.462,0.755,1.021,1.132,1.646,1.132c0.624,0,1.148-0.377,1.55-1.132s0.556-1.543,0.489-2.362
			C60.24,114.237,59.968,113.47,59.521,112.796z"/>
		<path fill="#2A2A2A" d="M64.186,116.5c0.229,1,0.34,2,0.568,4c-0.638,0-0.956,0-1.594,0c-0.499-4-0.75-6-1.25-10
			c0.717,0,1.074,0,1.791,0c1.559,0,2.558,0.852,2.995,2.956c0.223,1.07,0.188,1.789-0.119,2.324
			c-0.308,0.536-0.863,0.72-1.653,0.72C64.628,116.5,64.481,116.5,64.186,116.5z M63.475,111.5c0.185,1,0.276,2,0.461,3
			c0.118,0,0.177,0,0.295,0c0.465,0,0.783,0.053,0.95-0.163s0.195-0.554,0.083-1.175c-0.108-0.602-0.288-1.087-0.533-1.284
			c-0.245-0.198-0.583-0.378-1.016-0.378C63.619,111.5,63.57,111.5,63.475,111.5z"/>
	</g>
</g>
<polyline fill="#2A2A2A" points="117.766,52.312 113.298,49.956 115.832,45.144 "/>
<polyline fill="#2A2A2A" points="117.462,80.415 114.489,76.33 118.887,73.131 "/>
<polyline fill="#2A2A2A" points="106.472,103.308 105.115,98.441 110.354,96.98 "/>
<polyline fill="#2A2A2A" points="82.624,122.021 83.826,117.116 89.109,118.409 "/>
<polyline fill="#2A2A2A" points="52.188,127.495 55.768,123.931 59.605,127.784 "/>
<ellipse fill="#DFE4E7" cx="55.947" cy="65.304" rx="4.559" ry="4.859"/>
<path fill="none" stroke="#F7931E" stroke-width="1.4121" stroke-miterlimit="10" d="M94.955,13.24"/>
<path fill="none" stroke="#F7931E" stroke-width="1.4121" stroke-miterlimit="10" d="M47.94,52.778"/>
<path fill="none" stroke="#F7931E" stroke-width="1.4121" stroke-miterlimit="10" d="M94.955,92.316"/>
<path fill="#C9C9C9" stroke="#DFE4E7" stroke-width="12.4" stroke-miterlimit="10" d="M126.304,29.682
	c6.673,6.434,10.716,14.854,10.716,24.07c0,3.268-0.508,6.437-1.463,9.451"/>
<path fill="#DFE4E7" d="M135.094,58.897c-0.089,0.142-0.27,0.187-0.403,0.103l-15.894-9.988c-0.134-0.084-0.171-0.267-0.082-0.408
	l12.052-19.173c0.087-0.141,0.268-0.187,0.401-0.103"/>
<ellipse fill-rule="evenodd" clip-rule="evenodd" fill="none" stroke="#2A2A2A" stroke-width="0.5363" stroke-miterlimit="10" cx="56.083" cy="65.413" rx="11.651" ry="11.459"/>
<line fill="#C9C9C9" stroke="#DFE4E7" stroke-width="4.1385" stroke-miterlimit="10" x1="57.899" y1="65.304" x2="140.87" y2="62.974"/>
<line fill="#C9C9C9" stroke="#DFE4E7" stroke-width="4.1385" stroke-miterlimit="10" x1="58.943" y1="63.252" x2="131.382" y2="27.114"/>
<line fill-rule="evenodd" clip-rule="evenodd" fill="#FFFFFF" x1="-35.5" y1="162.776" x2="-35.5" y2="120.568"/>
<g>
	<path fill="#2A2A2A" d="M7.661,66.543c1.602,0.191,2.774,0.779,3.517,1.76c0.743,0.98,1.018,2.283,0.822,3.904l-0.143,1.189
		l5.294,0.635l-0.333,2.771L1.935,75.018l0.501-4.176c0.19-1.586,0.724-2.744,1.6-3.477C4.912,66.633,6.121,66.359,7.661,66.543z
		 M9.272,73.086l0.11-0.912c0.103-0.852-0.013-1.514-0.346-1.982c-0.333-0.469-0.866-0.748-1.599-0.836
		c-0.74-0.09-1.308,0.023-1.703,0.336c-0.396,0.313-0.639,0.848-0.73,1.604l-0.151,1.26L9.272,73.086z"/>
	<path fill="#2A2A2A" d="M13.956,61.113l5.423,1.92l-0.932,2.631l-14.132-5l1.279-3.618c0.597-1.687,1.388-2.811,2.374-3.372
		c0.985-0.563,2.19-0.591,3.614-0.087c0.831,0.294,1.5,0.756,2.005,1.388c0.505,0.631,0.812,1.38,0.918,2.245
		c3.838-0.743,6.321-1.233,7.449-1.472l-1.033,2.921l-6.471,1.043L13.956,61.113z M11.52,60.252l0.3-0.85
		c0.294-0.832,0.354-1.502,0.178-2.01c-0.176-0.507-0.602-0.881-1.278-1.12c-0.67-0.237-1.218-0.204-1.645,0.101
		c-0.427,0.304-0.791,0.881-1.091,1.729L7.701,58.9L11.52,60.252z"/>
	<path fill="#2A2A2A" d="M23.097,40.56c2.047,1.4,3.316,2.924,3.806,4.568c0.489,1.646,0.165,3.3-0.974,4.965
		c-1.14,1.664-2.565,2.565-4.275,2.705c-1.71,0.139-3.595-0.496-5.654-1.906c-2.059-1.41-3.325-2.933-3.799-4.57
		c-0.474-1.637-0.14-3.291,1.004-4.961c1.143-1.669,2.563-2.572,4.263-2.707C19.167,38.519,21.043,39.155,23.097,40.56z
		 M17.67,48.489c1.382,0.946,2.58,1.428,3.595,1.446c1.015,0.018,1.836-0.432,2.463-1.348c1.258-1.838,0.497-3.709-2.285-5.613
		c-2.786-1.907-4.806-1.946-6.056-0.118c-0.627,0.917-0.75,1.848-0.366,2.794S16.288,47.542,17.67,48.489z"/>
	<path fill="#2A2A2A" d="M33.332,47.393c-0.456,0.436-0.906,0.761-1.348,0.975l-1.827-1.914c0.442-0.232,0.806-0.485,1.093-0.76
		c0.443-0.422,0.61-0.882,0.501-1.378s-0.481-1.079-1.119-1.746l-9.698-10.162l2.019-1.929l9.685,10.148
		c1.208,1.267,1.874,2.473,1.999,3.62C34.761,45.396,34.327,46.444,33.332,47.393z"/>
	<path fill="#2A2A2A" d="M41.946,34.926l-6.271,4.262L27.25,26.787l6.272-4.26l1.463,2.154l-3.963,2.691l1.85,2.723l3.687-2.505
		l1.464,2.155l-3.687,2.505l2.172,3.197l3.963-2.692L41.946,34.926z"/>
	<path fill="#2A2A2A" d="M44.688,20.035c-0.978,0.386-1.569,1.102-1.775,2.148c-0.206,1.05-0.014,2.32,0.576,3.814
		c1.227,3.109,2.865,4.259,4.915,3.45c0.86-0.339,1.805-0.995,2.835-1.967l0.979,2.479c-0.817,0.873-1.845,1.555-3.085,2.044
		c-1.781,0.704-3.387,0.625-4.816-0.232s-2.598-2.438-3.506-4.739c-0.572-1.45-0.842-2.812-0.809-4.084
		c0.033-1.273,0.369-2.373,1.007-3.298c0.639-0.924,1.542-1.616,2.709-2.077c1.189-0.471,2.514-0.614,3.972-0.434l0.111,2.734
		c-0.556-0.066-1.102-0.102-1.638-0.103C45.626,19.771,45.135,19.858,44.688,20.035z"/>
	<path fill="#2A2A2A" d="M59.868,29.167l-2.758,0.43L55.205,17.4l-3.532,0.551l-0.409-2.613l9.822-1.534l0.408,2.613l-3.531,0.552
		L59.868,29.167z"/>
	<path fill="#2A2A2A" d="M73.166,24.858c-0.061,1.352-0.535,2.398-1.424,3.14c-0.889,0.74-2.096,1.077-3.618,1.011
		c-1.403-0.063-2.632-0.417-3.685-1.065l0.129-2.95c0.868,0.489,1.605,0.841,2.212,1.052s1.165,0.328,1.675,0.352
		c0.611,0.026,1.087-0.086,1.426-0.338s0.52-0.641,0.543-1.167c0.012-0.294-0.049-0.559-0.182-0.794
		c-0.134-0.234-0.336-0.464-0.605-0.688c-0.27-0.224-0.823-0.587-1.66-1.089c-0.785-0.466-1.369-0.905-1.754-1.318
		c-0.385-0.414-0.685-0.889-0.901-1.426s-0.31-1.156-0.278-1.86c0.058-1.324,0.498-2.348,1.32-3.071
		c0.822-0.725,1.929-1.055,3.32-0.994c0.684,0.03,1.332,0.152,1.944,0.363c0.612,0.212,1.251,0.5,1.913,0.864l-1.008,2.43
		c-0.688-0.359-1.258-0.613-1.711-0.764s-0.901-0.234-1.346-0.254c-0.527-0.023-0.939,0.099-1.232,0.367
		c-0.295,0.267-0.451,0.626-0.472,1.076c-0.013,0.28,0.034,0.527,0.14,0.74c0.104,0.214,0.277,0.423,0.518,0.628
		c0.239,0.206,0.813,0.582,1.721,1.128c1.201,0.724,2.014,1.433,2.439,2.125C73.017,23.046,73.207,23.881,73.166,24.858z"/>
</g>
</svg>
