<?xml version="1.0" encoding="utf-8"?>
<!-- Generator: Adobe Illustrator 15.1.0, SVG Export Plug-In . SVG Version: 6.00 Build 0)  -->
<!DOCTYPE svg PUBLIC "-//W3C//DTD SVG 1.1//EN" "http://www.w3.org/Graphics/SVG/1.1/DTD/svg11.dtd">
<svg version="1.1" id="Layer_1" xmlns="http://www.w3.org/2000/svg" xmlns:xlink="http://www.w3.org/1999/xlink" x="0px" y="0px"
	 viewBox="0 0 178.5 176.5" enable-background="new 0 0 178.5 176.5" xml:space="preserve">
<g opacity="0.63">
	<polygon fill="#E0B23D" points="92.459,90.228 95.865,26.392 102.053,27.422 93.274,90.301 108.268,28.452 114.725,29.516 
		94.07,90.471 121.387,30.605 128.429,31.75 94.834,90.735 135.922,32.959 143.982,34.249 95.545,91.086 152.877,35.66 
		162.624,37.193 96.188,91.514 173.882,38.943 176.111,39.288 176.111,45.61 96.753,92.011 176.111,52.688 176.111,58.913 
		97.226,92.566 176.111,64.627 176.111,69.87 97.597,93.17 176.111,74.771 176.111,79.425 97.856,93.808 176.111,83.851 
		176.111,88.179 98.003,94.466 176.111,92.369 176.111,96.57 98.031,95.133 176.111,100.721 176.111,104.973 97.938,95.795 
		176.111,109.271 176.111,113.756 97.727,96.437 176.111,118.412 176.111,123.363 97.404,97.044 176.111,128.674 176.111,134.407 
		96.976,97.608 176.111,140.804 176.111,147.853 96.45,98.113 172.199,153.763 161.391,155.081 95.838,98.553 151.62,156.286 
		142.928,157.37 95.154,98.913 134.916,158.378 127.495,159.32 94.415,99.191 120.527,160.212 113.855,161.071 93.629,99.377 
		107.487,161.899 101.215,162.719 92.82,99.464 95.115,163.523 88.967,164.337 92.002,99.455 82.858,165.152 76.569,165.994 
		91.194,99.349 70.172,166.86 63.467,167.773 90.412,99.144 56.447,168.732 48.96,169.766 89.674,98.847 40.858,170.895 
		32.06,172.127 88.995,98.462 22.143,173.529 11.153,175.104 88.387,98 8.913,166.068 8.913,156.09 87.867,97.47 8.913,147.023 
		8.913,138.866 87.446,96.881 8.913,131.314 8.913,124.26 87.127,96.246 8.913,117.605 8.913,111.189 86.925,95.582 8.913,105.035 
		8.913,98.932 86.837,94.902 8.913,92.974 8.913,86.928 86.873,94.219 8.913,80.893 8.913,74.65 87.024,93.549 8.913,68.256 
		8.913,61.522 87.292,92.91 8.913,54.42 8.913,46.813 87.668,92.313 8.913,38.498 8.913,29.432 88.147,91.772 8.913,19.089 
		8.913,11.247 12.514,11.897 88.717,91.299 23.574,13.887 33.188,15.598 89.366,90.902 41.967,17.147 49.944,18.546 90.08,90.592 
		57.368,19.836 64.362,21.046 90.846,90.371 70.983,22.183 77.417,23.28 91.644,90.25 83.614,24.331 89.793,25.373 	"/>
</g>
</svg>
