<?xml version="1.0" encoding="utf-8"?>
<!-- Generator: Adobe Illustrator 15.1.0, SVG Export Plug-In . SVG Version: 6.00 Build 0)  -->
<!DOCTYPE svg PUBLIC "-//W3C//DTD SVG 1.1//EN" "http://www.w3.org/Graphics/SVG/1.1/DTD/svg11.dtd">
<svg version="1.1" id="Layer_1" xmlns="http://www.w3.org/2000/svg" xmlns:xlink="http://www.w3.org/1999/xlink" x="0px" y="0px"
	 width="710.964px" height="317.984px" viewBox="0 0 710.964 317.984" enable-background="new 0 0 710.964 317.984"
	 xml:space="preserve">
<path fill="#2A2A2A" d="M367.763,212.482c-3.519,3.474-8.494,5.22-13.422,4.742c-6.566,0.352-12.354-4.373-14.787-10.229
	c-20.346-50.503-40.616-101.038-60.884-151.566c-2.778-6.508-4.808-13.423-8.77-19.346c-5.473-8.368-14.474-13.882-23.908-16.717
	c-5.063-1.699-10.463-1.33-15.714-1.382c-9.497-0.146-18.961,2.984-26.672,8.463c-9.969,6.295-17.469,16.455-20.565,27.826v3.941
	c0.331-0.283,0.988-0.855,1.313-1.143c1.896-2.877,4.837-5.492,8.529-5.195c5.24-0.664,9.787,2.819,13.104,6.471
	c4.034,4.23,5.809,9.871,7.965,15.215c20.419,50.846,40.891,101.686,61.294,152.617c3.836,11.198,13.273,19.828,23.97,24.319
	c10.026,3.896,21.319,5.554,31.77,2.461c14.584-3.366,28.03-12.335,35.793-25.258c4.146-7.039,7.037-15.139,6.795-23.377
	c-2.3,2.505-3.216,5.902-5.787,8.158H367.763z"/>
<path fill="#2A2A2A" d="M250.224,221.833c-3.07,1.863-6.903,2.16-10.321,1.263c-4.495-1.309-7.636-5.3-9.315-9.499
	c-13.945-33.965-27.967-67.904-41.892-101.878c-1.53-3.505-2.446-7.354-4.892-10.37c-0.542,7.886-0.122,15.813-0.376,23.72
	c-0.301,8.379,0.084,16.753-0.387,25.114v85.146c2.531,4.067,5.144,8.212,8.876,11.235c4.879,4.068,10.866,6.804,17.167,7.8
	c4.487,0.332,8.96,0.332,13.476-0.06c6.93-1.26,13.423-4.396,19.025-8.621c3.379-3.726,7.108-7.219,9.683-11.583
	c3.545-6.016,6.112-12.811,6.12-19.881c-2.247,2.646-4.064,5.796-7.133,7.615H250.224z"/>
<path fill="none" stroke="#00FFFF" stroke-width="0.448" stroke-miterlimit="10" d="M544.41,158.735
	c-1.566,0-3.038,0.432-4.338,1.194c-0.332,0.082-0.65,0.208-0.944,0.418c-4.88,3.514-6.698,9.541-10.524,13.967
	c-2.124,2.403-5.072,3.785-7.92,5.127c0.142,0.139,0.419,0.372,0.558,0.512c2.056,0.184,4.086,0.509,6.178,0.564
	c2.997,0.559,6.084,0.096,9.056,0.603c4.272,0.325,8.92,0.325,12.66-2.063c1.51-1.049,2.94-2.541,3.55-4.302
	c0.749-1.545,1.175-3.32,1.175-5.205c0.027-5.992-4.211-10.823-9.463-10.815H544.41z"/>
<path fill="#2A2A2A" d="M427.758,156.893c-0.255-0.785-0.503-1.572-0.744-2.362c-14.252-36.453-28.122-72.947-42.306-109.436
	c-1.741-4.075-3.555-8.229-6.51-11.592c-8.229-9.624-21.256-14.587-33.777-13.86c-6.825,0.932-13.818,2.327-19.732,6.062
	c-7.332,4.315-13.733,10.386-17.894,17.833c-0.848,1.643-2.088,3.195-2.306,5.083c0.614,0.83,1.517-0.006,2.271-0.119
	c2.977-1.064,6.338-0.601,9.125,0.828c4.504,2.24,8.129,5.974,10.781,10.25c3.398,5.56,5.061,11.946,7.549,17.953
	c12.48,32.256,24.934,64.513,37.358,96.8C376.847,188.039,430.851,166.412,427.758,156.893z"/>
<path fill-rule="evenodd" clip-rule="evenodd" fill="#F7C24B" d="M361.333,147.09c19.088-6.242,36.393-14.268,55.992-19.998
	c2.064,2.736,3.43,6.169,4,10.398c-9.989,4.426-19.698,8.67-32.796,13.598C376.114,155.76,362.203,166.209,361.333,147.09z"/>
<path fill-rule="evenodd" clip-rule="evenodd" fill="#262120" d="M519.003,187.331c-8.403,10.302-25,5.558-25.084-8.511
	C499.145,184.728,507.762,190.197,519.003,187.331z"/>
<path fill-rule="evenodd" clip-rule="evenodd" fill="#E7A636" d="M604.054,195.494c10.099,4.889,18.59,10.994,28.459,16.058
	c-3.896,8.6-9.371,15.113-13.705,23.134c-9.936-4.542-18.733-9.943-26.876-15.838C595.074,209.874,600.315,203.677,604.054,195.494z
	 M592.834,218.165c6.661,4.417,12.695,9.31,21.77,11.9c3.196-7.338,7.936-12.635,10.889-20.293
	c-5.825-5.051-13.427-8.756-20.868-12.585C600.687,204.168,596.627,210.99,592.834,218.165z"/>
<path fill-rule="evenodd" clip-rule="evenodd" fill="#E0B23D" d="M604.625,197.187c7.441,3.829,15.043,7.534,20.868,12.585
	c-2.953,7.659-7.692,12.955-10.889,20.293c-9.074-2.59-15.108-7.483-21.77-11.9C596.627,210.99,600.687,204.168,604.625,197.187z"/>
<path fill-rule="evenodd" clip-rule="evenodd" fill="#69B4BD" d="M542.902,234.662c-1.969-3.238-5.728-5.125-8.628-7.657
	c1.509-7.38,1.346-16.97,3.978-22.868c2.361,0.34,2.407,2.433,4.424,3.037c10.841,9.767,22.16,19.171,33.151,28.822
	c-3.331,5.909-8.147,9.854-11.814,15.321C555.965,246.529,550.862,239.515,542.902,234.662z"/>
<path fill-rule="evenodd" clip-rule="evenodd" fill="#69B4BD" d="M485.318,228.679c-10.588,1.945-19.604,5.459-29.597,7.999
	c-1.726-6.273-3.333-12.664-5.599-18.397c11.619-6.246,27.211-8.517,39.995-13.599c0.533,0,1.065,0,1.599,0
	c0,7.199,0,14.398,0,21.597C489.488,226.984,486.849,227.277,485.318,228.679z"/>
<path fill-rule="evenodd" clip-rule="evenodd" fill="#69B4BD" d="M503.714,233.479c0-8.8,0-17.598,0-26.397
	c7.213,1.013,15.187,1.013,22.398,0c0,8.799,0,17.597,0,26.397C518.648,233.479,511.182,233.479,503.714,233.479z"/>
<path fill-rule="evenodd" clip-rule="evenodd" fill="#C75A4D" d="M483.168,142.984c-5.601-2.163-13.22-2.309-17.021-6.271
	c6.138-7.001,17.731-8.547,27.325-12.094c-2.547-11.98,2.198-20.189,13.886-20.605c10.138-0.361,20.762,3.607,33.147,7.167
	c11.373,3.269,22.393,6.329,27.324,12.99c6.808,9.195-4.275,21.671-3.135,32.252c0.01-1.648-1.688-2.194-2.688-2.688
	c-5.154-2.545-11.952-3.546-17.022-6.271c-2.422,0.266-3.634,1.74-5.375,2.688c-5.762,2.45-10.702,5.063-17.917,4.032
	c-5.429-0.775-11.146-4.759-17.47-6.719C497.424,145.356,490.375,144.187,483.168,142.984z"/>
<path fill-rule="evenodd" clip-rule="evenodd" fill="#ECE6CD" d="M478.242,151.496c1.367-3.112,3.33-5.628,4.927-8.511
	c7.206,1.202,14.256,2.372,21.054,4.479c6.324,1.96,12.041,5.944,17.47,6.719c7.215,1.031,12.155-1.582,17.917-4.032
	c7.77,5.371,8.379,17.901,8.96,30.46c3.53-0.352,3.334-4.43,7.167-4.479c2.479,1.723,2.029,7.395,0.896,10.303
	c0.436-0.013,0.348-0.549,0.448-0.896c0.362-0.085,0.446-0.449,0.896-0.448c-2.553,3.858-4.055,11.532-10.751,8.511
	c-3.978,5.494-10.656,10.458-17.022,12.094c-2.604,0.681-4.316,2.253-7.615,2.24c-5.097,0.306-8.341,0.306-13.438,0
	c-2.818,0.278-3.791-1.287-6.271-1.344c-0.013-0.436-0.548-0.348-0.896-0.448C482.254,200.152,467.524,175.503,478.242,151.496z
	 M493.919,178.82c0.084,14.068,16.681,18.813,25.084,8.511C507.762,190.197,499.145,184.728,493.919,178.82z"/>
<path fill-rule="evenodd" clip-rule="evenodd" fill="#2A2A2A" d="M539.609,150.151c1.741-0.947,2.953-2.422,5.375-2.688
	c5.07,2.726,11.868,3.726,17.022,6.271c1.001,0.494,2.698,1.04,2.688,2.688c0.482,12.278-3.431,20.161-6.719,28.668
	c-0.45-0.001-0.534,0.363-0.896,0.448c-0.101,0.348-0.013,0.884-0.448,0.896c1.134-2.909,1.584-8.58-0.896-10.303
	c-3.833,0.05-3.637,4.128-7.167,4.479C547.988,168.053,547.378,155.522,539.609,150.151z"/>
<path fill-rule="evenodd" clip-rule="evenodd" fill="#E0B23D" d="M359.734,147.89c17.926-9.004,38.506-15.355,58.393-22.398
	c3.051,6.014,6.16,11.97,7.999,19.198c-19.224,7.441-37.673,15.655-58.394,21.597C365.126,160.093,362.412,154.01,359.734,147.89z
	 M388.53,151.088c13.098-4.928,22.807-9.172,32.796-13.598c-0.57-4.229-1.936-7.663-4-10.398
	c-19.6,5.73-36.904,13.756-55.992,19.998C362.203,166.209,376.114,155.76,388.53,151.088z"/>
<path fill-rule="evenodd" clip-rule="evenodd" fill="#F7E6C3" d="M590.128,220.211c3.701-9.794,8.448-18.208,14.035-25.51
	c11.262,4.246,19.052,11.118,29.252,16.168c-0.183,1.32-0.365,2.641-0.549,3.961c-5.78,6.111-8.517,16.242-15.07,21.33
	C607.558,231.612,598.841,225.915,590.128,220.211z M591.932,218.848c8.143,5.896,16.94,11.297,26.876,15.838
	c4.334-8.021,9.81-14.534,13.705-23.134c-9.869-5.064-18.36-11.169-28.459-16.058C600.315,203.677,595.074,209.874,591.932,218.848z
	"/>
<path fill-rule="evenodd" clip-rule="evenodd" fill="#9BA6B0" d="M502.917,206.282c9.102,0.547,14.894,0.547,23.997,0
	c0,9.331,0,18.664,0,27.997c-7.733,0-15.466,0-23.199,0C501.899,226.496,503.412,215.384,502.917,206.282z M526.113,233.479
	c0-8.8,0-17.598,0-26.397c-7.212,1.013-15.186,1.013-22.398,0c0,8.799,0,17.597,0,26.397
	C511.182,233.479,518.648,233.479,526.113,233.479z"/>
<path fill-rule="evenodd" clip-rule="evenodd" fill="#ECE6CD" stroke="#FFFFFF" stroke-width="0.8882" stroke-miterlimit="10" d="
	M577.066,262.009c-1.663-5.125-10.41-4.89-11.469-10.472c3.999-10.652,13.098-14.565,26.076-13.345
	c0.091,4.24,5.007,3.689,3.767,7.79c-1.077,3.555-4.325,3.524-10.059,2.644C582.342,252.731,579.517,257.123,577.066,262.009z"/>
<path fill-rule="evenodd" clip-rule="evenodd" fill="#9BA6B0" d="M423.726,132.691c3.243-0.489,4.706-2.759,8.798-2.4
	c0.415,4.118,2.648,6.417,3.2,10.398c0.045,0.488,0.119,0.947,0.8,0.8c0.936,4.131,3.567,6.564,3.999,11.198
	c-10.807,2.791-19.703,7.492-30.396,10.398c6.532,19.333,15.645,36.083,22.397,55.194c0.328,1.926-1.461,1.739-0.8,4
	c5.761,3.305,7.313,10.817,10.399,16.797c0.939,7.758,9.708,15.661,6.399,22.397c-9.57-14.703-15.285-31.967-22.397-48.794
	c-7.118-16.837-14.196-34.198-20.798-51.194c4.41-1.455,8.625-3.106,12.799-4.798c6.143-2.124,11.808-4.724,18.397-6.4
	c-0.956-6.242-4.505-9.894-5.6-15.998c-2.479-0.079-4.437,0.362-5.599,1.6C423.084,136.015,422.716,133.629,423.726,132.691z"/>
<path fill-rule="evenodd" clip-rule="evenodd" fill="#F8F5ED" d="M368.533,167.887c9.954-2.753,26.873-8.684,36.795-12.798
	c10.484-4.347,25.728-5.958,19.998-19.198c1.162-1.237,3.119-1.679,5.599-1.6c1.095,6.104,4.644,9.755,5.6,15.998
	c-6.59,1.676-12.255,4.276-18.397,6.4c0.926-1.185,0.926-2.016,0-3.2C402.363,152.242,385.851,168.054,368.533,167.887z"/>
<path fill-rule="evenodd" clip-rule="evenodd" fill="#DFE0E2" d="M606.838,239.486c0.036-0.265,0.072-0.527,0.109-0.792
	c-2.847-2.911-6.858-6.156-12.019-6.51c0.477-4.616-6.86-3.32-7.044-7.438c0.114-2.349,2.129-2.186,2.243-4.535
	c8.713,5.704,17.43,11.401,27.668,15.949c-0.488,2.792-1.926,4.33-3.255,6.01C611.355,241.843,609.597,237.916,606.838,239.486z"/>
<path fill-rule="evenodd" clip-rule="evenodd" fill="#DFE0E2" d="M557.308,296.67c-26.662,0-53.326,0-79.988,0
	c3.704-4.561,11.032-5.499,14.396-10.4c0.07-16.399-0.05-39.36,0-58.392c-2.575-0.175-3.385,1.416-6.398,0.8
	c1.531-1.402,4.17-1.695,6.398-2.4c0-7.199,0-14.398,0-21.597c-0.533,0-1.065,0-1.599,0c0.177-0.624,0.669-0.93,1.599-0.8
	c4.432,0.102,6.169,2.897,11.2,2.4c0.495,9.102-1.018,20.214,0.798,27.997c7.733,0,15.466,0,23.199,0c0-9.333,0-18.666,0-27.997
	c5.889,0.023,14.384-3.188,11.998-3.2c-1.797,6.203-0.318,15.68-0.8,23.197c3.22,2.111,1.399,40.728,0.8,61.591
	C544.851,290.997,551.785,293.128,557.308,296.67z"/>
<path fill-rule="evenodd" clip-rule="evenodd" fill="#ECE6CD" stroke="#FFFFFF" stroke-width="0.8882" stroke-miterlimit="10" d="
	M432.524,218.281c4.979-1.341,12.091,1.647,17.599,2.4c0.615,4.874,4.422,10.294,3.2,14.398c-2.655,2.411-6.604,3.528-11.199,3.999
	c-3.087-5.98-4.639-13.492-10.399-16.797C431.063,220.02,432.852,220.207,432.524,218.281z"/>
<path fill-rule="evenodd" clip-rule="evenodd" fill="#A37D65" d="M594.929,232.184c5.16,0.354,9.172,3.6,12.019,6.51
	c-0.037,0.265-0.073,0.528-0.109,0.792c-5.424,4.918-15.089,34.086-21.448,38.212c-6.045,3.923-12.324-5.259-13.273-9.109
	c2.969-1.525,1.354-3.994,4.949-6.581c2.451-4.886,5.276-9.277,8.315-13.384c5.733,0.88,8.981,0.911,10.059-2.644
	c1.24-4.1-3.676-3.549-3.767-7.79C592.458,236.586,595.599,234.398,594.929,232.184z"/>
<g>
	<g>
		<path fill="#FFFFFF" d="M515.114,252.068c0,14.711,0,29.422,0,44.133c0,0.334,0.629,0.246,0.629-0.043c0-14.711,0-29.422,0-44.133
			C515.743,251.691,515.114,251.779,515.114,252.068L515.114,252.068z"/>
	</g>
</g>
<g>
	<path fill-rule="evenodd" clip-rule="evenodd" fill="#2A2A2A" d="M501.66,157.132c-3.379,0.729-18.971-1.791-20.148-6.48
		C488.435,148.381,498.462,153.234,501.66,157.132z"/>
	<path fill-rule="evenodd" clip-rule="evenodd" fill="#2A2A2A" d="M541.364,164.273c-8.212-2.331-13.83-1.427-20.896-2.33
		C521.91,156.701,541.964,156.224,541.364,164.273z"/>
	<path fill-rule="evenodd" clip-rule="evenodd" fill="#2A2A2A" d="M487.959,160.382c0.271-3.049,5.747,0.386,8.19,0.044
		c0.15,3.012-1.748,3.469-2.584,5.25C488.25,165.971,490.918,161.494,487.959,160.382z"/>
	<path fill-rule="evenodd" clip-rule="evenodd" fill="#2A2A2A" d="M524.735,165.567c2.647,0.476,5.294,0.952,7.941,1.428
		c-2.245,1.72-2.485,5.934-7.348,4.393C524.318,169.933,524.182,167.956,524.735,165.567z"/>
</g>
</svg>
